<?xml version="1.0" encoding="UTF-8"?>
<svg version="1.1" xmlns="http://www.w3.org/2000/svg" width="225" height="225">
<path d="M0 0 C7.78850612 2.17945413 13.67835354 0.643957 21.125 -1.98046875 C28.784212 -4.38726974 36.29191424 -4.2061461 43.54296875 -0.61328125 C48.53533041 2.35590946 53.47876555 5.62379666 55.375 11.3125 C54.323125 11.93125 53.27125 12.55 52.1875 13.1875 C46.88170743 16.99733888 44.37436545 22.41301522 42.77734375 28.64453125 C41.67732675 35.86418307 42.78856961 42.4379517 46.9375 48.5 C50.38927589 52.77403516 54.67349869 55.5542859 59.375 58.3125 C55.12652124 70.9461342 47.18981439 84.48616279 35.375 91.3125 C29.34404324 93.32281892 24.8157203 92.64177231 19.0625 90.3125 C9.87590908 86.76457523 2.91217968 87.82085472 -6.0546875 91.41015625 C-10.94023159 93.12529407 -14.85640528 92.98456599 -19.75 91.125 C-33.38777808 82.52727034 -42.018197 66.50231796 -45.72265625 51.0546875 C-48.78219966 36.70527916 -48.81132657 23.03984233 -40.625 10.3125 C-35.03420092 3.20259739 -28.24344668 -0.89437872 -19.6875 -3.625 C-12.90821139 -3.76335283 -6.44070422 -1.96021433 0 0 Z " fill="#FAFAFA" transform="translate(104.625,76.6875)"/>
<path d="M0 0 C1 1 1 1 1.0546875 2.93359375 C0.42130041 11.75970518 -2.28985731 18.85103802 -8.875 24.9375 C-14.22283891 29.1996874 -18.97353476 31.5141316 -26 31 C-26.74783648 23.18926345 -25.54746387 17.46773864 -21 11 C-15.49234057 4.93642728 -8.73632601 -1.02780306 0 0 Z " fill="#EAEAEA" transform="translate(134,45)"/>
</svg>
