<svg width="752" height="737" viewBox="0 0 752 737" fill="none" xmlns="http://www.w3.org/2000/svg">
<g clip-path="url(#clip0_4980_7958)">
<path d="M90.8728 606.18C90.8728 606.18 92.9205 595.674 104.924 589.512C116.927 583.35 124.359 584.859 124.359 584.859L116.913 592.72L90.8721 606.177L90.8728 606.18Z" fill="#D94521"/>
<path d="M105.652 598.654C104.562 598.948 82.7281 602.704 78.1495 616.132C69.6436 641.064 94.4355 655.66 103.234 664.413C112.032 673.167 129.469 706.723 153.088 700.944C176.707 695.164 165.923 660.205 165.923 660.205L105.652 598.654Z" fill="#E3522E"/>
<path d="M144.4 570.175C144.4 570.175 159.925 558.332 176.972 560.163C194.018 561.995 207.123 592.892 210.541 604.853C213.958 616.815 236.193 665.276 207.484 675.354C199.273 678.237 199.024 675.098 199.024 675.098L144.4 570.175Z" fill="#E3522E"/>
<path d="M81.5401 571.508C82.1939 573.312 84.1716 574.249 85.9872 573.624C90.2486 572.162 98.1175 570.453 105.555 574.135C114.896 578.76 121.403 590.148 121.403 590.148L126.245 583.911C126.245 583.911 116.117 569.068 104.589 566.122C96.8473 564.147 88.55 565.695 83.9327 566.927C81.9446 567.457 80.8398 569.574 81.5401 571.508Z" fill="#00533E"/>
<path d="M122.92 586.108C122.032 588.049 120.215 589.397 118.106 589.721C112.166 590.634 100.69 593.365 95.1813 601.195C83.0405 618.463 99.8679 640.695 124.328 667.527C148.787 694.359 156.096 702.668 185.099 689.741C211.787 677.847 211.173 652.107 192.483 612.448C175.074 575.507 168.851 560.299 137.847 571.937C128.63 575.396 124.496 582.653 122.92 586.108Z" fill="#ED5E3B"/>
<path d="M619.366 635.975C619.366 635.975 617.653 627.181 607.606 622.024C597.559 616.866 591.339 618.13 591.339 618.13L597.571 624.709L619.367 635.973L619.366 635.975Z" fill="#D94521"/>
<path d="M606.99 629.675C607.903 629.921 626.178 633.064 630.01 644.304C637.13 665.172 616.379 677.388 609.015 684.715C601.65 692.041 587.056 720.128 567.287 715.29C547.518 710.453 556.544 681.193 556.544 681.193L606.99 629.675Z" fill="#E3522E"/>
<path d="M574.56 605.84C574.56 605.84 561.566 595.927 547.298 597.46C533.03 598.993 522.061 624.854 519.201 634.865C516.341 644.877 497.73 685.438 521.759 693.874C528.632 696.287 528.841 693.659 528.841 693.659L574.56 605.84Z" fill="#E3522E"/>
<path d="M627.178 606.953C626.631 608.464 624.975 609.248 623.456 608.725C619.889 607.5 613.303 606.07 607.077 609.153C599.259 613.024 593.812 622.555 593.812 622.555L589.76 617.335C589.76 617.335 598.237 604.911 607.886 602.445C614.366 600.792 621.311 602.088 625.175 603.119C626.839 603.563 627.764 605.335 627.178 606.953Z" fill="#00533E"/>
<path d="M592.542 619.179C593.285 620.803 594.807 621.931 596.571 622.203C601.544 622.967 611.149 625.253 615.759 631.806C625.921 646.259 611.837 664.867 591.364 687.326C570.891 709.784 564.774 716.739 540.499 705.919C518.161 695.963 518.675 674.419 534.318 641.225C548.889 610.306 554.098 597.576 580.049 607.317C587.763 610.213 591.223 616.287 592.542 619.179Z" fill="#ED5E3B"/>
<path d="M614.345 332.276C614.345 332.276 612.746 331.602 609.123 330.806C605.858 330.087 603.395 325.031 602.971 319.732C602.602 315.115 603.23 312.79 603.446 312.15C603.488 312.025 603.475 311.888 603.413 311.774C603.275 311.524 603.031 311.101 602.89 310.96C602.791 310.86 602.546 310.735 602.338 310.64C602.158 310.557 601.943 310.642 601.873 310.829C601.398 312.087 599.849 316.693 600.82 321.164C601.959 326.406 603.489 329.508 603.454 332.435C603.42 335.359 601.996 337.193 602.857 339.474L607.02 334.789L614.348 332.275L614.345 332.276Z" fill="#0C513F"/>
<path d="M603.312 338.966L607.018 334.794L614.346 332.28C614.346 332.28 612.747 331.607 609.124 330.81C605.859 330.091 603.396 325.036 602.972 319.737C602.602 315.12 603.231 312.794 603.447 312.154C603.489 312.029 603.476 311.892 603.414 311.778C603.334 311.634 603.218 311.434 603.111 311.263C602.26 313.441 602.033 317.268 602.423 320.9C602.893 325.301 607.082 330.502 606.13 333.194C605.499 334.979 603.988 337.762 603.313 338.97L603.312 338.966Z" fill="#02C27F"/>
<path d="M690.245 349.301C689.887 348.91 689.309 348.808 688.839 349.059C684.795 351.212 666.281 359.799 652.756 356.779C621.534 349.809 624.763 324.518 607.843 333.872C591.45 342.937 616.956 360.736 624.12 365.581C631.335 370.46 647.526 377.526 669.632 366.28C687.17 357.357 690.065 352.138 690.515 350.365C690.61 349.99 690.504 349.59 690.244 349.304L690.245 349.301Z" fill="#ED5E3B"/>
<path d="M624.121 365.577C631.336 370.456 647.53 377.523 669.633 366.277C687.171 357.353 690.066 352.135 690.516 350.362C690.594 350.057 690.541 349.741 690.378 349.481C686.272 353.31 678.075 359.857 666.134 364.357C648.316 371.073 636.727 368.633 624.617 361.643C617.783 357.699 607.952 345.576 602.886 338.961C599.356 348.446 618.138 361.532 624.121 365.577Z" fill="#992600"/>
<path d="M346.561 291.942C353.403 288.636 363.117 294.121 367.851 287.755C370.279 284.485 372.064 279.879 376.09 279.268C379.996 278.675 383.049 282.322 386.28 284.592C390.959 287.881 397.41 288.452 402.592 286.044C404.496 285.159 406.426 283.868 408.506 284.187C413.142 284.904 412.934 291.636 415.243 295.72C418.707 301.834 428.02 301.494 432.931 306.521C438.028 311.737 436.461 320.181 435.814 327.442C435.665 329.092 435.612 330.862 436.456 332.291C437.53 334.103 439.714 334.847 441.539 335.895C446.464 338.722 449.307 344.785 448.332 350.379C447.634 354.371 445.227 357.939 444.761 361.966C444.137 367.356 447.042 372.423 449.062 377.461C451.083 382.495 452.019 388.905 448.252 392.806C447.101 393.996 445.607 394.83 444.531 396.09C441.114 400.095 443.272 406.234 445.881 410.811C448.487 415.384 451.504 420.788 449.329 425.581C447.131 430.421 440.721 431.895 437.768 436.313C433.274 443.031 438.53 453.4 433.408 459.653C430.893 462.723 426.7 463.667 423.013 465.135C412.787 469.209 404.988 478.857 403.154 489.712C402.745 492.13 402.563 494.722 401.125 496.706C398.825 499.871 394.209 500.341 391.362 503.025C387.092 507.056 388.318 514.278 385.309 519.323C383.825 521.815 381.417 523.583 379.243 525.507C375.497 528.83 372.313 532.788 369.873 537.163C367.525 541.372 360.64 553.814 360.64 553.814C360.64 553.814 353.663 554.196 349.405 551.938C349.224 529.547 340.222 508.592 324.438 492.711C323.115 491.38 321.728 490.063 320.84 488.409C317.924 482.974 321.313 476.447 324.459 471.142C327.605 465.837 330.544 458.911 326.97 453.887C321.969 446.854 307.841 449.23 305.801 440.844C304.607 435.935 309.118 431.059 308.202 426.09C306.997 419.55 297.465 417.242 296.196 410.715C295.405 406.647 298.258 402.787 301.353 400.028C304.444 397.272 308.087 394.814 309.75 391.015C314.017 381.265 302.804 369.686 307.181 359.983C309.23 355.436 314.177 352.856 316.735 348.577C319.636 343.731 319.006 337.671 318.963 332.028C318.922 326.381 320.049 319.913 324.868 316.971C327.505 315.362 330.84 315.115 333.347 313.311C337.003 310.684 337.8 305.706 339.189 301.422C340.578 297.137 343.86 293.253 346.564 291.947L346.561 291.942Z" fill="#00533E"/>
<path d="M388.057 289.252L381.355 341.298C381.355 341.298 372.019 334.911 367.946 327.313C365.338 322.447 362.994 317.746 361.644 314.996C361.522 314.748 361.149 314.894 361.229 315.159C362.686 319.828 366.064 329.702 370.495 336.482C376.477 345.635 380.458 347.045 380.458 347.045L375.674 373.939C375.674 373.939 362.649 364.549 356.735 354.716C350.817 344.881 348.641 335.411 348.641 335.411C348.641 335.411 352.996 354.356 357.781 361.68C362.567 369.004 374.602 379.421 374.602 379.421L368.092 418.594C368.092 418.594 363.462 412.717 352.701 403.198C349.707 400.55 342.172 393.157 338.402 377.656C336.958 371.719 335.387 364.254 334.404 359.44C334.349 359.162 333.93 359.227 333.965 359.509C335.06 368.832 337.766 388.709 341.704 396.844C346.708 407.175 360.705 420.01 361.035 431.298C361.413 444.25 358.315 469.996 358.152 468.42C358.05 467.422 350.527 424.566 313.998 410.917C313.744 410.82 313.565 411.175 313.801 411.316C319.062 414.439 332.504 423.397 339.885 437.16C349.196 454.524 357.611 477.635 354.009 504.392C350.407 531.15 334.094 725.828 334.094 725.828L348.645 727.914C348.645 727.914 361.729 509.502 369.861 485.578C377.739 462.4 394.1 434.97 427.913 433.01C428.192 432.993 428.2 432.585 427.922 432.563C421.547 432.112 407.169 432.072 396.111 439.301C381.467 448.873 369.545 471.232 369.545 471.232C369.545 471.232 368.343 437.741 385.784 422.438C399.931 410.024 413.355 400.993 417.702 391.461C420.251 385.871 421.949 380.55 422.919 377.107C422.995 376.838 422.61 376.701 422.501 376.958C419.891 383.076 413.325 395.5 399.882 405.53C393.699 410.145 377.712 418.257 374.956 418.573L379.684 378.709C379.684 378.709 398.575 372.213 405.228 364.188C410.206 358.187 414.227 351.4 416.389 347.467C416.525 347.219 416.175 347.002 416.012 347.231C412.648 351.996 405.969 361.018 401.051 364.819C393.802 370.423 380.21 374.205 380.21 374.205L384.572 347.11C384.572 347.11 397.144 337.682 403.774 329.4C407.792 324.379 410.104 321.338 411.304 319.722C411.461 319.508 411.181 319.248 410.979 319.42L385.497 341.025L389.007 289.36C389.025 289.11 388.844 288.891 388.6 288.854C388.337 288.815 388.09 289.003 388.054 289.267L388.057 289.252Z" fill="#00C679"/>
<path d="M185.654 365.901C191.22 360.729 202.117 363.111 204.769 355.635C206.13 351.798 206.479 346.865 210.145 345.097C213.703 343.383 217.693 345.967 221.453 347.187C226.893 348.954 233.225 347.601 237.473 343.773C239.035 342.364 240.5 340.563 242.577 340.261C247.218 339.58 248.998 346.078 252.408 349.3C257.517 354.123 266.319 351.059 272.492 354.418C278.899 357.906 279.885 366.432 281.405 373.566C281.752 375.189 282.219 376.893 283.445 378.011C285.005 379.428 287.31 379.492 289.364 379.959C294.904 381.215 299.405 386.172 300.115 391.803C300.626 395.822 299.374 399.944 300.112 403.926C301.102 409.26 305.371 413.251 308.783 417.467C312.194 421.687 314.977 427.534 312.522 432.37C311.772 433.847 310.587 435.083 309.932 436.602C307.848 441.435 311.714 446.667 315.554 450.273C319.389 453.879 323.864 458.154 323.195 463.374C322.518 468.647 316.827 471.941 315.303 477.035C312.986 484.777 321.059 493.144 318.004 500.626C316.505 504.301 312.774 506.438 309.681 508.924C301.105 515.824 296.493 527.343 297.932 538.257C298.254 540.687 298.842 543.217 298.05 545.537C296.785 549.236 292.511 551.045 290.581 554.448C287.683 559.556 290.981 566.098 289.591 571.805C288.903 574.624 287.121 577.021 285.616 579.498C283.012 583.774 281.135 588.495 280.09 593.393C279.084 598.105 276.163 612.024 276.163 612.024C276.163 612.024 269.606 614.442 264.871 613.534C258.107 592.19 243.341 574.81 223.581 564.276C221.926 563.394 220.211 562.542 218.878 561.225C214.494 556.89 215.812 549.655 217.257 543.661C218.702 537.666 219.477 530.182 214.579 526.431C207.729 521.184 194.926 527.607 190.513 520.196C187.926 515.855 190.805 509.867 188.466 505.389C185.39 499.493 175.601 500.093 172.466 494.227C170.513 490.571 172.107 486.041 174.25 482.495C176.393 478.948 179.151 475.53 179.623 471.411C180.833 460.839 166.71 453.069 168.035 442.51C168.659 437.565 172.625 433.639 173.81 428.798C175.155 423.314 172.772 417.706 171.069 412.323C169.365 406.939 168.543 400.425 172.282 396.196C174.328 393.883 177.443 392.666 179.309 390.204C182.031 386.617 181.329 381.626 181.394 377.122C181.46 372.618 183.454 367.942 185.655 365.897L185.654 365.901Z" fill="#00533E"/>
<path d="M224.517 351.123L233.423 402.839C233.423 402.839 222.623 399.481 216.493 393.42C212.567 389.535 208.944 385.732 206.849 383.501C206.661 383.301 206.347 383.55 206.499 383.779C209.265 387.811 215.401 396.256 221.627 401.428C230.037 408.416 234.259 408.595 234.259 408.595L237.597 435.705C237.597 435.705 222.386 430.56 213.838 422.905C205.291 415.249 200.421 406.837 200.421 406.837C200.421 406.837 210.157 423.661 216.885 429.252C223.612 434.843 238.183 441.259 238.183 441.259L243.487 480.614C243.487 480.614 237.333 476.357 224.252 470.428C220.612 468.778 211.234 463.928 203.068 450.222C199.941 444.973 196.247 438.298 193.89 433.989C193.752 433.738 193.373 433.926 193.49 434.185C197.277 442.769 205.713 460.976 211.872 467.592C219.695 475.995 236.849 484.143 240.485 494.832C244.659 507.096 249.271 532.617 248.653 531.159C248.263 530.235 228.463 491.488 189.533 489.193C189.259 489.175 189.196 489.567 189.463 489.631C195.408 491.069 210.892 495.673 221.996 506.655C236.002 520.513 250.844 540.121 255.275 566.758C259.706 593.39 301.432 799.738 301.432 799.738L315.956 797.45C315.956 797.45 264.161 569.366 264.897 544.112C265.608 519.638 273.173 488.612 304.912 476.791C305.176 476.694 305.061 476.299 304.79 476.363C298.564 477.806 284.813 481.997 276.371 492.16C265.193 505.616 260.374 530.493 260.374 530.493C260.374 530.493 249.371 498.84 261.538 479.082C271.405 463.057 281.578 450.474 282.928 440.083C283.722 433.99 283.776 428.404 283.689 424.832C283.681 424.554 283.274 424.536 283.244 424.815C282.55 431.435 279.926 445.238 270.034 458.776C265.481 465.006 252.591 477.462 250.048 478.578L242.839 439.086C242.839 439.086 258.98 427.321 262.98 417.69C265.973 410.487 267.816 402.818 268.727 398.422C268.784 398.146 268.383 398.039 268.296 398.306C266.482 403.852 262.751 414.436 259.171 419.519C253.89 427.007 242.01 434.619 242.01 434.619L238.207 407.442C238.207 407.442 247.448 394.733 251.347 384.865C253.709 378.888 255.028 375.299 255.698 373.4C255.786 373.149 255.441 372.984 255.298 373.207L237.301 401.352L225.456 350.942C225.4 350.7 225.163 350.539 224.915 350.579C224.651 350.621 224.469 350.871 224.515 351.135L224.517 351.123Z" fill="#00B563"/>
<path d="M506.227 410.967C513.827 410.975 520.176 420.146 527.21 416.482C530.82 414.6 534.437 411.23 538.324 412.434C542.1 413.602 543.257 418.213 545.175 421.669C547.95 426.665 553.507 429.997 559.224 430.087C561.324 430.12 563.625 429.802 565.354 430.995C569.215 433.662 566.09 439.628 566.391 444.312C566.842 451.323 575.371 455.082 577.598 461.746C579.912 468.66 574.818 475.576 571.073 481.831C570.222 483.254 569.4 484.821 569.539 486.476C569.717 488.572 571.358 490.193 572.545 491.936C575.744 496.63 575.659 503.322 572.341 507.934C569.976 511.225 566.25 513.385 564.076 516.802C561.161 521.378 561.569 527.209 561.19 532.621C560.811 538.032 558.863 544.208 553.77 546.077C552.214 546.648 550.507 546.744 548.992 547.408C544.169 549.523 543.436 555.988 543.787 561.242C544.138 566.495 544.501 572.674 540.448 576.036C536.36 579.433 529.951 577.967 525.362 580.652C518.389 584.738 518.598 596.363 511.262 599.759C507.662 601.424 503.475 600.447 499.515 600.16C488.537 599.367 477.309 604.653 470.927 613.62C469.506 615.618 468.214 617.871 466.051 619.029C462.602 620.873 458.243 619.285 454.514 620.459C448.91 622.223 446.867 629.258 441.962 632.487C439.538 634.081 436.602 634.623 433.809 635.409C428.988 636.764 424.399 638.939 420.296 641.81C416.349 644.577 404.725 652.769 404.725 652.769C404.725 652.769 398.28 650.071 395.431 646.182C405.03 625.953 406.066 603.17 398.785 581.992C398.177 580.22 397.5 578.43 397.422 576.555C397.166 570.392 403.063 565.995 408.204 562.594C413.35 559.194 419.015 554.244 417.987 548.159C416.55 539.65 402.802 535.628 404.625 527.192C405.692 522.254 411.874 519.834 413.22 514.962C414.986 508.548 407.415 502.319 409.118 495.888C410.177 491.881 414.432 489.652 418.42 488.517C422.407 487.386 426.755 486.762 429.906 484.069C437.997 477.155 432.955 461.844 441.121 455.023C444.95 451.825 450.526 451.659 454.694 448.922C459.416 445.825 461.491 440.097 463.916 434.998C466.34 429.9 470.172 424.571 475.794 424.022C478.868 423.724 481.979 424.959 485.022 424.425C489.458 423.654 492.345 419.523 495.464 416.272C498.583 413.022 503.231 410.958 506.231 410.963L506.227 410.967Z" fill="#00533E"/>
<path d="M544.747 426.644L516.02 470.562C516.02 470.562 510.404 460.742 510.05 452.132C509.826 446.613 509.763 441.365 509.75 438.303C509.749 438.026 509.349 437.996 509.308 438.267C508.583 443.104 507.319 453.465 508.349 461.495C509.744 472.34 512.711 475.347 512.711 475.347L496.679 497.462C496.679 497.462 489.053 483.331 488.015 471.905C486.977 460.478 489.148 451.003 489.148 451.003C489.148 451.003 484.806 469.953 485.922 478.628C487.037 487.302 493.325 501.929 493.325 501.929L470.385 534.342C470.385 534.342 468.782 527.036 463.25 513.779C461.711 510.089 458.156 500.152 461.518 484.558C462.809 478.583 464.65 471.182 465.866 466.42C465.935 466.142 465.532 466.022 465.441 466.293C462.364 475.159 456.129 494.228 456.129 503.264C456.126 514.744 463.129 532.398 458.506 542.699C453.201 554.518 439.186 576.339 439.727 574.85C440.068 573.907 451.989 532.061 425.063 503.847C424.874 503.651 424.561 503.892 424.713 504.122C428.084 509.228 436.279 523.149 436.919 538.753C437.728 558.44 435.225 582.904 420.314 605.416C405.407 627.928 305.844 796.014 305.844 796.014L318.033 804.236C318.033 804.236 425.038 613.381 442.787 595.4C459.984 577.975 486.669 560.422 517.951 573.402C518.212 573.508 518.395 573.146 518.152 573.004C512.611 569.818 499.693 563.512 486.586 565.196C469.233 567.427 448.754 582.352 448.754 582.352C448.754 582.352 462.275 551.689 484.641 545.517C502.784 540.514 518.803 538.237 526.871 531.553C531.603 527.635 535.452 523.586 537.822 520.908C538.006 520.698 537.718 520.409 537.507 520.592C532.491 524.962 521.164 533.278 504.695 536.441C497.119 537.898 479.195 538.229 476.575 537.31L498.214 503.495C498.214 503.495 518.044 505.885 527.535 501.564C534.632 498.331 541.208 493.978 544.872 491.379C545.104 491.215 544.884 490.866 544.637 491.001C539.532 493.822 529.587 499.029 523.504 500.307C514.538 502.189 500.657 499.663 500.657 499.663L516.394 477.183C516.394 477.183 531.817 474.181 541.396 469.616C547.198 466.849 550.608 465.124 552.395 464.19C552.632 464.066 552.491 463.71 552.235 463.776L519.886 472.11L545.572 427.143C545.695 426.923 545.631 426.649 545.426 426.509C545.203 426.358 544.902 426.418 544.755 426.641L544.747 426.644Z" fill="#00B563"/>
<path d="M248.389 322.189C254.498 317.672 265.061 321.263 268.533 314.132C270.315 310.473 271.215 305.612 275.06 304.264C278.789 302.957 282.465 305.974 286.061 307.609C291.266 309.972 297.711 309.342 302.363 306.011C304.072 304.789 305.73 303.161 307.829 303.093C312.519 302.937 313.558 309.593 316.586 313.177C321.122 318.545 330.212 316.483 335.968 320.516C341.942 324.699 341.968 333.282 342.677 340.543C342.841 342.193 343.114 343.942 344.208 345.187C345.598 346.77 347.884 347.092 349.872 347.787C355.238 349.656 359.152 355.086 359.228 360.765C359.281 364.816 357.579 368.772 357.864 372.814C358.249 378.225 362.044 382.67 364.961 387.244C367.878 391.817 369.988 397.941 367.006 402.475C366.095 403.858 364.783 404.953 363.957 406.391C361.344 410.962 364.6 416.593 368.011 420.606C371.419 424.618 375.386 429.366 374.136 434.482C372.871 439.647 366.847 442.282 364.762 447.171C361.59 454.604 368.677 463.824 364.801 470.916C362.898 474.397 358.952 476.104 355.601 478.232C346.307 484.13 340.432 495.056 340.641 506.061C340.687 508.512 340.99 511.092 339.941 513.311C338.268 516.846 333.819 518.165 331.52 521.329C328.068 526.081 330.61 532.952 328.59 538.466C327.594 541.188 325.551 543.374 323.778 545.667C320.711 549.627 318.318 554.106 316.729 558.855C315.203 563.427 310.739 576.928 310.739 576.928C310.739 576.928 303.953 578.595 299.351 577.165C295.025 555.195 282.297 536.273 263.842 523.586C262.296 522.521 260.686 521.487 259.508 520.026C255.635 515.226 257.757 508.183 259.866 502.39C261.975 496.593 263.583 489.243 259.139 484.969C252.919 478.987 239.477 483.937 235.923 476.075C233.841 471.472 237.37 465.847 235.55 461.131C233.153 454.925 223.362 454.426 220.903 448.245C219.369 444.395 221.462 440.07 223.99 436.788C226.517 433.506 229.643 430.417 230.571 426.378C232.959 416.008 219.792 406.706 222.297 396.362C223.471 391.515 227.849 388.061 229.575 383.383C231.527 378.085 229.783 372.247 228.696 366.707C227.609 361.166 227.52 354.6 231.71 350.818C234.003 348.748 237.232 347.888 239.364 345.65C242.469 342.389 242.332 337.352 242.902 332.885C243.473 328.418 245.979 323.995 248.393 322.209L248.389 322.189Z" fill="#007543"/>
<path d="M288.664 311.857L291.719 364.246C291.719 364.246 281.36 359.7 275.952 352.987C272.486 348.689 269.311 344.505 267.479 342.053C267.314 341.833 266.974 342.046 267.101 342.288C269.398 346.608 274.546 355.682 280.156 361.521C287.729 369.407 291.903 370.059 291.903 370.059L292.181 397.372C292.181 397.372 277.644 390.556 270.01 381.99C262.376 373.424 258.481 364.52 258.481 364.52C258.481 364.52 266.27 382.332 272.328 388.64C278.386 394.949 292.146 402.96 292.146 402.96L293.005 442.66C293.005 442.66 287.368 437.741 275.03 430.381C271.598 428.334 262.823 422.464 256.244 407.93C253.723 402.364 250.802 395.318 248.941 390.768C248.833 390.502 248.437 390.649 248.521 390.919C251.324 399.876 257.662 418.907 263.041 426.173C269.873 435.401 286.004 445.417 288.423 456.448C291.197 469.104 292.917 494.979 292.468 493.461C292.181 492.498 276.855 451.778 238.427 445.134C238.157 445.089 238.053 445.467 238.308 445.561C244.057 447.655 258.927 453.968 268.727 466.124C281.093 481.464 293.644 502.613 295.059 529.576C296.478 556.54 316.509 750.869 316.509 750.869L331.198 750.223C331.198 750.223 303.594 533.164 307.155 508.151C310.605 483.912 321.6 453.928 354.465 445.738C354.736 445.67 354.669 445.266 354.391 445.298C348.043 446.033 333.908 448.661 324.379 457.814C311.763 469.933 304.189 494.113 304.189 494.113C304.189 494.113 296.803 461.424 311.107 443.155C322.71 428.337 334.226 416.974 336.732 406.802C338.201 400.834 338.884 395.293 339.197 391.73C339.219 391.453 338.816 391.388 338.759 391.664C337.326 398.164 333.174 411.584 321.825 423.93C316.603 429.611 302.396 440.546 299.746 441.365L297.007 401.315C297.007 401.315 314.364 391.433 319.42 382.313C323.201 375.49 325.894 368.078 327.293 363.811C327.38 363.543 326.994 363.391 326.877 363.647C324.456 368.952 319.559 379.055 315.433 383.701C309.348 390.553 296.691 396.784 296.691 396.784L295.959 369.351C295.959 369.351 306.566 357.758 311.548 348.388C314.566 342.713 316.276 339.296 317.155 337.484C317.269 337.244 316.949 337.04 316.781 337.248L295.744 363.199L289.624 311.776C289.595 311.526 289.377 311.345 289.13 311.354C288.863 311.364 288.657 311.594 288.671 311.862L288.664 311.857Z" fill="#00C679"/>
<path d="M455.694 332.597C463.197 331.39 470.93 339.43 477.288 334.689C480.553 332.256 483.584 328.353 487.615 328.92C491.526 329.473 493.407 333.839 495.853 336.942C499.392 341.43 505.41 343.83 511.066 343.006C513.146 342.705 515.363 342.02 517.261 342.923C521.497 344.936 519.364 351.33 520.411 355.901C521.977 362.753 530.997 365.097 534.262 371.317C537.65 377.775 533.73 385.414 531.028 392.19C530.413 393.73 529.855 395.411 530.254 397.019C530.764 399.061 532.643 400.402 534.092 401.927C538.001 406.051 538.983 412.67 536.444 417.751C534.633 421.375 531.304 424.106 529.703 427.828C527.557 432.813 528.89 438.503 529.383 443.903C529.875 449.306 528.936 455.713 524.207 458.372C522.762 459.183 521.092 459.554 519.702 460.45C515.281 463.309 515.587 469.811 516.775 474.941C517.963 480.072 519.306 486.11 515.844 490.081C512.349 494.089 505.79 493.662 501.691 497.048C495.458 502.198 497.523 513.639 490.824 518.161C487.533 520.38 483.243 520.085 479.292 520.434C468.328 521.406 458.091 528.416 453.225 538.286C452.14 540.484 451.226 542.915 449.274 544.405C446.166 546.776 441.605 545.903 438.111 547.662C432.863 550.298 431.969 557.569 427.641 561.541C425.504 563.502 422.69 564.506 420.057 565.725C415.517 567.833 411.33 570.715 407.742 574.207C404.286 577.566 394.123 587.512 394.123 587.512C394.123 587.512 387.33 585.879 383.898 582.495C390.143 560.991 387.522 538.336 376.953 518.594C376.069 516.94 375.116 515.279 374.739 513.441C373.502 507.398 378.621 502.116 383.155 497.937C387.69 493.759 392.492 487.964 390.507 482.124C387.729 473.954 373.516 472.181 373.966 463.564C374.232 458.517 379.95 455.142 380.496 450.118C381.217 443.506 372.746 438.564 373.4 431.946C373.807 427.821 377.649 424.942 381.404 423.187C385.158 421.432 389.352 420.121 392.033 416.96C398.915 408.841 391.491 394.534 398.465 386.496C401.733 382.73 407.21 381.672 410.888 378.307C415.055 374.498 416.188 368.51 417.765 363.089C419.341 357.668 422.277 351.793 427.738 350.355C430.726 349.568 433.993 350.288 436.909 349.28C441.167 347.807 443.354 343.27 445.915 339.564C448.472 335.858 452.732 333.081 455.697 332.602L455.694 332.597Z" fill="#007543"/>
<path d="M496.221 341.914L474.88 389.854C474.88 389.854 467.768 381.059 466.042 372.612C464.935 367.201 464.038 362.025 463.536 359.006C463.492 358.734 463.089 358.767 463.094 359.044C463.149 363.933 463.558 374.364 465.86 382.127C468.967 392.611 472.378 395.104 472.378 395.104L460.086 419.497C460.086 419.497 450.304 406.767 447.453 395.65C444.602 384.534 445.232 374.833 445.232 374.833C445.232 374.833 443.972 394.231 446.46 402.618C448.949 411.005 457.491 424.437 457.491 424.437L440.024 460.1C440.024 460.1 437.276 453.143 429.694 440.94C427.584 437.545 422.485 428.303 423.315 412.368C423.631 406.265 424.271 398.663 424.707 393.77C424.731 393.485 424.314 393.43 424.264 393.711C422.643 402.954 419.533 422.773 420.978 431.696C422.81 443.028 432.542 459.338 429.624 470.244C426.275 482.76 415.925 506.535 416.223 504.982C416.411 503.997 421.49 460.783 390.404 437.234C390.188 437.069 389.918 437.359 390.102 437.559C394.246 442.061 404.558 454.494 407.683 469.795C411.626 489.099 413.062 513.653 401.944 538.255C390.825 562.857 319.395 744.69 319.395 744.69L332.741 750.857C332.741 750.857 407.881 545.359 422.532 524.773C436.727 504.823 460.262 483.235 493.215 491.049C493.486 491.114 493.611 490.723 493.349 490.625C487.372 488.364 473.61 484.207 460.942 487.961C444.168 492.934 426.337 510.938 426.337 510.938C426.337 510.938 434.785 478.509 455.88 468.842C472.99 461.005 488.441 456.199 495.337 448.312C499.382 443.685 502.536 439.075 504.447 436.055C504.596 435.82 504.266 435.58 504.089 435.794C499.833 440.912 489.983 450.928 474.233 456.683C466.987 459.332 449.344 462.521 446.612 462.033L462.569 425.194C462.569 425.194 482.529 424.384 491.204 418.602C497.694 414.279 503.49 408.928 506.691 405.779C506.892 405.583 506.62 405.269 506.399 405.442C501.812 409.044 492.825 415.772 487.022 418.004C478.471 421.294 464.366 421.022 464.366 421.022L476.311 396.315C476.311 396.315 491.057 390.888 499.782 384.853C505.068 381.197 508.157 378.944 509.774 377.739C509.985 377.58 509.794 377.25 509.551 377.358L478.947 390.75L497.12 342.26C497.206 342.024 497.102 341.763 496.872 341.658C496.628 341.543 496.343 341.652 496.232 341.896L496.221 341.914Z" fill="#00C679"/>
<path d="M233.795 367.108C239.84 362.503 250.453 365.938 253.821 358.757C255.548 355.069 256.379 350.198 260.201 348.796C263.911 347.436 267.63 350.4 271.249 351.981C276.489 354.267 282.925 353.546 287.525 350.149C289.215 348.9 290.848 347.253 292.949 347.15C297.633 346.927 298.772 353.567 301.854 357.105C306.466 362.407 315.525 360.215 321.341 364.159C327.375 368.254 327.525 376.841 328.339 384.086C328.526 385.732 328.823 387.48 329.935 388.709C331.348 390.267 333.638 390.563 335.635 391.224C341.024 393.015 345.021 398.387 345.179 404.063C345.295 408.115 343.645 412.091 343.993 416.128C344.453 421.534 348.315 425.919 351.297 430.452C354.279 434.985 356.479 441.075 353.565 445.651C352.675 447.048 351.376 448.161 350.576 449.611C348.027 454.219 351.368 459.804 354.834 463.767C358.299 467.729 362.337 472.422 361.159 477.553C359.969 482.737 353.987 485.456 351.971 490.379C348.909 497.859 356.129 506.971 352.357 514.122C350.504 517.63 346.581 519.395 343.262 521.567C334.054 527.599 328.337 538.611 328.707 549.609C328.787 552.061 329.127 554.635 328.111 556.867C326.488 560.426 322.057 561.809 319.808 565.004C316.426 569.806 319.068 576.637 317.126 582.183C316.166 584.918 314.162 587.133 312.415 589.453C309.404 593.457 307.076 597.969 305.559 602.741C304.099 607.334 299.832 620.897 299.832 620.897C299.832 620.897 293.07 622.664 288.447 621.298C283.803 599.393 270.801 580.655 252.165 568.241C250.603 567.201 248.979 566.188 247.783 564.744C243.842 560 245.86 552.93 247.884 547.104C249.908 541.279 251.41 533.905 246.902 529.695C240.598 523.802 227.228 528.946 223.557 521.136C221.408 516.562 224.855 510.886 222.969 506.199C220.484 500.031 210.684 499.67 208.137 493.527C206.549 489.7 208.576 485.345 211.059 482.025C213.542 478.706 216.62 475.57 217.491 471.519C219.728 461.114 206.427 452.002 208.782 441.623C209.884 436.762 214.214 433.242 215.869 428.538C217.743 423.212 215.918 417.401 214.751 411.876C213.583 406.351 213.395 399.789 217.533 395.944C219.796 393.839 223.013 392.934 225.11 390.667C228.168 387.361 227.955 382.327 228.461 377.851C228.967 373.374 231.408 368.914 233.796 367.096L233.795 367.108Z" fill="#008E59"/>
<path d="M273.919 356.191L277.734 408.528C277.734 408.528 267.313 404.132 261.803 397.502C258.275 393.253 255.042 389.115 253.172 386.692C253.002 386.475 252.665 386.693 252.8 386.932C255.157 391.218 260.44 400.219 266.133 405.977C273.821 413.752 278.004 414.342 278.004 414.342L278.68 441.65C278.68 441.65 264.045 435.045 256.284 426.592C248.525 418.136 244.5 409.29 244.5 409.29C244.5 409.29 252.545 426.985 258.698 433.206C264.847 439.427 278.719 447.238 278.719 447.238L280.154 486.923C280.154 486.923 274.446 482.087 262.003 474.906C258.539 472.908 249.683 467.167 242.895 452.729C240.294 447.198 237.268 440.199 235.345 435.675C235.233 435.412 234.84 435.559 234.927 435.833C237.862 444.748 244.475 463.689 249.96 470.873C256.924 480 273.199 489.784 275.776 500.777C278.732 513.391 280.83 539.237 280.357 537.727C280.057 536.77 264.139 496.275 225.62 490.187C225.349 490.146 225.248 490.529 225.508 490.619C231.284 492.631 246.247 498.724 256.223 510.74C268.812 525.899 281.667 546.864 283.475 573.805C285.284 600.745 308.002 802.716 308.002 802.716L322.68 801.854C322.68 801.854 292.065 577.268 295.263 552.204C298.362 527.92 308.92 497.776 341.662 489.112C341.934 489.04 341.858 488.639 341.58 488.675C335.245 489.505 321.146 492.333 311.752 501.623C299.311 513.925 292.091 538.213 292.091 538.213C292.091 538.213 284.232 505.636 298.268 487.159C309.654 472.171 321.004 460.643 323.364 450.437C324.746 444.448 325.348 438.898 325.611 435.332C325.63 435.055 325.225 434.997 325.172 435.27C323.835 441.788 319.88 455.269 308.709 467.779C303.569 473.534 289.526 484.674 286.885 485.533L283.566 445.527C283.566 445.527 300.779 435.394 305.702 426.202C309.382 419.326 311.967 411.874 313.302 407.59C313.385 407.321 312.999 407.173 312.885 407.433C310.541 412.773 305.793 422.946 301.732 427.652C295.747 434.589 283.179 441.005 283.179 441.005L282.047 413.586C282.047 413.586 292.487 401.839 297.331 392.402C300.266 386.683 301.926 383.239 302.783 381.416C302.897 381.176 302.568 380.978 302.405 381.183L281.747 407.436L274.879 356.107C274.846 355.86 274.628 355.679 274.377 355.692C274.109 355.706 273.907 355.936 273.925 356.204L273.919 356.191Z" fill="#00C679"/>
<path d="M297.59 364.71C304.294 361.137 314.219 366.233 318.695 359.684C320.993 356.324 322.594 351.647 326.593 350.876C330.472 350.13 333.665 353.65 336.986 355.794C341.79 358.895 348.26 359.212 353.345 356.598C355.214 355.638 357.092 354.273 359.181 354.511C363.84 355.045 363.896 361.782 366.368 365.769C370.072 371.741 379.363 371.034 384.472 375.862C389.77 380.874 388.539 389.369 388.181 396.654C388.098 398.31 388.114 400.083 389.014 401.474C390.158 403.241 392.371 403.896 394.238 404.873C399.27 407.505 402.35 413.448 401.595 419.076C401.058 423.092 398.792 426.756 398.485 430.795C398.071 436.205 401.177 441.154 403.394 446.105C405.611 451.056 406.803 457.423 403.189 461.472C402.085 462.708 400.625 463.598 399.602 464.901C396.348 469.039 398.745 475.09 401.531 479.557C404.316 484.025 407.544 489.305 405.558 494.181C403.554 499.105 397.207 500.83 394.428 505.364C390.204 512.256 395.867 522.41 390.996 528.861C388.606 532.027 384.451 533.136 380.823 534.751C370.767 539.224 363.355 549.176 361.952 560.093C361.638 562.525 361.561 565.121 360.2 567.16C358.027 570.414 353.434 571.067 350.695 573.861C346.587 578.057 348.098 585.224 345.29 590.385C343.903 592.931 341.566 594.796 339.477 596.803C335.865 600.271 332.842 604.351 330.575 608.818C328.397 613.115 322.006 625.819 322.006 625.819C322.006 625.819 315.05 626.477 310.704 624.388C309.638 602.023 299.812 581.439 283.412 566.194C282.039 564.918 280.6 563.656 279.648 562.038C276.52 556.723 279.648 550.067 282.581 544.644C285.516 539.218 288.179 532.183 284.407 527.305C279.13 520.476 265.109 523.409 262.74 515.11C261.354 510.254 265.666 505.203 264.557 500.272C263.095 493.783 253.482 491.856 251.951 485.383C250.998 481.349 253.701 477.376 256.681 474.502C259.662 471.628 263.205 469.027 264.718 465.167C268.596 455.256 256.933 444.127 260.921 434.261C262.79 429.64 267.631 426.86 270.017 422.485C272.72 417.53 271.855 411.498 271.586 405.859C271.321 400.218 272.193 393.711 276.889 390.582C279.459 388.87 282.783 388.492 285.215 386.588C288.765 383.816 289.363 378.811 290.584 374.478C291.805 370.145 294.931 366.132 297.577 364.72L297.59 364.71Z" fill="#00B265"/>
<path d="M338.955 360.385L334.313 412.658C334.313 412.658 324.733 406.647 320.361 399.214C317.562 394.455 315.035 389.851 313.58 387.156C313.449 386.914 313.081 387.076 313.17 387.335C314.808 391.941 318.578 401.676 323.27 408.273C329.609 417.181 333.645 418.435 333.645 418.435L329.927 445.494C329.927 445.494 316.542 436.627 310.241 427.035C303.939 417.443 301.391 408.064 301.391 408.064C301.391 408.064 306.492 426.822 311.564 433.951C316.636 441.081 329.075 451.018 329.075 451.018L324.117 490.418C324.117 490.418 319.259 484.728 308.133 475.645C305.035 473.118 297.216 466.029 292.833 450.689C291.154 444.813 289.291 437.417 288.119 432.644C288.052 432.369 287.638 432.45 287.681 432.734C289.143 442.003 292.631 461.76 296.889 469.733C302.299 479.861 316.79 492.131 317.568 503.393C318.461 516.318 316.381 542.168 316.154 540.597C316.012 539.605 306.803 497.078 269.761 484.883C269.501 484.797 269.341 485.159 269.579 485.288C274.958 488.2 288.745 496.621 296.664 510.08C306.653 527.063 315.974 549.821 313.433 576.703C310.892 603.586 302.286 798.753 302.286 798.753L316.909 800.261C316.909 800.261 321.353 581.5 328.532 557.276C335.489 533.802 350.755 505.747 384.462 502.456C384.739 502.428 384.73 502.021 384.451 502.01C378.065 501.812 363.699 502.338 352.93 509.998C338.675 520.142 327.648 542.953 327.648 542.953C327.648 542.953 325.124 509.538 341.944 493.553C355.589 480.591 368.644 471.033 372.61 461.338C374.937 455.648 376.422 450.268 377.252 446.791C377.317 446.52 376.926 446.399 376.828 446.661C374.464 452.879 368.39 465.552 355.356 476.104C349.358 480.958 333.706 489.698 330.964 490.121L334.114 450.1C334.114 450.1 352.732 442.861 359.064 434.581C363.803 428.387 367.551 421.447 369.554 417.431C369.678 417.181 369.319 416.974 369.167 417.209C365.993 422.104 359.674 431.38 354.913 435.376C347.891 441.263 334.46 445.576 334.46 445.576L337.746 418.331C337.746 418.331 349.935 408.415 356.229 399.876C360.045 394.704 362.238 391.57 363.375 389.906C363.525 389.687 363.236 389.437 363.041 389.618L338.434 412.213L339.9 360.45C339.906 360.201 339.721 359.986 339.471 359.96C339.207 359.932 338.967 360.125 338.945 360.395L338.955 360.385Z" fill="#00C16E"/>
<path d="M453.452 393.459C460.988 392.499 468.458 400.783 474.968 396.252C478.31 393.924 481.466 390.122 485.477 390.822C489.369 391.501 491.104 395.927 493.449 399.108C496.842 403.711 502.776 406.305 508.459 405.664C510.544 405.43 512.785 404.818 514.654 405.783C518.823 407.935 516.486 414.255 517.38 418.857C518.722 425.753 527.662 428.393 530.72 434.719C533.897 441.285 529.728 448.789 526.81 455.473C526.147 456.994 525.534 458.652 525.881 460.275C526.325 462.334 528.16 463.731 529.559 465.307C533.332 469.554 534.1 476.203 531.398 481.201C529.471 484.765 526.053 487.385 524.332 491.054C522.026 495.964 523.173 501.696 523.488 507.111C523.803 512.527 522.658 518.902 517.843 521.405C516.375 522.169 514.694 522.484 513.275 523.337C508.763 526.049 508.862 532.558 509.881 537.722C510.9 542.889 512.045 548.968 508.46 552.823C504.839 556.714 498.293 556.074 494.086 559.328C487.689 564.269 489.382 575.775 482.541 580.076C479.181 582.187 474.904 581.75 470.941 581.973C459.953 582.586 449.493 589.263 444.305 598.971C443.151 601.136 442.156 603.534 440.159 604.959C436.974 607.229 432.447 606.208 428.896 607.85C423.565 610.313 422.434 617.553 417.98 621.381C415.78 623.27 412.936 624.184 410.266 625.319C405.658 627.28 401.384 630.021 397.681 633.394C394.118 636.639 383.635 646.248 383.635 646.248C383.635 646.248 376.899 644.394 373.576 640.901C380.514 619.611 378.634 596.881 368.711 576.809C367.878 575.127 366.984 573.436 366.667 571.588C365.627 565.509 370.915 560.396 375.583 556.366C380.251 552.337 385.239 546.703 383.443 540.802C380.931 532.544 366.784 530.312 367.513 521.71C367.939 516.676 373.767 513.485 374.477 508.486C375.411 501.899 367.106 496.685 367.976 490.093C368.516 485.984 372.453 483.228 376.259 481.597C380.069 479.964 384.3 478.792 387.085 475.72C394.227 467.832 387.272 453.288 394.504 445.479C397.892 441.821 403.4 440.944 407.189 437.697C411.476 434.023 412.805 428.077 414.557 422.709C416.309 417.341 419.432 411.566 424.936 410.305C427.949 409.615 431.188 410.441 434.141 409.527C438.443 408.195 440.78 403.73 443.456 400.109C446.133 396.487 450.481 393.847 453.458 393.468L453.452 393.459Z" fill="#00B265"/>
<path d="M493.647 404.085L470.762 451.308C470.762 451.308 463.938 442.288 462.488 433.788C461.557 428.346 460.828 423.145 460.426 420.11C460.39 419.835 459.989 419.856 459.982 420.132C459.882 425.021 459.947 435.458 461.996 443.292C464.761 453.869 468.089 456.474 468.089 456.474L455.01 480.455C455.01 480.455 445.645 467.414 443.158 456.212C440.671 445.01 441.613 435.334 441.613 435.334C441.613 435.334 439.725 454.683 441.937 463.145C444.148 471.608 452.252 485.312 452.252 485.312L433.638 520.388C433.638 520.388 431.118 513.345 423.934 500.902C421.937 497.438 417.142 488.035 418.488 472.14C419.005 466.051 419.886 458.474 420.485 453.595C420.52 453.311 420.101 453.244 420.044 453.52C418.123 462.706 414.372 482.416 415.525 491.381C416.986 502.766 426.185 519.385 422.916 530.19C419.164 542.592 408.047 566.021 408.394 564.475C408.612 563.494 415.094 520.47 384.791 495.924C384.579 495.752 384.299 496.033 384.478 496.239C388.474 500.871 398.376 513.635 401.001 529.029C404.313 548.452 404.954 573.037 393.038 597.265C381.126 621.493 303.826 800.909 303.826 800.909L316.961 807.509C316.961 807.509 398.74 604.56 414.049 584.463C428.883 564.984 453.11 544.175 485.793 553.056C486.063 553.128 486.199 552.743 485.942 552.638C480.041 550.185 466.42 545.582 453.639 548.921C436.715 553.345 418.306 570.762 418.306 570.762C418.306 570.762 427.802 538.625 449.201 529.651C466.557 522.374 482.154 518.073 489.304 510.415C493.496 505.924 496.798 501.418 498.809 498.46C498.965 498.23 498.644 497.979 498.457 498.185C494.04 503.16 483.864 512.851 467.935 518.091C460.608 520.502 442.869 523.119 440.154 522.54L457.3 486.24C457.3 486.24 477.275 486.079 486.133 480.582C492.759 476.471 498.728 471.313 502.026 468.269C502.235 468.078 501.971 467.758 501.743 467.926C497.042 471.377 487.84 477.808 481.972 479.851C473.318 482.864 459.228 482.131 459.228 482.131L471.97 457.825C471.97 457.825 486.885 452.879 495.801 447.13C501.204 443.649 504.363 441.5 506.015 440.346C506.233 440.196 506.05 439.86 505.806 439.956L474.783 452.349L494.524 404.475C494.617 404.243 494.521 403.979 494.297 403.863C494.058 403.741 493.766 403.842 493.652 404.082L493.647 404.085Z" fill="#00C679"/>
<path d="M409.77 376.117C417.175 374.403 425.434 381.902 431.458 376.741C434.549 374.09 437.31 369.99 441.37 370.285C445.311 370.57 447.481 374.801 450.132 377.732C453.969 381.973 460.132 383.958 465.721 382.754C467.776 382.313 469.945 381.479 471.898 382.25C476.26 383.975 474.568 390.494 475.918 394.986C477.945 401.713 487.105 403.443 490.783 409.43C494.598 415.644 491.205 423.531 488.97 430.47C488.462 432.05 488.015 433.764 488.525 435.342C489.172 437.346 491.138 438.552 492.688 439.979C496.865 443.827 498.295 450.367 496.107 455.606C494.547 459.346 491.407 462.293 490.06 466.116C488.257 471.234 489.972 476.819 490.83 482.176C491.687 487.533 491.185 493.99 486.646 496.963C485.261 497.873 483.617 498.353 482.294 499.341C478.075 502.492 478.823 508.959 480.357 513.993C481.887 519.031 483.639 524.965 480.455 529.16C477.241 533.394 470.665 533.416 466.807 537.07C460.937 542.629 463.771 553.906 457.395 558.87C454.262 561.308 449.963 561.3 446.042 561.919C435.168 563.629 425.429 571.315 421.241 581.495C420.309 583.763 419.559 586.249 417.716 587.865C414.777 590.441 410.168 589.88 406.799 591.869C401.743 594.857 401.342 602.168 397.291 606.423C395.293 608.526 392.551 609.717 390.009 611.114C385.621 613.525 381.639 616.68 378.295 620.407C375.074 623.993 365.61 634.602 365.61 634.602C365.61 634.602 358.72 633.43 355.067 630.289C359.841 608.41 355.693 585.984 343.811 567.006C342.816 565.417 341.755 563.826 341.253 562.016C339.611 556.072 344.36 550.456 348.601 545.976C352.841 541.5 357.242 535.395 354.865 529.702C351.541 521.738 337.239 520.934 337.104 512.302C337.026 507.25 342.503 503.495 342.709 498.447C342.979 491.799 334.197 487.444 334.4 480.798C334.528 476.658 338.164 473.52 341.792 471.516C345.417 469.512 349.513 467.922 351.975 464.587C358.292 456.024 349.918 442.251 356.33 433.757C359.333 429.78 364.73 428.351 368.171 424.748C372.068 420.664 372.796 414.615 374.002 409.099C375.207 403.582 377.738 397.526 383.09 395.72C386.019 394.733 389.324 395.229 392.168 394.026C396.316 392.273 398.194 387.594 400.495 383.725C402.796 379.856 406.857 376.794 409.782 376.118L409.77 376.117Z" fill="#008E59"/>
<path d="M450.838 382.671L432.791 431.948C432.791 431.948 425.101 423.654 422.807 415.347C421.34 410.026 420.093 404.922 419.387 401.942C419.322 401.675 418.923 401.735 418.948 402.008C419.336 406.885 420.448 417.259 423.271 424.851C427.079 435.099 430.651 437.358 430.651 437.358L420.039 462.528C420.039 462.528 409.414 450.488 405.817 439.591C402.22 428.693 402.19 418.974 402.19 418.974C402.19 418.974 402.249 438.415 405.296 446.614C408.343 454.813 417.78 467.636 417.78 467.636L402.77 504.399C402.77 504.399 399.555 497.645 391.166 485.982C388.831 482.737 383.119 473.861 382.867 457.911C382.771 451.8 382.892 444.174 382.997 439.262C383.004 438.979 382.584 438.95 382.553 439.234C381.561 448.568 379.802 468.553 381.846 477.356C384.441 488.539 395.253 504.15 393.081 515.231C390.587 527.944 381.873 552.368 382.061 550.794C382.18 549.799 384.323 506.339 351.714 484.949C351.487 484.798 351.234 485.107 351.436 485.293C355.873 489.504 367.004 501.211 371.158 516.263C376.398 535.257 379.495 559.656 370.064 584.954C360.637 610.253 300.765 799.975 300.765 799.975L314.498 805.226C314.498 805.226 376.47 591.642 389.689 570.11C402.499 549.245 424.521 526.114 457.928 531.678C458.205 531.724 458.301 531.325 458.032 531.246C451.915 529.396 437.901 526.179 425.518 530.783C409.119 536.881 392.55 556.05 392.55 556.05C392.55 556.05 398.782 523.123 419.177 512.052C435.715 503.072 450.804 497.232 457.153 488.896C460.875 484.006 463.708 479.196 465.412 476.051C465.547 475.806 465.198 475.585 465.035 475.814C461.135 481.207 451.987 491.868 436.661 498.677C429.611 501.808 412.225 506.189 409.468 505.885L422.894 468.051C422.894 468.051 442.754 465.893 451.018 459.538C457.199 454.783 462.619 449.054 465.598 445.697C465.786 445.487 465.491 445.193 465.283 445.384C460.95 449.289 452.44 456.608 446.804 459.228C438.493 463.092 424.404 463.77 424.404 463.77L434.647 438.31C434.647 438.31 448.992 431.894 457.287 425.283C462.313 421.277 465.242 418.824 466.774 417.512C466.975 417.34 466.758 417.022 466.525 417.147L436.898 432.581L451.744 382.972C451.815 382.733 451.69 382.476 451.458 382.387C451.207 382.29 450.927 382.416 450.834 382.67L450.838 382.671Z" fill="#00C16E"/>
<path d="M341.235 361.803C348.247 358.873 357.648 364.88 362.719 358.779C365.321 355.649 367.356 351.143 371.407 350.75C375.339 350.371 378.19 354.174 381.293 356.621C385.786 360.158 392.195 361.081 397.503 358.957C399.453 358.177 401.452 356.994 403.507 357.426C408.097 358.394 407.522 365.105 409.61 369.307C412.735 375.6 422.054 375.767 426.684 381.053C431.49 386.54 429.467 394.883 428.425 402.101C428.188 403.741 428.038 405.508 428.806 406.977C429.778 408.843 431.92 409.705 433.688 410.85C438.452 413.941 440.962 420.149 439.684 425.681C438.771 429.628 436.173 433.063 435.487 437.056C434.568 442.402 437.197 447.622 438.937 452.762C440.677 457.902 441.268 464.349 437.291 468.039C436.076 469.165 434.54 469.914 433.399 471.114C429.769 474.93 431.592 481.174 433.947 485.885C436.301 490.596 439.019 496.153 436.586 500.821C434.126 505.535 427.649 506.656 424.456 510.909C419.602 517.374 424.287 528.015 418.835 533.981C416.158 536.908 411.918 537.623 408.155 538.89C397.723 542.401 389.413 551.614 386.993 562.349C386.451 564.743 386.131 567.318 384.584 569.223C382.117 572.257 377.48 572.475 374.494 575.001C370.01 578.794 370.842 586.073 367.563 590.944C365.943 593.35 363.442 594.986 361.17 596.79C357.249 599.904 353.854 603.682 351.182 607.92C348.608 611.994 341.054 624.042 341.054 624.042C341.054 624.042 334.065 624.044 329.939 621.556C330.974 599.189 323.126 577.774 308.228 561.057C306.978 559.655 305.664 558.267 304.869 556.568C302.253 550.984 305.991 544.65 309.421 539.525C312.852 534.399 316.163 527.642 312.866 522.431C308.252 515.136 294.019 516.74 292.438 508.256C291.513 503.29 296.283 498.668 295.638 493.655C294.789 487.055 285.4 484.238 284.484 477.648C283.913 473.543 286.975 469.843 290.212 467.258C293.449 464.672 297.221 462.417 299.087 458.715C303.878 449.212 293.309 437.04 298.208 427.592C300.504 423.165 305.582 420.854 308.371 416.723C311.528 412.043 311.229 405.956 311.494 400.317C311.759 394.677 313.238 388.282 318.208 385.604C320.928 384.141 324.271 384.074 326.874 382.41C330.667 379.982 331.733 375.057 333.355 370.854C334.974 366.652 338.465 362.954 341.232 361.795L341.235 361.803Z" fill="#00AA61"/>
<path d="M382.815 361.373L373.293 412.977C373.293 412.977 364.317 406.091 360.665 398.284C358.323 393.283 356.238 388.461 355.043 385.645C354.937 385.391 354.552 385.516 354.621 385.784C355.821 390.526 358.659 400.569 362.712 407.575C368.187 417.038 372.089 418.666 372.089 418.666L365.849 445.258C365.849 445.258 353.354 435.172 347.982 425.031C342.61 414.889 340.948 405.314 340.948 405.314C340.948 405.314 344.266 424.468 348.648 432.039C353.029 439.61 364.48 450.671 364.48 450.671L355.849 489.434C355.849 489.434 351.548 483.314 341.318 473.224C338.473 470.416 331.353 462.625 328.43 446.941C327.308 440.932 326.15 433.393 325.427 428.532C325.385 428.249 324.964 428.294 324.984 428.578C325.57 437.944 327.189 457.941 330.683 466.278C335.119 476.866 348.399 490.442 348.113 501.731C347.789 514.682 343.292 540.224 343.215 538.641C343.168 537.64 337.986 494.436 302.254 478.822C302.005 478.714 301.808 479.059 302.035 479.21C307.117 482.615 320.056 492.291 326.674 506.434C335.029 524.277 342.17 547.811 337.123 574.334C332.075 600.857 305.197 794.357 305.197 794.357L319.614 797.229C319.614 797.229 344.556 579.849 353.975 556.408C363.393 532.968 380.931 507.194 414.8 507.074C415.081 507.073 415.108 506.664 414.832 506.63C408.49 505.83 394.137 505.01 382.699 511.628C367.558 520.391 354.438 542.067 354.438 542.067C354.438 542.067 355.059 508.559 373.304 494.228C388.103 482.602 401.999 474.313 406.858 465.031C409.709 459.588 411.692 454.368 412.847 450.984C412.938 450.721 412.56 450.563 412.437 450.813C409.498 456.784 402.264 468.83 388.299 478.11C381.876 482.381 365.469 489.615 362.7 489.781L369.591 450.233C369.591 450.233 388.805 444.772 395.888 437.12C401.187 431.397 405.567 424.837 407.941 421.029C408.09 420.79 407.752 420.552 407.578 420.771C403.962 425.346 396.798 433.991 391.684 437.521C384.141 442.725 370.362 445.757 370.362 445.757L376.191 418.94C376.191 418.94 389.257 410.209 396.326 402.298C400.61 397.505 403.086 394.594 404.372 393.046C404.544 392.842 404.277 392.568 404.066 392.727L377.45 412.913L383.765 361.513C383.795 361.264 383.63 361.037 383.385 360.984C383.124 360.933 382.868 361.104 382.82 361.366L382.815 361.373Z" fill="#00C679"/>
<path d="M287.739 734.813C287.689 734.494 287.987 734.227 288.297 734.317C291.638 735.271 306.812 739.528 317.264 741.247C330.374 743.403 347.353 745.268 350.843 745.644C351.153 745.679 351.333 746.011 351.19 746.289L348.02 752.498C347.949 752.636 347.814 752.728 347.66 752.74C345.731 752.892 332.44 752.908 313.319 748.867C295.551 745.113 289.975 742.523 288.972 741.86C288.865 741.79 288.796 741.682 288.776 741.554L287.739 734.809L287.739 734.813Z" fill="#FF5029"/>
<path d="M300.334 754.48C300.135 754.223 300.238 753.853 300.529 753.784C303.619 753.024 317.611 749.509 326.65 746.04C337.99 741.683 353.593 736.592 356.512 735.26C356.772 735.139 357.076 735.345 357.103 735.653L352.571 743.68C352.583 743.834 352.526 743.977 352.408 744.06C350.971 745.11 344.302 748.942 327.323 754.519C311.546 759.701 305.895 760.104 304.784 760.002C304.665 759.992 304.558 759.929 304.479 759.832L300.331 754.475L300.334 754.48Z" fill="#FF5029"/>
<g clip-path="url(#clip1_4980_7958)">
<path d="M539.801 247.541L542.544 233.037L535.881 230.684L504.323 239.699L464.336 259.692L464.925 266.751L474.334 283.804L483.939 286.546L524.316 263.026L539.801 247.541Z" fill="#FFC200"/>
<path d="M479.429 276.551L487.034 274.48L486.498 278.537L476.773 280.737L479.429 276.551Z" fill="#F4A800"/>
<path d="M515.1 234.02L513.925 231.863C513.925 231.863 491.58 238.333 486.092 241.076C480.604 243.818 472.273 247.712 472.273 247.712L476.487 250.877L499.814 241.272L515.103 234.02H515.1Z" fill="#FFCC3E"/>
<path d="M542.539 233.042L543.644 227.93C543.874 226.872 543.002 225.9 541.927 226.013C537.221 226.512 526.035 227.797 519.801 229.318C511.764 231.278 486.677 244.607 486.677 244.607C486.677 244.607 482.56 244.411 474.915 246.567C467.27 248.724 461 260.286 461 260.286C461 260.286 463.939 263.032 466.095 264.01C466.095 264.01 470.605 256.365 474.719 254.798C478.832 253.23 488.44 251.27 488.44 251.27C488.44 251.27 508.629 239.312 517.841 236.766C527.053 234.22 542.539 233.042 542.539 233.042Z" fill="#FFB700"/>
<path d="M473.152 260.676L474.453 255.847C474.453 255.847 498.046 244.212 512.354 241.663C526.661 239.113 537.152 236.63 540.29 235.848C542.28 235.349 546.837 235.852 549.898 236.288C551.802 236.557 553.373 237.898 553.939 239.736C554.837 242.648 555.989 247.197 555.866 251.075C555.709 256.03 553.965 263.678 553.24 266.67C553.054 267.446 552.461 268.058 551.692 268.271C546.896 269.606 529.134 274.674 516.86 279.889C502.552 285.967 483.342 292.04 483.342 292.04L488.045 281.846L484.321 265.775L477.462 259.112L473.148 260.68L473.152 260.676Z" fill="#D59A00"/>
<path d="M476.486 281.063L479.425 276.553C479.425 276.553 472.565 265.184 477.268 262.635C481.971 260.086 490.204 284.587 481.971 284.002C473.737 283.416 466.095 264.009 466.095 264.009L461 260.285C461 260.285 466.461 277.405 476.486 289.1C484.72 298.705 490.011 285.769 489.815 276.36C489.619 266.952 480.799 253.819 475.115 255.583C470.928 256.881 470.412 265.58 471.98 270.087C473.547 274.593 476.489 281.063 476.489 281.063H476.486Z" fill="#FFB700"/>
</g>
<g clip-path="url(#clip2_4980_7958)">
<path d="M86.9062 299.775L77.0539 310.767L81.5377 316.228L113.207 324.844L157.769 328.43L160.918 322.085L161.692 302.624L154.892 295.307L108.171 294.538L86.9062 299.775Z" fill="#FFC200"/>
<path d="M153.58 306.196L146.001 304.032L148.559 300.838L158.019 303.988L153.58 306.196Z" fill="#F4A800"/>
<path d="M101.04 324.131L100.93 326.584C100.93 326.584 123.398 332.612 129.513 333.105C135.629 333.598 144.772 334.577 144.772 334.577L142.804 329.689L117.873 325.836L101.037 324.129L101.04 324.131Z" fill="#FFCC3E"/>
<path d="M77.0574 310.764L73.4665 314.567C72.7223 315.354 72.9655 316.636 73.9439 317.096C78.2291 319.104 88.4655 323.793 94.5866 325.718C102.479 328.2 130.843 329.776 130.843 329.776C130.843 329.776 134.265 332.075 141.922 334.186C149.58 336.296 160.928 329.648 160.928 329.648C160.928 329.648 159.834 325.777 158.495 323.824C158.495 323.824 150.68 328.032 146.349 327.244C142.018 326.457 132.782 323.162 132.782 323.162C132.782 323.162 109.319 322.947 100.118 320.359C90.9181 317.77 77.0574 310.764 77.0574 310.764Z" fill="#FFB700"/>
<path d="M150.734 323.027L147.122 326.486C147.122 326.486 120.912 324.232 107.35 319.01C93.7878 313.787 83.5265 310.483 80.4363 309.528C78.4749 308.926 74.8363 306.138 72.4419 304.18C70.9524 302.964 70.3023 301.004 70.7689 299.139C71.507 296.182 72.876 291.693 74.9878 288.439C77.6861 284.28 83.1361 278.638 85.3053 276.453C85.8661 275.886 86.6899 275.669 87.458 275.884C92.2523 277.224 110.074 282.078 123.276 283.968C138.664 286.171 158.245 290.915 158.245 290.915L148.945 297.204L143.815 312.884L146.237 322.135L150.739 323.026L150.734 323.027Z" fill="#D59A00"/>
<path d="M158.424 303.856L153.576 306.194C153.576 306.194 153.562 319.472 148.219 319.22C142.875 318.968 148.509 293.741 155.252 298.503C161.994 303.265 158.49 323.825 158.49 323.825L160.923 329.649C160.923 329.649 165.109 312.173 162.583 296.979C160.508 284.499 149.286 292.83 144.585 300.982C139.884 309.135 140.635 324.937 146.412 326.369C150.666 327.425 155.609 320.247 156.6 315.58C157.591 310.913 158.421 303.854 158.421 303.854L158.424 303.856Z" fill="#FFB700"/>
</g>
<path d="M662.053 41.3527C662.053 41.3527 663.777 39.8505 667.983 37.3597C671.773 35.1146 672.771 27.7721 671.117 20.9656C669.677 15.0353 667.931 12.3844 667.397 11.6724C667.293 11.5333 667.253 11.3566 667.283 11.1876C667.354 10.8179 667.485 10.1875 667.602 9.95373C667.686 9.78756 667.94 9.53008 668.161 9.32549C668.353 9.14738 668.657 9.16575 668.822 9.37093C669.934 10.7493 673.771 15.8749 674.4 21.871C675.135 28.9009 674.499 33.4129 675.75 37.0615C676.997 40.7067 679.535 42.4161 679.398 45.6249L672.257 41.4783L662.05 41.3523L662.053 41.3527Z" fill="#0C513F"/>
<path d="M678.619 45.1699L672.26 41.4772L662.053 41.3512C662.053 41.3512 663.777 39.849 667.983 37.3583C671.773 35.1132 672.771 27.7706 671.117 20.9642C669.677 15.0338 667.931 12.383 667.397 11.671C667.293 11.5319 667.253 11.3552 667.283 11.1861C667.324 10.9737 667.387 10.6745 667.451 10.4171C669.414 12.7916 671.274 17.4873 672.284 22.1941C673.509 27.8959 670.411 36.132 672.712 39.1081C674.238 41.0812 677.276 43.9417 678.618 45.1758L678.619 45.1699Z" fill="#02C27F"/>
<path d="M574.076 93.9421C574.363 93.3049 575.044 92.9397 575.735 93.0598C581.684 94.0872 608.393 97.2018 624.075 87.8478C660.276 66.2545 645.81 35.9338 670.842 40.6657C695.093 45.2529 670.51 78.0423 663.541 87.0588C656.524 96.1384 639.173 111.656 606.872 106.695C581.245 102.757 575.47 97.4192 574.177 95.3853C573.903 94.9542 573.871 94.4099 574.079 93.9454L574.076 93.9421Z" fill="#ED5E3B"/>
<path d="M663.539 87.0538C656.521 96.1334 639.167 111.654 606.87 106.69C581.243 102.751 575.468 97.4141 574.175 95.3802C573.951 95.0319 573.887 94.6149 573.984 94.2213C580.701 97.3205 593.658 102.135 610.457 102.845C635.525 103.905 649.023 96.0746 661.297 82.3343C668.224 74.5817 675.53 55.3574 679.143 44.9908C687.471 55.4055 669.359 79.525 663.539 87.0538Z" fill="#992600"/>
<path d="M725.319 429.04L707.243 424.957C707.243 424.957 698.065 450.027 697.369 469.939L705.755 508.715L720.776 485.308C720.776 485.308 717.281 465.396 719.727 454.217C722.173 443.038 725.324 429.035 725.324 429.035L725.319 429.04Z" fill="#007543"/>
<path d="M757.809 436.756L742.086 431.164C742.086 431.164 734.75 451.424 726.364 468.195C717.979 484.966 701.213 510.466 701.213 510.466L718.68 528.981L757.809 436.756Z" fill="#00824D"/>
<path d="M697.364 423.131L677.799 422.082L677.452 499.286L688.631 546.1L708.543 521.644C708.543 521.644 699.109 458.76 698.065 452.125C697.016 445.489 697.364 423.131 697.364 423.131Z" fill="#00B265"/>
<path d="M786.59 456.046L772.218 443.727C772.218 443.727 734.752 484.784 716.272 507.367C697.798 529.951 680.858 546.89 680.858 546.89L690.906 604.412L721 539.482C741.378 501.576 786.59 456.046 786.59 456.046Z" fill="#008E59"/>
<path d="M668.129 422C668.129 422 687.581 516.753 689.679 530.377C691.777 544.002 702.956 607.934 689.679 643.564C676.402 679.198 663.827 726.708 660.685 742.43C657.539 758.152 649.01 780.321 627.148 771.424C606.852 763.166 620.513 734.392 627.496 721.817C634.485 709.241 671.864 656.835 672.913 591.158C673.957 525.486 641.474 422.45 641.474 422.45L668.129 422Z" fill="#00C679"/>
<path d="M627.142 771.428C649.004 780.32 657.538 758.151 660.684 742.434C663.825 726.712 676.401 679.198 689.678 643.568C690.414 641.588 691.074 639.526 691.668 637.388L667.734 631.949C657.005 677.796 632.954 711.988 627.495 721.821C620.506 734.397 606.846 763.17 627.142 771.428Z" fill="#C9F9EF"/>
<path d="M-35.1799 445.977L-51.607 454.553C-51.607 454.553 -42.3944 479.61 -30.0471 495.247L1.42627 519.399L-2.25461 491.832C-2.25461 491.832 -17.7978 478.904 -23.1623 468.796C-28.5268 458.688 -35.1793 445.969 -35.1793 445.969L-35.1799 445.977Z" fill="#007543"/>
<path d="M-5.41861 430.855L-21.0268 436.758C-21.0268 436.758 -13.5196 456.956 -9.06911 475.17C-4.61857 493.385 -0.915054 523.677 -0.915054 523.677L24.3819 526.503L-5.41861 430.855Z" fill="#00824D"/>
<path d="M-60.3208 459.549L-75.9213 471.402L-26.2565 530.512L12.5457 558.988L11.9171 527.457C11.9171 527.457 -35.9474 485.596 -41.035 481.21C-46.1266 476.827 -60.3208 459.549 -60.3208 459.549Z" fill="#00B265"/>
<path d="M29.0184 426.951L10.0894 426.849C10.0894 426.849 8.06651 482.395 8.57674 511.571C9.09087 540.744 7.12603 564.62 7.12603 564.62L51.9912 601.994L32.9519 533.008C23.9795 490.918 29.0184 426.951 29.0184 426.951Z" fill="#008E59"/>
<path d="M-83.3491 477.592C-83.3491 477.592 -7.23332 537.282 3.178 546.317C13.5893 555.352 63.4628 596.885 76.3791 632.646C89.2988 668.412 110.433 712.781 118.205 726.804C125.973 740.831 133.805 763.255 111.377 770.608C90.556 777.436 82.3662 746.655 79.5597 732.547C76.7571 718.435 71.3746 654.29 29.6992 603.519C-11.9768 552.754 -103.389 495.175 -103.389 495.175L-83.3491 477.592Z" fill="#00C679"/>
<path d="M111.369 770.614C133.794 763.258 125.966 740.83 118.201 726.807C110.429 712.784 89.2916 668.411 76.3753 632.649C75.6567 630.663 74.8266 628.663 73.8962 626.648L52.1242 637.979C73.5915 679.885 77.36 721.519 79.5558 732.55C82.3584 746.661 90.5482 777.442 111.369 770.614Z" fill="#C9F9EF"/>
</g>
<defs>
<clipPath id="clip0_4980_7958">
<rect width="752" height="737" fill="white"/>
</clipPath>
<clipPath id="clip1_4980_7958">
<rect width="94.8783" height="66.4827" fill="white" transform="translate(461 226)"/>
</clipPath>
<clipPath id="clip2_4980_7958">
<rect width="94.8783" height="66.4827" fill="white" transform="translate(143.188 358.986) rotate(-148.836)"/>
</clipPath>
</defs>
</svg>
