<svg width="739" height="453" viewBox="0 0 739 453" fill="none" xmlns="http://www.w3.org/2000/svg">
<path d="M369.5 452.951C165.431 452.951 0 448.474 0 442.951C0 437.428 165.431 432.951 369.5 432.951C573.569 432.951 739 437.428 739 442.951C739 448.474 573.569 452.951 369.5 452.951Z" fill="#ADD3FF"/>
<path d="M65.1421 78.0543L182.424 78.3444C200.15 78.3883 214.484 92.9718 214.441 110.918L213.903 333.752C213.86 351.698 199.455 366.211 181.729 366.167L64.4474 365.877C46.7216 365.833 32.3871 351.249 32.4304 333.303L32.9682 110.469C33.0116 92.5229 47.4163 78.0104 65.1421 78.0543Z" fill="#0052BA"/>
<path d="M123.487 350.223C124.286 350.075 124.904 349.358 124.904 348.504L125.512 92.7534C125.512 91.7856 124.736 91 123.78 91C122.835 91 122.048 91.7742 122.048 92.7534L121.441 348.504C121.441 349.472 122.217 350.257 123.173 350.257C123.285 350.257 123.386 350.257 123.499 350.223H123.487Z" fill="#004C9E"/>
<path d="M69.3609 132.423L81.4839 147.076C85.0038 151.323 91.2677 151.88 95.4736 148.328C99.6796 144.776 100.219 138.423 96.7107 134.165L84.5877 119.512L69.3722 132.423H69.3609Z" fill="#FBFFFF"/>
<path d="M57.7305 118.374L69.3587 132.424L84.5742 119.513L72.9461 105.463C69.4261 101.205 63.1622 100.658 58.9563 104.211C56.8533 105.987 55.6725 108.457 55.4364 111.03C55.2227 113.581 55.9537 116.234 57.7193 118.374H57.7305Z" fill="#00ABFF"/>
<path d="M69.2086 195.315L81.3315 209.968C84.8515 214.215 91.1154 214.773 95.3213 211.221C99.5272 207.669 100.067 201.315 96.5583 197.057L84.4354 182.404L69.2198 195.315H69.2086Z" fill="#00ABFF"/>
<path d="M57.586 181.269L69.2141 195.318L84.4297 182.407L72.8015 168.358C69.2816 164.099 63.0177 163.553 58.8118 167.105C56.7088 168.881 55.528 171.352 55.2918 173.925C55.0782 176.475 55.8091 179.128 57.5747 181.269H57.586Z" fill="#FBFFFF"/>
<path d="M69.0601 258.198L81.1831 272.851C84.703 277.098 90.9669 277.656 95.1729 274.104C99.3788 270.551 99.9186 264.198 96.4099 259.94L84.2869 245.287L69.0714 258.198H69.0601Z" fill="#00ABFF"/>
<path d="M57.4375 244.149L69.0657 258.199L84.2812 245.288L72.6531 231.238C69.1332 226.98 62.8693 226.434 58.6633 229.986C56.5604 231.762 55.3796 234.233 55.1434 236.806C54.9297 239.356 55.6607 242.009 57.4263 244.149H57.4375Z" fill="#FBFFFF"/>
<path d="M68.9271 321.093L81.0501 335.746C84.57 339.992 90.8339 340.55 95.0398 336.998C99.2345 333.434 99.7856 327.093 96.2769 322.835L84.1539 308.182L68.9384 321.093H68.9271Z" fill="#FBFFFF"/>
<path d="M57.293 307.032L68.9212 321.082L84.1367 308.171L72.5086 294.121C68.9886 289.863 62.7247 289.317 58.5188 292.869C56.4158 294.645 55.235 297.116 54.9989 299.689C54.7852 302.239 55.5162 304.892 57.2818 307.032H57.293Z" fill="#00ABFF"/>
<path d="M155.201 135.481L167.324 150.134C170.844 154.381 177.108 154.939 181.313 151.387C185.519 147.835 186.059 141.481 182.551 137.223L170.428 122.57L155.212 135.481H155.201Z" fill="#FBFFFF"/>
<path d="M143.563 121.435L155.191 135.484L170.406 122.573L158.778 108.524C155.258 104.265 148.994 103.719 144.788 107.271C142.685 109.047 141.505 111.518 141.268 114.091C141.055 116.641 141.786 119.294 143.551 121.435H143.563Z" fill="#00ABFF"/>
<path d="M155.037 198.38L167.16 213.033C170.68 217.28 176.943 217.837 181.149 214.285C185.355 210.733 185.895 204.38 182.386 200.122L170.263 185.469L155.048 198.38H155.037Z" fill="#00ABFF"/>
<path d="M143.414 184.333L155.042 198.383L170.258 185.472L158.63 171.422C155.11 167.164 148.846 166.617 144.64 170.17C142.537 171.946 141.356 174.416 141.12 176.989C140.906 179.54 141.637 182.193 143.403 184.333H143.414Z" fill="#FBFFFF"/>
<path d="M154.888 261.259L167.011 275.912C170.531 280.159 176.795 280.716 181.001 277.164C185.207 273.612 185.747 267.259 182.238 263.001L170.115 248.348L154.899 261.259H154.888Z" fill="#00ABFF"/>
<path d="M143.266 247.206L154.894 261.256L170.109 248.345L158.481 234.295C154.961 230.037 148.697 229.49 144.491 233.043C142.388 234.819 141.208 237.289 140.972 239.862C140.758 242.413 141.489 245.066 143.254 247.206H143.266Z" fill="#FBFFFF"/>
<path d="M154.747 324.145L166.87 338.798C170.39 343.045 176.654 343.603 180.86 340.051C185.055 336.487 185.606 330.146 182.097 325.887L169.974 311.234L154.759 324.145H154.747Z" fill="#FBFFFF"/>
<path d="M143.129 310.087L154.757 324.137L169.973 311.226L158.345 297.176C154.825 292.918 148.561 292.371 144.355 295.924C142.252 297.7 141.071 300.17 140.835 302.743C140.621 305.294 141.352 307.947 143.118 310.087H143.129Z" fill="#00ABFF"/>
<path d="M227.85 166.031H375.559V171.456H227.85V166.031Z" fill="#D0E2EF"/>
<path d="M227.143 157.34H376.168V163.702H227.143V157.34Z" fill="#469FF7"/>
<path d="M305.314 446.909C412.708 446.909 407.702 410.807 407.702 410.807V195.041C407.702 186.976 402.552 179.848 394.964 177.393L375.537 171.109H227.855L208.428 177.393C200.84 179.848 195.69 186.976 195.69 195.041V410.807C195.69 410.807 187.41 446.909 305.314 446.909Z" fill="#F0F8FF"/>
<path d="M220.325 153.569C220.325 155.747 222.45 157.568 225.214 157.753C235.176 158.4 260.469 159.72 302.609 159.72C344.748 159.72 368.021 158.4 378.047 157.74C380.824 157.555 382.949 155.734 382.949 153.556V136.871C382.949 134.587 380.641 132.726 377.734 132.673C366.586 132.462 338.502 132 302.361 132C276.011 132 239.113 132.502 225.566 132.7C222.646 132.739 220.312 134.614 220.312 136.897V153.556H220.325V153.569Z" fill="#004699"/>
<path d="M226.677 162.99H376.588C377.726 162.99 378.648 163.924 378.648 165.076V165.142C378.648 166.294 377.726 167.227 376.588 167.227H226.677C225.539 167.227 224.617 166.294 224.617 165.142V165.076C224.617 163.924 225.539 162.99 226.677 162.99Z" fill="#D2ECFF"/>
<path d="M361.998 132.424V158.586C365.205 158.454 368.035 158.309 370.512 158.19V132.556C368.008 132.516 365.166 132.463 361.998 132.424Z" fill="#7BBDFF"/>
<path d="M336.162 132.141V159.385C339.148 159.333 341.977 159.253 344.676 159.187V132.22C341.964 132.193 339.109 132.167 336.162 132.154V132.141Z" fill="#7BBDFF"/>
<path d="M310.304 132.029V159.723C313.225 159.71 316.054 159.683 318.805 159.67V132.069C316.028 132.069 313.198 132.042 310.304 132.042V132.029Z" fill="#7BBDFF"/>
<path d="M284.478 132.079V159.64C287.229 159.667 290.059 159.693 292.992 159.706V132.039C290.215 132.039 287.36 132.065 284.478 132.079Z" fill="#7BBDFF"/>
<path d="M258.631 132.304V159.192C261.317 159.258 264.159 159.324 267.145 159.39V132.225C264.276 132.251 261.421 132.277 258.631 132.317V132.304Z" fill="#7BBDFF"/>
<path d="M232.777 132.621V158.216C235.241 158.348 238.07 158.48 241.277 158.612V132.516C238.174 132.555 235.319 132.595 232.777 132.634V132.621Z" fill="#7BBDFF"/>
<path d="M301.654 389.159C257.939 389.159 222.5 353.28 222.5 309.022C222.5 264.763 257.939 228.885 301.654 228.885C345.37 228.885 380.809 264.763 380.809 309.022C380.809 353.28 345.37 389.159 301.654 389.159Z" fill="#99C8FF"/>
<path d="M287.35 273.262H315.969V344.792H287.35V273.262Z" fill="white"/>
<path d="M266.319 294.539H336.973V323.513H266.319V294.539Z" fill="white"/>
<path d="M407.093 200.697C390.088 203.541 378.578 219.794 381.387 237.011L411.288 420.45C414.097 437.667 430.151 449.32 447.157 446.475C464.162 443.631 475.672 427.379 472.863 410.162L442.962 226.722C440.153 209.506 424.099 197.853 407.093 200.697Z" fill="#DCD6F9"/>
<path d="M414.326 176.938L418.462 202.315C419.449 208.374 415.399 214.096 409.414 215.095C403.43 216.095 397.778 211.994 396.791 205.935L392.655 180.558C391.667 174.5 395.718 168.778 401.702 167.778C407.687 166.778 413.338 170.879 414.326 176.938Z" fill="#DCD6F9"/>
<path d="M404.083 248.132H404.196L415.14 246.3C415.499 246.243 415.744 245.899 415.687 245.527C415.631 245.164 415.291 244.907 414.924 244.973L403.98 246.806C403.621 246.863 403.376 247.207 403.433 247.579C403.489 247.903 403.763 248.142 404.083 248.142V248.132Z" fill="#251D5E"/>
<path d="M406.271 261.543H406.384L417.328 259.71C417.686 259.653 417.931 259.309 417.875 258.937C417.818 258.574 417.479 258.317 417.111 258.384L406.167 260.216C405.809 260.273 405.564 260.617 405.62 260.989C405.677 261.314 405.95 261.552 406.271 261.552V261.543Z" fill="#251D5E"/>
<path d="M408.458 274.939H408.571L419.515 273.107C419.874 273.049 420.119 272.706 420.062 272.334C420.006 271.971 419.676 271.713 419.299 271.78L408.355 273.612C407.996 273.67 407.751 274.013 407.808 274.386C407.864 274.71 408.138 274.949 408.458 274.949V274.939Z" fill="#251D5E"/>
<path d="M410.646 288.349H410.759L421.703 286.517C422.061 286.46 422.306 286.116 422.25 285.744C422.193 285.381 421.854 285.123 421.486 285.19L410.542 287.023C410.184 287.08 409.939 287.423 409.995 287.796C410.052 288.12 410.325 288.359 410.646 288.359V288.349Z" fill="#251D5E"/>
<path d="M412.829 301.759H412.942L423.887 299.927C424.245 299.87 424.49 299.526 424.433 299.154C424.377 298.791 424.037 298.534 423.67 298.6L412.726 300.433C412.367 300.49 412.122 300.834 412.179 301.206C412.235 301.53 412.509 301.769 412.829 301.769V301.759Z" fill="#251D5E"/>
<path d="M415.017 315.167H415.13L426.074 313.335C426.432 313.278 426.677 312.934 426.621 312.562C426.564 312.199 426.225 311.951 425.857 312.008L414.913 313.841C414.555 313.898 414.31 314.241 414.366 314.614C414.423 314.938 414.696 315.177 415.017 315.177V315.167Z" fill="#251D5E"/>
<path d="M417.207 328.573H417.32L428.273 326.741C428.631 326.684 428.877 326.34 428.82 325.968C428.763 325.605 428.434 325.357 428.056 325.414L417.103 327.247C416.745 327.304 416.5 327.648 416.556 328.02C416.613 328.344 416.886 328.583 417.207 328.583V328.573Z" fill="#251D5E"/>
<path d="M419.394 341.978H419.507L430.461 340.145C430.819 340.088 431.064 339.745 431.008 339.372C430.951 339.01 430.612 338.762 430.244 338.819L419.29 340.651C418.932 340.708 418.687 341.052 418.744 341.424C418.8 341.749 419.074 341.987 419.394 341.987V341.978Z" fill="#251D5E"/>
<path d="M421.578 355.384H421.691L432.644 353.552C433.003 353.495 433.248 353.151 433.191 352.779C433.135 352.416 432.795 352.159 432.428 352.225L421.474 354.058C421.116 354.115 420.871 354.459 420.927 354.831C420.984 355.155 421.257 355.394 421.578 355.394V355.384Z" fill="#251D5E"/>
<path d="M423.769 368.793H423.882L434.836 366.96C435.194 366.903 435.439 366.559 435.383 366.187C435.326 365.824 434.987 365.567 434.619 365.634L423.665 367.466C423.307 367.523 423.062 367.867 423.119 368.239C423.175 368.564 423.449 368.802 423.769 368.802V368.793Z" fill="#251D5E"/>
<path d="M425.937 382.205H426.05L437.004 380.372C437.362 380.315 437.607 379.971 437.55 379.599C437.494 379.237 437.155 378.979 436.787 379.046L425.833 380.878C425.475 380.935 425.23 381.279 425.287 381.651C425.343 381.976 425.617 382.214 425.937 382.214V382.205Z" fill="#251D5E"/>
<path d="M396.787 242.55H396.9L414.066 239.677C414.424 239.62 414.67 239.276 414.613 238.904C414.556 238.541 414.217 238.284 413.849 238.35L396.683 241.223C396.325 241.28 396.08 241.624 396.137 241.996C396.193 242.321 396.467 242.559 396.787 242.559V242.55Z" fill="#251D5E"/>
<path d="M398.971 255.93H399.084L416.25 253.057C416.608 253 416.853 252.657 416.797 252.284C416.74 251.922 416.41 251.674 416.033 251.731L398.867 254.604C398.509 254.661 398.264 255.004 398.32 255.377C398.377 255.701 398.65 255.94 398.971 255.94V255.93Z" fill="#251D5E"/>
<path d="M401.143 269.321H401.256L418.422 266.448C418.78 266.391 419.025 266.047 418.968 265.675C418.912 265.312 418.573 265.064 418.205 265.121L401.039 267.994C400.681 268.051 400.436 268.395 400.492 268.767C400.549 269.092 400.822 269.33 401.143 269.33V269.321Z" fill="#251D5E"/>
<path d="M403.334 282.71H403.447L420.613 279.837C420.971 279.78 421.216 279.436 421.16 279.064C421.103 278.701 420.764 278.444 420.396 278.511L403.23 281.383C402.872 281.44 402.627 281.784 402.684 282.156C402.74 282.481 403.014 282.719 403.334 282.719V282.71Z" fill="#251D5E"/>
<path d="M405.514 296.1H405.627L422.793 293.228C423.151 293.171 423.396 292.827 423.34 292.455C423.283 292.092 422.944 291.834 422.576 291.901L405.41 294.774C405.052 294.831 404.807 295.175 404.863 295.547C404.92 295.871 405.193 296.11 405.514 296.11V296.1Z" fill="#251D5E"/>
<path d="M407.705 309.479H407.818L424.984 306.606C425.342 306.549 425.588 306.205 425.531 305.833C425.474 305.471 425.135 305.222 424.767 305.28L407.601 308.152C407.243 308.21 406.998 308.553 407.055 308.925C407.111 309.25 407.385 309.488 407.705 309.488V309.479Z" fill="#251D5E"/>
<path d="M409.897 322.868H410.01L427.176 319.995C427.534 319.938 427.779 319.594 427.722 319.222C427.666 318.859 427.336 318.611 426.959 318.668L409.793 321.541C409.435 321.598 409.19 321.942 409.246 322.314C409.303 322.639 409.576 322.877 409.897 322.877V322.868Z" fill="#251D5E"/>
<path d="M412.061 336.261H412.174L429.34 333.388C429.698 333.331 429.943 332.987 429.886 332.615C429.83 332.252 429.49 331.995 429.123 332.061L411.957 334.934C411.599 334.991 411.354 335.335 411.41 335.707C411.467 336.032 411.74 336.27 412.061 336.27V336.261Z" fill="#251D5E"/>
<path d="M414.26 349.649H414.373L431.539 346.777C431.897 346.719 432.142 346.376 432.086 346.004C432.029 345.641 431.69 345.383 431.322 345.45L414.156 348.323C413.798 348.38 413.553 348.724 413.609 349.096C413.666 349.42 413.939 349.659 414.26 349.659V349.649Z" fill="#251D5E"/>
<path d="M416.436 363.039H416.549L433.715 360.167C434.073 360.11 434.318 359.766 434.261 359.394C434.205 359.031 433.865 358.783 433.498 358.84L416.332 361.713C415.974 361.77 415.729 362.114 415.785 362.486C415.842 362.81 416.115 363.049 416.436 363.049V363.039Z" fill="#251D5E"/>
<path d="M418.615 376.42H418.728L435.894 373.548C436.253 373.49 436.498 373.147 436.441 372.775C436.385 372.412 436.055 372.164 435.678 372.221L418.512 375.094C418.153 375.151 417.908 375.495 417.965 375.867C418.021 376.191 418.295 376.43 418.615 376.43V376.42Z" fill="#251D5E"/>
<path d="M420.803 389.807H420.916L438.082 386.935C438.44 386.878 438.685 386.534 438.629 386.162C438.572 385.799 438.233 385.541 437.865 385.608L420.699 388.481C420.341 388.538 420.096 388.882 420.152 389.254C420.209 389.578 420.482 389.817 420.803 389.817V389.807Z" fill="#251D5E"/>
<path d="M402.606 172.782C399.995 173.221 398.232 175.712 398.656 178.356L437.013 413.684C437.447 416.328 439.907 418.112 442.518 417.683C445.13 417.244 446.892 414.753 446.468 412.109L408.111 176.772C407.678 174.128 405.217 172.343 402.606 172.773V172.782Z" fill="#F1F6FF"/>
<path d="M441.65 430.27C431.966 430.27 424.116 422.323 424.116 412.519C424.116 402.715 431.966 394.768 441.65 394.768C451.334 394.768 459.184 402.715 459.184 412.519C459.184 422.323 451.334 430.27 441.65 430.27Z" fill="#8C77EC"/>
<path d="M427.794 327.294C425.192 327.733 423.42 330.233 423.844 332.867L436.137 408.272L445.582 406.697L433.29 331.293C432.856 328.659 430.386 326.865 427.784 327.294H427.794Z" fill="#8C77EC"/>
<path d="M32.9723 301.33H204.278C218.07 301.33 229.25 312.649 229.25 326.612V419.042C229.25 433.005 218.07 444.324 204.278 444.324H32.9723C19.1805 444.324 8.00002 433.005 8.00002 419.042V326.612C8.00002 312.649 19.1805 301.33 32.9723 301.33Z" fill="#DCD6F9"/>
<path d="M45.4009 354.391C37.1895 348.815 34.5178 337.687 39.5341 328.888C44.5503 320.088 55.4116 316.854 64.2773 321.27L45.39 354.391H45.4009Z" fill="#8C77EC"/>
<path d="M66.4958 322.559C74.7072 328.134 77.3789 339.263 72.3517 348.062C67.3355 356.861 56.4742 360.096 47.6085 355.68L66.4958 322.559Z" fill="#8C77EC"/>
<path d="M45.4009 423.086C37.1895 417.511 34.5178 406.382 39.5341 397.583C44.5503 388.784 55.4116 385.549 64.2773 389.965L45.39 423.086H45.4009Z" fill="#8C77EC"/>
<path d="M66.4958 391.264C74.7072 396.839 77.3789 407.968 72.3517 416.767C67.3355 425.566 56.4742 428.801 47.6085 424.385L66.4958 391.264Z" fill="#8C77EC"/>
<path d="M108.088 354.391C99.877 348.815 97.2053 337.687 102.222 328.888C107.238 320.088 118.099 316.854 126.965 321.27L108.078 354.391H108.088Z" fill="#8C77EC"/>
<path d="M129.172 322.559C137.383 328.134 140.055 339.263 135.028 348.062C130.011 356.861 119.15 360.096 110.284 355.68L129.172 322.559Z" fill="#8C77EC"/>
<path d="M108.088 423.086C99.877 417.511 97.2053 406.382 102.222 397.583C107.238 388.784 118.099 385.549 126.965 389.965L108.078 423.086H108.088Z" fill="#8C77EC"/>
<path d="M129.172 391.264C137.383 396.839 140.055 407.968 135.028 416.767C130.011 425.566 119.15 428.801 110.284 424.385L129.172 391.264Z" fill="#8C77EC"/>
<path d="M170.76 354.391C162.549 348.815 159.877 337.687 164.893 328.888C169.91 320.088 180.771 316.854 189.637 321.27L170.749 354.391H170.76Z" fill="#8C77EC"/>
<path d="M191.859 322.559C200.07 328.134 202.742 339.263 197.715 348.062C192.699 356.861 181.837 360.096 172.972 355.68L191.859 322.559Z" fill="#8C77EC"/>
<path d="M170.76 423.086C162.549 417.511 159.877 406.382 164.893 397.583C169.91 388.784 180.771 385.549 189.637 389.965L170.749 423.086H170.76Z" fill="#8C77EC"/>
<path d="M191.859 391.264C200.07 396.839 202.742 407.968 197.715 416.767C192.699 425.566 181.837 428.801 172.972 424.385L191.859 391.264Z" fill="#8C77EC"/>
<path d="M624.862 4.31836H590.797V48.533H624.862V4.31836Z" fill="#E3F1FF"/>
<path d="M640.235 102.877H573.691V107.644H640.235V102.877Z" fill="#E3F1FF"/>
<path d="M573.608 106.963H642.398C646.243 106.963 649.366 110.124 649.366 114.017V117.988H566.641V114.017C566.641 110.124 569.763 106.963 573.608 106.963Z" fill="white"/>
<path d="M673.629 117.629H538.36C525.217 117.629 514.562 128.416 514.562 141.721V417.7C514.562 431.006 525.217 441.793 538.36 441.793H673.629C686.772 441.793 697.426 431.006 697.426 417.7V141.721C697.426 128.416 686.772 117.629 673.629 117.629Z" fill="white"/>
<path d="M659.945 136.812H552.052C541.124 136.812 532.266 145.781 532.266 156.845V394.584C532.266 405.647 541.124 414.616 552.052 414.616H659.945C670.873 414.616 679.732 405.647 679.732 394.584V156.845C679.732 145.781 670.873 136.812 659.945 136.812Z" fill="#E3F1FF"/>
<path d="M589.436 45.4785H624.96C626.039 45.4785 626.915 46.3651 626.915 47.4573V51.1322H587.469V47.4573C587.469 46.3651 588.345 45.4785 589.423 45.4785H589.436Z" fill="white"/>
<path d="M581.734 6.53431C578.98 4.7097 578.599 -0.73844 585.465 0.0839195C592.331 0.919128 598.246 3.7717 610.328 3.20633C622.411 2.6538 639.735 0.944837 656.476 3.84879C672.391 6.61141 680.666 11.5327 679.841 17.9317C679.841 17.9317 637.908 8.34607 614.555 7.52371C591.418 6.7142 584.64 8.44886 581.734 6.5086V6.53431Z" fill="white"/>
<path d="M640.267 50.5566H574.472C571.661 50.5566 569.383 52.8635 569.383 55.7092V98.9088C569.383 101.755 571.661 104.061 574.472 104.061H640.267C643.077 104.061 645.356 101.755 645.356 98.9088V55.7092C645.356 52.8635 643.077 50.5566 640.267 50.5566Z" fill="#71B8FF"/>
<path d="M733.009 229.787C738.89 239.849 719.943 406.356 714.416 414.638C703.782 430.62 666.241 427.553 658.967 412.78C652.921 400.503 632.448 241.248 638.749 229.138C644.951 217.219 725.857 217.521 733.009 229.776V229.787Z" fill="#71B8FF"/>
<path d="M733.794 215.32C733.794 215.32 733.44 220.703 732.788 229.769L638.959 229.131C638.285 220.457 637.887 215.32 637.887 215.32H733.783H733.794Z" fill="#004699"/>
<path d="M660.434 415.139H714.202V434.265C714.202 438.417 710.874 441.786 706.773 441.786H667.873C663.772 441.786 660.445 438.417 660.445 434.265V415.139H660.434Z" fill="#E3F1FF"/>
<path d="M737.052 229.779H736.984" stroke="#231F20" stroke-width="0.346938" stroke-miterlimit="10"/>
<path d="M486.469 309.812H523.667V310.842C523.667 313.013 521.92 314.782 519.775 314.782H490.371C488.226 314.782 486.48 313.013 486.48 310.842V309.812H486.469Z" fill="#1E0707"/>
<path d="M535.139 346.672V433.72C535.139 438.163 531.569 441.778 527.169 441.778H482.974C478.574 441.778 475.004 438.163 475.004 433.72V346.672C475.269 330.769 483.494 328.352 487.108 324.95C489.054 323.137 488.866 316.981 488.689 314.385C489.198 314.631 489.772 314.776 490.369 314.776H519.785C520.393 314.776 520.946 314.631 521.454 314.385C521.288 316.981 521.1 323.137 523.046 324.95C526.661 328.341 534.885 330.769 535.128 346.672H535.139Z" fill="#1E0707"/>
<path d="M535.147 349.611V410.359C533.975 410.505 517.902 412.553 500.734 412.385C483.888 412.228 475.818 410.538 475 410.37V349.611H535.147Z" fill="#353535"/>
<path d="M518.204 285.046C516.844 285.046 515.739 283.927 515.739 282.55V267.99C515.739 262.07 511.229 256.91 505.392 256.731C499.345 256.552 494.382 261.454 494.382 267.542V282.561C494.382 283.938 493.277 285.057 491.917 285.057C488.424 285.057 485.594 287.922 485.594 291.459V310.238C485.594 310.395 485.715 310.518 485.87 310.518H524.262C524.416 310.518 524.538 310.395 524.538 310.238V291.459C524.538 287.922 521.708 285.057 518.215 285.057L518.204 285.046Z" fill="#353535"/>
</svg>
