<?xml version="1.0" encoding="UTF-8"?>
<svg version="1.1" xmlns="http://www.w3.org/2000/svg" width="616" height="347">
<path d="M0 0 C1.12535156 0.62390625 2.25070312 1.2478125 3.41015625 1.890625 C10.27019206 5.76563948 17.04737638 9.78375221 23.83032227 13.79174805 C30.60684971 17.78850861 37.42894721 21.70486584 44.25 25.625 C51.91037328 30.02890831 59.54133942 34.44540235 66.99609375 39.19140625 C70.60738713 41.36569602 74.29880713 43.36581759 78.00463867 45.3737793 C87.39698861 50.47300849 96.70597878 55.7242094 106 61 C106.99064453 61.56154785 107.98128906 62.1230957 109.00195312 62.70166016 C111.74025323 64.26406345 114.46577645 65.84643314 117.1875 67.4375 C117.99372803 67.89656738 118.79995605 68.35563477 119.63061523 68.82861328 C126.09595016 72.65854271 131.98159228 77.44920967 134 85 C134.88695182 92.4772101 134.46951294 98.82234137 130 105 C124.89051061 110.32141198 118.59702344 113.73601156 112.1875 117.25 C111.16994629 117.8164624 110.15239258 118.3829248 109.10400391 118.96655273 C106.07342015 120.65187266 103.03733571 122.32688702 100 124 C97.67541005 125.28758458 95.35190853 126.57711258 93.02856445 127.86694336 C91.58345574 128.66919904 90.13797545 129.47078572 88.69213867 130.27172852 C76.18733087 137.20897568 63.81028114 144.37318423 51.42919922 151.52807617 C39.17282624 158.6107637 26.8806483 165.62498313 14.54345703 172.56591797 C12.17016418 173.90405602 9.80104925 175.2492246 7.43359375 176.59765625 C4.20838962 178.43321418 0.97254741 180.24785998 -2.27587891 182.04199219 C-3.9558078 182.97544461 -5.62458222 183.92888331 -7.29296875 184.8828125 C-13.58001505 188.30921289 -18.80953187 190.52525082 -26 189 C-33.40416863 186.43076433 -38.60961195 182.87828836 -42.1082859 175.73821735 C-43.18487661 172.43229298 -43.2577257 169.66645437 -43.26742554 166.18852234 C-43.27195665 165.5161086 -43.27648776 164.84369486 -43.28115618 164.15090495 C-43.29378465 161.90481342 -43.29218085 159.65896484 -43.29052734 157.4128418 C-43.29651361 155.79948618 -43.30331938 154.18613342 -43.31088257 152.57278442 C-43.32854066 148.19456847 -43.33323789 143.81643071 -43.33451414 139.43818259 C-43.3359365 136.70114375 -43.34020772 133.96412475 -43.34550858 131.22709084 C-43.36400879 121.67359786 -43.37217927 112.12016068 -43.37060547 102.56665039 C-43.36940433 93.66943672 -43.3905012 84.77246573 -43.4220928 75.87531346 C-43.44826899 68.23012869 -43.45897219 60.58502311 -43.45769465 52.93979388 C-43.45718538 48.37655626 -43.46284928 43.8135343 -43.48405075 39.25034142 C-43.50345562 34.95663658 -43.50354238 30.66335264 -43.48901749 26.36963272 C-43.48693101 24.79751405 -43.49162071 23.22536887 -43.5037384 21.65329552 C-43.62418739 4.93882282 -43.62418739 4.93882282 -37.10546875 -2.0234375 C-23.71385203 -11.46029979 -13.25255529 -7.40045104 0 0 Z " fill="#4285F3" transform="translate(266,81)"/>
<path d="M0 0 C4.18932708 0.60293641 7.25594781 2.03664859 10.9375 4.09765625 C12.65259766 5.05381836 12.65259766 5.05381836 14.40234375 6.02929688 C15.29155518 6.5319104 15.29155518 6.5319104 16.19873047 7.04467773 C17.96313197 8.04166741 19.7328476 9.02856694 21.50390625 10.01367188 C27.44305804 13.33149858 33.32629402 16.73984471 39.14453125 20.265625 C40.18198486 20.8937207 41.21943848 21.52181641 42.28833008 22.16894531 C47.63865212 25.78174943 50.97247795 29.8723778 53 36 C53.88695182 43.4772101 53.46951294 49.82234137 49 56 C43.89051061 61.32141198 37.59702344 64.73601156 31.1875 68.25 C30.16994629 68.8164624 29.15239258 69.3829248 28.10400391 69.96655273 C25.07342015 71.65187266 22.03733571 73.32688702 19 75 C16.67541005 76.28758458 14.35190853 77.57711258 12.02856445 78.86694336 C10.58345574 79.66919904 9.13797545 80.47078572 7.69213867 81.27172852 C-4.81266913 88.20897568 -17.18971886 95.37318423 -29.57080078 102.52807617 C-41.82717376 109.6107637 -54.1193517 116.62498313 -66.45654297 123.56591797 C-68.82983582 124.90405602 -71.19895075 126.2492246 -73.56640625 127.59765625 C-76.79161038 129.43321418 -80.02745259 131.24785998 -83.27587891 133.04199219 C-84.9558078 133.97544461 -86.62458222 134.92888331 -88.29296875 135.8828125 C-94.58001505 139.30921289 -99.80953187 141.52525082 -107 140 C-113.49267417 137.74705157 -118.25738423 134.79501796 -122 129 C-122.86328125 126.609375 -122.86328125 126.609375 -123 124 C-121.4453125 121.640625 -121.4453125 121.640625 -119.125 119.25 C-118.29871094 118.38375 -117.47242188 117.5175 -116.62109375 116.625 C-113.4090706 113.40818993 -110.17201262 110.21747953 -106.9296875 107.03125 C-104.58918625 104.56756447 -102.86645615 101.83186451 -101 99 C-99.96464137 98.07293143 -98.90046589 97.17722761 -97.8125 96.3125 C-94.78480031 94.24098294 -94.78480031 94.24098294 -94 91 C-92.02691485 88.74504554 -90.24555876 87.14066777 -87.640625 85.6484375 C-84.83764574 83.89864867 -82.79621463 81.99398199 -80.5 79.625 C-79.72527344 78.83480469 -78.95054687 78.04460937 -78.15234375 77.23046875 C-76.89131563 75.92366828 -75.632463 74.61475037 -74.37890625 73.30078125 C-73.28519182 72.1681215 -72.1475896 71.07803872 -71 70 C-70.34 70 -69.68 70 -69 70 C-69 69.34 -69 68.68 -69 68 C-68.34 68 -67.68 68 -67 68 C-67 67.34 -67 66.68 -67 66 C-66.443125 65.773125 -65.88625 65.54625 -65.3125 65.3125 C-62.38490583 63.6508925 -60.33385464 61.38531308 -58 59 C-56.5847089 57.5819591 -55.16790271 56.16542954 -53.75 54.75 C-52.9765625 53.9765625 -52.203125 53.203125 -51.40625 52.40625 C-49.02083333 50.02083333 -46.63541667 47.63541667 -44.25 45.25 C-43.50999756 44.50911133 -42.76999512 43.76822266 -42.00756836 43.00488281 C-40.81934682 41.81825077 -39.62849792 40.63422402 -38.43188477 39.45605469 C-35.55225677 36.61797276 -33.02000262 33.62936622 -30.52734375 30.453125 C-28.72535456 28.7387005 -27.39142597 28.51316016 -25 28 C-23.99083967 26.23408113 -23.99083967 26.23408113 -23 24 C-19.90768896 20.07192921 -16.68831954 16.38926661 -13 13 C-12.34 13 -11.68 13 -11 13 C-10.67 12.01 -10.34 11.02 -10 10 C-9.071875 9.401875 -8.14375 8.80375 -7.1875 8.1875 C-3.5671566 5.70295061 -2.19800892 3.7197074 0 0 Z " fill="#E84235" transform="translate(347,130)"/>
<path d="M0 0 C1.12535156 0.62390625 2.25070312 1.2478125 3.41015625 1.890625 C10.27019206 5.76563948 17.04737638 9.78375221 23.83032227 13.79174805 C30.60684971 17.78850861 37.42894721 21.70486584 44.25 25.625 C52.01071817 30.08659606 59.71259739 34.59975369 67.296875 39.35546875 C71.06840453 41.64999755 74.94621495 43.72437035 78.85546875 45.7734375 C81 47 81 47 83 49 C81.66666667 50.33333333 80.33333333 51.66666667 79 53 C78.236875 53.78375 77.47375 54.5675 76.6875 55.375 C74.70638477 57.31004278 72.7518173 59.05680518 70.625 60.8125 C65.78111327 64.90711449 61.7360916 69.6852112 57.9375 74.75 C56 77 56 77 53.125 78.875 C49.81147235 81.1281988 47.74096879 83.48198617 45.296875 86.609375 C44.86890625 87.06828125 44.4409375 87.5271875 44 88 C43.34 88 42.68 88 42 88 C41.505 89.485 41.505 89.485 41 91 C40.34 91 39.68 91 39 91 C37.625 89.6015625 37.625 89.6015625 36 87.625 C33.07218692 84.18880097 30.04148881 80.90597594 26.875 77.6875 C26.06804687 76.86636719 25.26109375 76.04523438 24.4296875 75.19921875 C22.0702729 73.06360714 19.74668963 71.58375844 17 70 C14.1875 67.4375 14.1875 67.4375 12 65 C12 64.34 12 63.68 12 63 C11.40832031 62.74605469 10.81664062 62.49210937 10.20703125 62.23046875 C7.7569027 60.86446788 6.4640418 59.47063789 4.6875 57.3125 C1.31394347 53.32491284 -2.27255085 49.65355698 -6 46 C-8.74656402 43.27205675 -11.46675425 40.52229472 -14.15625 37.73828125 C-15.27073686 36.59626001 -16.38532153 35.45433421 -17.5 34.3125 C-18.05558594 33.73177734 -18.61117187 33.15105469 -19.18359375 32.55273438 C-22.33004022 29.35076238 -24.72485011 27.54340157 -29 26 C-30.7734375 24.3359375 -30.7734375 24.3359375 -32.375 22.375 C-34.21222491 20.13220667 -36.01505408 17.98505932 -38.07421875 15.94140625 C-39.96612756 14.03462978 -41.58802332 12.28583846 -43 10 C-42.67088248 5.227796 -40.76246199 1.90719075 -37.55859375 -1.6484375 C-25.31392724 -12.26661949 -12.52018802 -6.99148477 0 0 Z " fill="#35A753" transform="translate(266,81)"/>
<path d="M0 0 C4.18932708 0.60293641 7.25594781 2.03664859 10.9375 4.09765625 C12.08089844 4.73509766 13.22429687 5.37253906 14.40234375 6.02929688 C14.99515137 6.36437256 15.58795898 6.69944824 16.19873047 7.04467773 C17.96313197 8.04166741 19.7328476 9.02856694 21.50390625 10.01367188 C27.44305804 13.33149858 33.32629402 16.73984471 39.14453125 20.265625 C40.18198486 20.8937207 41.21943848 21.52181641 42.28833008 22.16894531 C47.63865212 25.78174943 50.97247795 29.8723778 53 36 C53.88701908 43.4777771 53.46898569 49.82164145 49 56 C43.86377071 61.35808687 37.51217304 64.78146258 31.0625 68.3125 C29.01537402 69.44485889 26.96850038 70.57767408 24.921875 71.7109375 C23.91962891 72.26362305 22.91738281 72.81630859 21.88476562 73.38574219 C19.25684648 74.85627379 16.66275568 76.36906579 14.078125 77.9140625 C12.98552368 78.55927856 12.98552368 78.55927856 11.87084961 79.2175293 C10.53109229 80.01159493 9.19809654 80.81721882 7.87329102 81.63598633 C3.60399707 84.13285703 3.60399707 84.13285703 0.88671875 83.53515625 C-1.02455635 81.98001937 -2.72680965 80.28704308 -4.46116638 78.54005432 C-6.19557407 76.80427079 -7.94860994 75.08871311 -9.70458984 73.37475586 C-13.4677176 69.70047396 -17.21565297 66.01109868 -20.95849609 62.31616211 C-22.57585578 60.72412983 -24.19764714 59.13658781 -25.82373047 57.5534668 C-28.17287725 55.26469418 -30.50574222 52.96038769 -32.8359375 50.65234375 C-33.56912201 49.94496567 -34.30230652 49.23758759 -35.05770874 48.5087738 C-35.72235138 47.84450882 -36.38699402 47.18024384 -37.07177734 46.49584961 C-37.66292328 45.91580673 -38.25406921 45.33576385 -38.86312866 44.73814392 C-40 43 -40 43 -39.82363892 40.8986969 C-38.59980706 38.07745362 -36.41569765 36.86667546 -34 35 C-33.12389572 33.95551532 -32.26982114 32.89219832 -31.4375 31.8125 C-28.92604787 28.91467062 -28.46218877 28.71631492 -25 28 C-23.99083967 26.23408113 -23.99083967 26.23408113 -23 24 C-19.90768896 20.07192921 -16.68831954 16.38926661 -13 13 C-12.34 13 -11.68 13 -11 13 C-10.67 12.01 -10.34 11.02 -10 10 C-9.071875 9.401875 -8.14375 8.80375 -7.1875 8.1875 C-3.5671566 5.70295061 -2.19800892 3.7197074 0 0 Z " fill="#F9BC04" transform="translate(347,130)"/>
<path d="M0 0 C6.05174197 0.26896631 10.24566965 0.90906459 15 5 C18.66334696 9.85145948 20.12363831 13.30613041 20.13142776 19.33432484 C20.13526891 20.44780098 20.13911005 21.56127712 20.1430676 22.70849496 C20.14220112 23.93687622 20.14133463 25.16525749 20.14044189 26.43086243 C20.14341302 27.73184551 20.14638414 29.03282859 20.1494453 30.3732354 C20.15752412 33.99197966 20.15930536 37.6107041 20.16004276 41.22945631 C20.16189178 45.12935569 20.16943833 49.02924475 20.17617798 52.92913818 C20.18976791 61.46008164 20.195787 69.99102041 20.20018864 78.52197289 C20.20294984 83.8470032 20.20718696 89.17203169 20.21169281 94.49706078 C20.22388615 109.23564827 20.23418546 123.9742343 20.2375679 138.71282673 C20.23789725 140.12815661 20.23789725 140.12815661 20.23823325 141.57207901 C20.23856067 142.99082604 20.23856067 142.99082604 20.2388947 144.43823463 C20.23933817 146.35490056 20.23978473 148.27156649 20.24023438 150.18823242 C20.2404558 151.13896817 20.24067723 152.08970391 20.24090537 153.06924983 C20.24485422 168.47799337 20.2623106 183.88668963 20.2855939 199.2954149 C20.30929633 215.10893427 20.32176924 230.92242991 20.32293582 246.73596734 C20.32385318 255.61727642 20.32962096 264.49852392 20.34775543 273.37981606 C20.36314145 280.94179826 20.36828575 288.50369985 20.36001733 296.06569473 C20.35610554 299.92465242 20.35706607 303.78344768 20.37107468 307.64238548 C20.38611756 311.82443707 20.37796284 316.00612124 20.36749268 320.18818665 C20.37554908 321.40987574 20.38360548 322.63156484 20.39190602 323.89027482 C20.34829331 331.31122535 19.6525944 335.91725515 14.6875 341.6875 C8.36450745 347.12821452 3.13665358 347.39919003 -4.875 347.1875 C-5.84953125 347.17396484 -6.8240625 347.16042969 -7.828125 347.14648438 C-10.21932863 347.11131962 -12.60936975 347.0621067 -15 347 C-15 346.67 -15 346.34 -15 346 C-13.865625 345.96261719 -12.73125 345.92523438 -11.5625 345.88671875 C1.42497733 345.56502962 1.42497733 345.56502962 12.8125 339.8125 C18.48453235 332.51988698 18.43126341 325.16637498 18.38095093 316.28503418 C18.3856309 315.01385852 18.39031087 313.74268287 18.39513266 312.43298674 C18.40761451 308.92053537 18.40148526 305.40832966 18.39217401 301.8958776 C18.38537224 298.10167542 18.39587032 294.30751479 18.40411377 290.51332092 C18.41744129 283.08678702 18.41457775 275.66034417 18.40587585 268.23380673 C18.39909585 262.19715893 18.39818395 256.16053662 18.4014473 250.12388611 C18.401907 249.26414247 18.40236669 248.40439882 18.40284032 247.51860234 C18.40379952 245.77195346 18.40477216 244.02530458 18.4057581 242.27865571 C18.41430912 225.90709846 18.40448238 209.53559163 18.388357 193.16404265 C18.37495408 179.12186907 18.37728225 165.07976989 18.39111328 151.03759766 C18.40717418 134.72391742 18.41348517 118.41028137 18.40427649 102.09659433 C18.40332086 100.35643419 18.40237775 98.61627405 18.4014473 96.87611389 C18.40098447 96.0199612 18.40052164 95.1638085 18.40004479 94.28171179 C18.39745643 88.25354718 18.40182258 82.22541063 18.40888596 76.19725037 C18.41730681 68.84916466 18.41500851 61.50117509 18.39904372 54.15310037 C18.39116888 50.40525675 18.38805592 46.65757329 18.39799118 42.90973091 C18.40860425 38.84467026 18.39591684 34.78001271 18.38095093 30.71496582 C18.38764309 29.53364059 18.39433526 28.35231536 18.40123022 27.13519239 C18.34644796 19.47214019 17.6628486 13.55046479 12.9375 7.25 C8.95950539 4.20302541 4.70552805 2.63551363 0 1 C0 0.67 0 0.34 0 0 Z " fill="#A8A6A7" transform="translate(596,0)"/>
<path d="M0 0 C-1 2 -1 2 -4.75 3.3125 C-10.02327011 5.20861322 -12.86121942 7.96777462 -15.61248875 12.87758732 C-17.8238238 18.27742764 -17.41654479 23.96494379 -17.38768005 29.70860291 C-17.39306559 30.99117479 -17.39845113 32.27374668 -17.40399987 33.59518439 C-17.41843446 37.14409151 -17.41421607 40.692766 -17.40683305 44.24168575 C-17.40209875 48.07340279 -17.41461352 51.9050697 -17.42485046 55.73677063 C-17.4420385 63.23896804 -17.4428785 70.7410817 -17.43763756 78.2432937 C-17.43359475 84.34146533 -17.43504074 90.43961222 -17.44038582 96.53778267 C-17.44113424 97.40598789 -17.44188266 98.2741931 -17.44265376 99.16870757 C-17.44418525 100.93250899 -17.4457236 102.6963104 -17.44726873 104.4601118 C-17.46099371 120.99714308 -17.45555603 137.53412703 -17.44408352 154.07115722 C-17.43415043 169.19702664 -17.44709311 184.32277375 -17.47101771 199.44862431 C-17.49540521 214.98430776 -17.50501749 230.51993425 -17.49836498 246.05563647 C-17.49487208 254.7759927 -17.49710958 263.49625485 -17.51461601 272.2165966 C-17.52933359 279.63975083 -17.52997925 287.06274473 -17.5125451 294.48589581 C-17.50402914 298.27225919 -17.50189987 302.05833611 -17.51719666 305.8446846 C-17.53358255 309.9514934 -17.51890509 314.05761025 -17.50120544 318.16441345 C-17.51081045 319.35809365 -17.52041546 320.55177384 -17.53031152 321.78162616 C-17.46928155 328.65552033 -16.69572444 333.1523529 -13 339 C-11.11721689 340.87935799 -11.11721689 340.87935799 -9 341.9375 C-8.34 342.31777344 -7.68 342.69804687 -7 343.08984375 C-2.83253266 344.98636697 1.20300454 345.24421032 5.75 345.5625 C6.92046875 345.64628906 8.0909375 345.73007812 9.296875 345.81640625 C10.18890625 345.87699219 11.0809375 345.93757813 12 346 C12 346.33 12 346.66 12 347 C9.29105233 347.08144943 6.58458737 347.14070614 3.875 347.1875 C2.73417969 347.22520508 2.73417969 347.22520508 1.5703125 347.26367188 C-4.77929102 347.34577882 -8.78709977 345.90412345 -13.6875 341.6875 C-19.55781483 334.86524222 -19.42842443 328.86038852 -19.38095093 320.20837402 C-19.3856309 318.90482767 -19.39031087 317.60128131 -19.39513266 316.25823355 C-19.40764877 312.64619225 -19.4014696 309.03438895 -19.39217401 305.42234683 C-19.38538633 301.52453425 -19.39586334 297.62676258 -19.40411377 293.72895813 C-19.41745631 286.09560887 -19.41457105 278.46234808 -19.40587585 270.82899535 C-19.39910176 264.62542534 -19.39818139 258.42188014 -19.4014473 252.2183075 C-19.401907 251.33551254 -19.40236669 250.45271758 -19.40284032 249.54317126 C-19.4037995 247.74981184 -19.40477214 245.95645243 -19.4057581 244.16309303 C-19.41431352 227.3452339 -19.40447548 210.52742382 -19.388357 193.70957273 C-19.37495368 179.27787418 -19.37728173 164.84624802 -19.39111328 150.41455078 C-19.40716641 133.65702895 -19.41348953 116.89955011 -19.40427649 100.14202166 C-19.40332084 98.35524528 -19.40237773 96.5684689 -19.4014473 94.7816925 C-19.40098447 93.90255553 -19.40052164 93.02341855 -19.40004479 92.11764106 C-19.3974541 85.92124627 -19.4018276 79.72487873 -19.40888596 73.52848816 C-19.41729818 65.9775459 -19.41502667 58.42669721 -19.39904372 50.87576568 C-19.39115725 47.02287132 -19.38807576 43.17013298 -19.39799118 39.31723976 C-19.40857394 35.14189921 -19.39594112 30.96695292 -19.38095093 26.79162598 C-19.38764309 25.57198324 -19.39433526 24.3523405 -19.40123022 23.09573889 C-19.34942973 15.68346456 -18.64673508 11.07593536 -13.6875 5.3125 C-9.40234709 1.6252754 -5.74483723 -0.5068974 0 0 Z " fill="#9B9899" transform="translate(19,0)"/>
<path d="M0 0 C0.33 0 0.66 0 1 0 C1 52.47 1 104.94 1 159 C3.64 156.69 6.28 154.38 9 152 C10.98 151.01 10.98 151.01 13 150 C12.43732422 150.65355469 12.43732422 150.65355469 11.86328125 151.3203125 C11.35152344 151.91585937 10.83976563 152.51140625 10.3125 153.125 C9.76722656 153.75792969 9.22195312 154.39085937 8.66015625 155.04296875 C7.1557467 156.81640213 5.70207646 158.62132079 4.25 160.4375 C3.5075 161.283125 2.765 162.12875 2 163 C1.34 163 0.68 163 0 163 C0 109.21 0 55.42 0 0 Z " fill="#527ECB" transform="translate(223,91)"/>
<path d="M0 0 C6.05174197 0.26896631 10.24566965 0.90906459 15 5 C19.4989073 10.95801237 20.14503808 15.32047938 20.11352539 22.60229492 C20.11367142 23.48055435 20.11381744 24.35881378 20.1139679 25.26368713 C20.11327072 28.16930605 20.10548739 31.07486102 20.09765625 33.98046875 C20.09579138 35.99400294 20.0943678 38.00753758 20.09336853 40.02107239 C20.08954879 45.32291922 20.07972312 50.62473869 20.06866455 55.92657471 C20.05843877 61.33581167 20.0538684 66.74505304 20.04882812 72.15429688 C20.03810039 82.76954327 20.02103046 93.38476936 20 104 C19.67 104 19.34 104 19 104 C18.99120064 102.41052551 18.99120064 102.41052551 18.98222351 100.78894043 C18.92491672 90.78430655 18.85211352 80.77988838 18.76428509 70.77547455 C18.71962967 65.63255898 18.68036285 60.48972176 18.65356445 55.34667969 C18.62748339 50.37984669 18.5870469 45.41331592 18.53681374 40.44667053 C18.5201775 38.55538198 18.50864308 36.66404119 18.50238609 34.77268982 C18.49270965 32.11571858 18.46460849 29.45951491 18.43237305 26.80273438 C18.43452568 25.63963242 18.43452568 25.63963242 18.4367218 24.45303345 C18.32577253 17.95247553 16.91342155 12.55122873 12.9375 7.25 C8.95950539 4.20302541 4.70552805 2.63551363 0 1 C0 0.67 0 0.34 0 0 Z " fill="#B3B2B4" transform="translate(596,0)"/>
<path d="M0 0 C-1 2 -1 2 -4.75 3.3125 C-10.11810321 5.24271242 -12.97979683 8.0206455 -15.60969543 13.12306213 C-17.34532053 17.34397391 -17.44059661 21.26349779 -17.43237305 25.78100586 C-17.4425647 26.63058868 -17.45275635 27.48017151 -17.46325684 28.35549927 C-17.49326438 31.14201558 -17.50263396 33.92818743 -17.51171875 36.71484375 C-17.52857452 38.6554121 -17.54672597 40.5959696 -17.56611633 42.53651428 C-17.61352487 47.62782396 -17.64339339 52.7190896 -17.66955566 57.81054688 C-17.69940736 63.01245824 -17.74592186 68.21421801 -17.79101562 73.41601562 C-17.87694469 83.61059764 -17.9443362 93.80521094 -18 104 C-18.33 104 -18.66 104 -19 104 C-19.06954118 92.36912019 -19.1228323 80.73828994 -19.15543652 69.10724449 C-19.17108569 63.70634996 -19.19231052 58.30559777 -19.22631836 52.90478516 C-19.25893817 47.69172391 -19.27685864 42.47879951 -19.28463173 37.26564407 C-19.2901705 35.27774527 -19.30098638 33.28985387 -19.31719017 31.3020134 C-19.33899914 28.51546858 -19.34196546 25.72948767 -19.34057617 22.94287109 C-19.351362 22.12287628 -19.36214783 21.30288147 -19.3732605 20.45803833 C-19.339491 14.18952844 -17.85072162 10.15083864 -13.6875 5.3125 C-9.40234709 1.6252754 -5.74483723 -0.5068974 0 0 Z " fill="#ABA8A8" transform="translate(19,0)"/>
<path d="M0 0 C9.16908301 -0.14788844 16.20855909 3.6491276 24 8 C25.12535156 8.62390625 26.25070312 9.2478125 27.41015625 9.890625 C30.95942159 11.8954913 34.48455742 13.93662796 38 16 C38.64807617 16.38027344 39.29615234 16.76054688 39.96386719 17.15234375 C42.74302168 18.78477922 45.5218335 20.41763663 48.29394531 22.06201172 C52.27089006 24.41694791 56.27000379 26.72175737 60.3046875 28.9765625 C61.1810083 29.47051514 62.0573291 29.96446777 62.96020508 30.47338867 C64.67101483 31.43592982 66.38690273 32.3895102 68.1081543 33.33325195 C68.87812744 33.76855225 69.64810059 34.20385254 70.44140625 34.65234375 C71.12920166 35.03382568 71.81699707 35.41530762 72.52563477 35.80834961 C73.01217529 36.20159424 73.49871582 36.59483887 74 37 C74 37.99 74 38.98 74 40 C73.20078125 39.49210937 72.4015625 38.98421875 71.578125 38.4609375 C66.06552988 35.00586028 60.61272546 31.71570203 54.75 28.875 C50.39932385 26.7648937 46.52043793 24.39964858 42.55859375 21.64453125 C38.02864848 18.73291758 33.22440937 16.32058103 28.453125 13.83203125 C25.57042275 12.30263379 22.77890274 10.70751855 20 9 C14.80561389 5.76658879 14.80561389 5.76658879 9 4 C9 3.34 9 2.68 9 2 C6.36 2 3.72 2 1 2 C0.67 1.34 0.34 0.68 0 0 Z " fill="#4F9F67" transform="translate(242,73)"/>
<path d="M0 0 C0.99 0.66 1.98 1.32 3 2 C1.66666667 3.33333333 0.33333333 4.66666667 -1 6 C-1.763125 6.78375 -2.52625 7.5675 -3.3125 8.375 C-5.29361523 10.31004278 -7.2481827 12.05680518 -9.375 13.8125 C-14.22983292 17.91636748 -18.30917426 22.69432854 -22.0625 27.8125 C-24.40461915 30.45682807 -26.78195796 31.61039094 -30 33 C-30 31.68 -30 30.36 -30 29 C-29.01 29 -28.02 29 -27 29 C-27 28.34 -27 27.68 -27 27 C-26.34 27 -25.68 27 -25 27 C-25.23589844 26.41734375 -25.47179687 25.8346875 -25.71484375 25.234375 C-26 23 -26 23 -24.56640625 21.078125 C-23.90511719 20.47484375 -23.24382812 19.8715625 -22.5625 19.25 C-21.57443359 18.32960937 -21.57443359 18.32960937 -20.56640625 17.390625 C-20.04949219 16.93171875 -19.53257812 16.4728125 -19 16 C-18.01 16.66 -17.02 17.32 -16 18 C-15.34 16.35 -14.68 14.7 -14 13 C-13.01 13 -12.02 13 -11 13 C-11 12.34 -11 11.68 -11 11 C-9.02 10.34 -7.04 9.68 -5 9 C-5 7.68 -5 6.36 -5 5 C-4.01 4.67 -3.02 4.34 -2 4 C-0.79117904 1.99983534 -0.79117904 1.99983534 0 0 Z " fill="#41A74B" transform="translate(346,128)"/>
<path d="M0 0 C6.95060018 2.99594836 11.78213634 6.41236421 15.140625 13.359375 C17.14552543 19.51988722 17.05333548 26.6174102 14.25 32.5 C12.54329125 35.42578644 10.58523098 37.78408773 8 40 C7.34 39.67 6.68 39.34 6 39 C6.33 38.34 6.66 37.68 7 37 C7.66 37 8.32 37 9 37 C9.12375 35.72125 9.2475 34.4425 9.375 33.125 C9.75 29.25 9.75 29.25 12 27 C13.98838348 22.04353294 13.98838348 22.04353294 13.26953125 16.98828125 C12.27114994 15.26904701 11.14009904 13.62871292 10 12 C9.67 11.34 9.34 10.68 9 10 C9.33 9.34 9.66 8.68 10 8 C8.68 8 7.36 8 6 8 C5.67 7.01 5.34 6.02 5 5 C3.34051852 3.98812105 1.67419438 2.9873454 0 2 C0 1.34 0 0.68 0 0 Z " fill="#EEC037" transform="translate(384,150)"/>
<path d="M0 0 C4.01446298 1.33815433 5.00031924 3.57970773 7.3046875 6.9921875 C8.90877335 9.12070652 8.90877335 9.12070652 11.31298828 10.3425293 C14.21278732 12.13125687 16.30661298 14.09505122 18.6875 16.52734375 C19.55117187 17.40197266 20.41484375 18.27660156 21.3046875 19.17773438 C22.19414062 20.08845703 23.08359375 20.99917969 24 21.9375 C25.76848586 23.74058667 27.53924576 25.54144635 29.3125 27.33984375 C30.09238281 28.13769287 30.87226563 28.93554199 31.67578125 29.75756836 C34.00742679 32.00716545 36.46824243 33.98210611 39 36 C40.8125 38.25 40.8125 38.25 42 40 C41.505 40.99 41.505 40.99 41 42 C40.34 41.154375 39.68 40.30875 39 39.4375 C36.33792263 36.23702496 33.35410419 33.62254476 30.18359375 30.9375 C26.9962164 28.10934407 24.09544777 25.01911363 21.17578125 21.91796875 C18.85256531 19.87003513 16.85254235 19.12732474 14 18 C12.2265625 16.3359375 12.2265625 16.3359375 10.625 14.375 C9.74521484 13.31539062 9.74521484 13.31539062 8.84765625 12.234375 C8.23792969 11.49703125 7.62820312 10.7596875 7 10 C5.10097902 7.8825731 3.19526929 5.77148392 1.28515625 3.6640625 C0 2 0 2 0 0 Z " fill="#3B9799" transform="translate(223,89)"/>
<path d="M0 0 C4.15358254 3.43469325 7.78875342 6.63270466 11 11 C7.0060348 15.90687153 2.6959047 20.44270563 -1.75 24.9375 C-2.32903076 25.52942139 -2.90806152 26.12134277 -3.50463867 26.73120117 C-4.96410929 28.19409125 -6.47812494 29.60214515 -8 31 C-8.66 31 -9.32 31 -10 31 C-10.66 32.32 -11.32 33.64 -12 35 C-12 32 -12 32 -9.859375 29.65625 C-8.91578125 28.7796875 -7.9721875 27.903125 -7 27 C-5.07760626 25.17215021 -3.16136289 23.33923599 -1.25 21.5 C-0.75628906 21.03980469 -0.26257813 20.57960937 0.24609375 20.10546875 C3.2210132 17.21205394 4.66707722 15.17666763 5 11 C5.99 10.67 6.98 10.34 8 10 C7.34 9.34 6.68 8.68 6 8 C3.39719432 8.32041397 3.39719432 8.32041397 1 9 C0.67 6.03 0.34 3.06 0 0 Z " fill="#6B78B2" transform="translate(295,161)"/>
<path d="M0 0 C0.66 0.33 1.32 0.66 2 1 C1.30132812 1.69480469 0.60265625 2.38960937 -0.1171875 3.10546875 C-2.10203015 5.08821326 -4.06099378 7.09322208 -6.0078125 9.11328125 C-7.04680615 10.17975458 -8.08586933 11.24616017 -9.125 12.3125 C-9.64964844 12.86228516 -10.17429687 13.41207031 -10.71484375 13.97851562 C-12.0868941 15.37661756 -13.53901915 16.69510685 -15 18 C-15.99 18 -16.98 18 -18 18 C-18.2475 18.74121094 -18.495 19.48242188 -18.75 20.24609375 C-20.11923099 23.26268078 -21.58174865 24.82650657 -24 27.0625 C-26.69249204 29.56196412 -28.54863764 31.60592864 -30 35 C-30.99 35 -31.98 35 -33 35 C-31.43586569 31.16076124 -28.90063768 28.90063768 -26 26 C-24.98812105 24.34051852 -23.9873454 22.67419438 -23 21 C-21.00089158 18.73434379 -19.27484915 17.15705666 -16.6484375 15.65625 C-13.84378769 13.9023097 -11.79869003 11.99653584 -9.5 9.625 C-8.34177734 8.43970703 -8.34177734 8.43970703 -7.16015625 7.23046875 C-6.44730469 6.49441406 -5.73445313 5.75835937 -5 5 C-3.98152152 3.97681723 -2.96124582 2.95541251 -1.9375 1.9375 C-0.9784375 0.9784375 -0.9784375 0.9784375 0 0 Z " fill="#8968A4" transform="translate(276,200)"/>
<path d="M0 0 C0.33 0 0.66 0 1 0 C1.44301969 7.38366148 0.66822205 11.89909329 -4.3125 17.6875 C-10.63549255 23.12821452 -15.86334642 23.39919003 -23.875 23.1875 C-24.84953125 23.17396484 -25.8240625 23.16042969 -26.828125 23.14648438 C-29.21932863 23.11131962 -31.60936975 23.0621067 -34 23 C-34 22.67 -34 22.34 -34 22 C-32.865625 21.96261719 -31.73125 21.92523438 -30.5625 21.88671875 C-17.57502267 21.56502962 -17.57502267 21.56502962 -6.1875 15.8125 C-2.52947088 11.10931971 -0.91584118 5.86138353 0 0 Z " fill="#C8CACD" transform="translate(615,324)"/>
<path d="M0 0 C0.66 0 1.32 0 2 0 C1.52570343 4.26866909 -1.03521178 6.10933148 -4 9 C-4.33 9.99 -4.66 10.98 -5 12 C-6.65 12.33 -8.3 12.66 -10 13 C-10 13.66 -10 14.32 -10 15 C-11.64453125 16.62109375 -11.64453125 16.62109375 -13.8125 18.4375 C-16.31102718 20.54463676 -18.7242056 22.65241398 -21 25 C-21.66 24.67 -22.32 24.34 -23 24 C-13 14 -13 14 -10.23046875 11.35546875 C-7.80858605 9.1302198 -7.80858605 9.1302198 -7 6 C-6.34 6 -5.68 6 -5 6 C-5 5.34 -5 4.68 -5 4 C-4.360625 3.71125 -3.72125 3.4225 -3.0625 3.125 C-0.84793921 2.17176549 -0.84793921 2.17176549 0 0 Z " fill="#D24A4C" transform="translate(285,192)"/>
<path d="M0 0 C0 0.66 0 1.32 0 2 C0.66 2.33 1.32 2.66 2 3 C1.38125 3.2475 0.7625 3.495 0.125 3.75 C-2.1073502 4.80372274 -2.1073502 4.80372274 -2.90625 6.8125 C-4.17037081 9.34074162 -5.73684268 11.15204742 -7.625 13.25 C-8.25664062 13.95640625 -8.88828125 14.6628125 -9.5390625 15.390625 C-10.02117187 15.92171875 -10.50328125 16.4528125 -11 17 C-11 12.61031544 -8.87194899 11.23094261 -6 8 C-6.66 8 -7.32 8 -8 8 C-7.63487253 5.2980567 -7.30130763 3.41609148 -5.6875 1.1875 C-4 0 -4 0 0 0 Z " fill="#547FDF" transform="translate(248,224)"/>
<path d="M0 0 C0.66 0 1.32 0 2 0 C2.495 1.216875 2.99 2.43375 3.5 3.6875 C5.88539015 8.4923573 9.18276367 10.80778112 14 13 C17.51910288 14.14295649 21.07273572 14.3050915 24.75 14.5625 C25.92046875 14.64628906 27.0909375 14.73007812 28.296875 14.81640625 C29.18890625 14.87699219 30.0809375 14.93757813 31 15 C31 15.33 31 15.66 31 16 C28.29105233 16.08144943 25.58458737 16.14070614 22.875 16.1875 C22.11445313 16.21263672 21.35390625 16.23777344 20.5703125 16.26367188 C14.22070898 16.34577882 10.21290023 14.90412345 5.3125 10.6875 C2.63149524 7.57173772 0 4.26327183 0 0 Z " fill="#C0C7C8" transform="translate(0,331)"/>
<path d="M0 0 C0.33 0.66 0.66 1.32 1 2 C0.67 2.99 0.34 3.98 0 5 C-0.99 5 -1.98 5 -3 5 C-3 5.66 -3 6.32 -3 7 C-3.66 7 -4.32 7 -5 7 C-5.226875 7.556875 -5.45375 8.11375 -5.6875 8.6875 C-7 11 -7 11 -9.5 13.4375 C-11.9518394 15.95063538 -12.96160131 17.69600416 -14 21 C-14.99 20.34 -15.98 19.68 -17 19 C-16.67651262 15.98078447 -16.12918552 15.1076546 -13.75 13.125 C-12.8425 12.42375 -11.935 11.7225 -11 11 C-10.12389572 9.95551532 -9.26982114 8.89219832 -8.4375 7.8125 C-5.92604787 4.91467062 -5.46218877 4.71631492 -2 4 C-0.71563266 2.0162233 -0.71563266 2.0162233 0 0 Z " fill="#DCBC1B" transform="translate(324,154)"/>
<path d="M0 0 C3.15703606 1.42598708 5.58028568 3.1629134 8.1875 5.4375 C9.22970703 6.33275391 9.22970703 6.33275391 10.29296875 7.24609375 C12 9 12 9 13 12 C13.928125 12.433125 13.928125 12.433125 14.875 12.875 C17.70650257 14.37403077 18.50462626 16.21316711 20 19 C20.66 19.99 21.32 20.98 22 22 C18.18063472 20.44396229 15.73955562 18.04395069 13 15 C13 14.34 13 13.68 13 13 C12.41476562 12.75121094 11.82953125 12.50242188 11.2265625 12.24609375 C8.68834301 10.82558144 7.24802874 9.2779547 5.375 7.0625 C4.78460938 6.37285156 4.19421875 5.68320313 3.5859375 4.97265625 C2 3 2 3 0 0 Z " fill="#3A9896" transform="translate(265,131)"/>
<path d="M0 0 C6.05174197 0.26896631 10.24566965 0.90906459 15 5 C18.887221 9.62264119 19.59718229 13.15914326 20 19 C18 18 18 18 16.6875 14.25 C14.83414171 9.16234979 12.47856356 6.15945075 7.453125 3.80859375 C4.98660859 2.80874882 2.51365553 1.87367833 0 1 C0 0.67 0 0.34 0 0 Z " fill="#C9CBCD" transform="translate(596,0)"/>
<path d="M0 0 C-1 2 -1 2 -4.75 3.3125 C-10.59200943 5.41979626 -13.54176193 8.84825698 -16.3125 14.3125 C-16.88513101 15.53697975 -17.45128243 16.7646191 -18 18 C-18.95787834 14.94922309 -19.07626949 14.19914811 -17.875 11.0625 C-13.78984443 4.39007923 -8.22938623 -0.72612231 0 0 Z " fill="#C6C9CB" transform="translate(19,0)"/>
<path d="M0 0 C0 3.22981983 -0.81530252 5.03825629 -2 8 C-2 11.13751221 -1.64820195 12.39757586 0 15 C0.99 15.33 1.98 15.66 3 16 C4.1875 18.0625 4.1875 18.0625 5 20 C0.12060824 18.60588807 -2.10832229 16.09654343 -5 12 C-6.1875 9.5625 -6.1875 9.5625 -6 7 C-4.22819386 4.43356565 -2.19590941 2.20863932 0 0 Z " fill="#D14A47" transform="translate(230,247)"/>
<path d="M0 0 C3.79049707 1.42749981 7.27122456 3.16236542 10.8125 5.125 C12.27623047 5.93324219 12.27623047 5.93324219 13.76953125 6.7578125 C14.50558594 7.16773438 15.24164063 7.57765625 16 8 C16 8.33 16 8.66 16 9 C13.69 9 11.38 9 9 9 C9 8.34 9 7.68 9 7 C8.01 7 7.02 7 6 7 C6 6.34 6 5.68 6 5 C4.35 5 2.7 5 1 5 C0.67 3.35 0.34 1.7 0 0 Z " fill="#F1BF29" transform="translate(368,141)"/>
<path d="M0 0 C5.10454793 0.5537478 8.96575557 3.02592796 13.3125 5.5625 C14.05306641 5.98724609 14.79363281 6.41199219 15.55664062 6.84960938 C17.37468118 7.89351653 19.18783748 8.94592192 21 10 C19.02 10.99 19.02 10.99 17 12 C16.67 11.34 16.34 10.68 16 10 C15.38125 9.855625 14.7625 9.71125 14.125 9.5625 C11.5641099 8.88461733 10.8158779 7.88851302 9 6 C5.50743487 3.51844057 3.29206125 2.63210904 -1 3 C-0.67 2.01 -0.34 1.02 0 0 Z " fill="#E7BF33" transform="translate(347,130)"/>
<path d="M0 0 C2.475 0.495 2.475 0.495 5 1 C1.95590654 4.04409346 -0.75237911 4.15617309 -4.875 4.1875 C-8.68003233 4.15968544 -11.58143244 3.82323603 -15 2 C-15 1.67 -15 1.34 -15 1 C-10.05 1.33 -5.1 1.66 0 2 C0 1.34 0 0.68 0 0 Z " fill="#D24942" transform="translate(250,266)"/>
<path d="M0 0 C4.22540801 0 6.25050693 0.06477777 10 2 C8.71186658 2.83878455 7.41936744 3.67086783 6.125 4.5 C5.40570313 4.9640625 4.68640625 5.428125 3.9453125 5.90625 C2 7 2 7 0 7 C0 4.69 0 2.38 0 0 Z " fill="#DE4940" transform="translate(315,226)"/>
<path d="M0 0 C5.29220165 4.41016804 10.17575236 9.08623024 15 14 C16.33217037 15.33449528 17.66518765 16.66814732 19 18 C11.29365155 15.8325895 4.48032149 8.43197668 0 2 C0 1.34 0 0.68 0 0 Z " fill="#E45F1E" transform="translate(326,192)"/>
<path d="M0 0 C1.65 0.33 3.3 0.66 5 1 C-5.10526316 9 -5.10526316 9 -9 9 C-9 8.34 -9 7.68 -9 7 C-8.34 7 -7.68 7 -7 7 C-7 6.34 -7 5.68 -7 5 C-6.01 5 -5.02 5 -4 5 C-3.67 4.01 -3.34 3.02 -3 2 C-2.01 2 -1.02 2 0 2 C0 1.34 0 0.68 0 0 Z " fill="#EABC28" transform="translate(363,202)"/>
<path d="M0 0 C0.33 0 0.66 0 1 0 C0.5622506 6.65680988 -0.14080244 12.71721762 -4.6875 17.9375 C-5.120625 18.288125 -5.55375 18.63875 -6 19 C-6.66 18.67 -7.32 18.34 -8 18 C-7.67 17.34 -7.34 16.68 -7 16 C-6.34 16 -5.68 16 -5 16 C-4.87625 14.72125 -4.7525 13.4425 -4.625 12.125 C-4.25 8.25 -4.25 8.25 -2 6 C-1.28591666 4.01643517 -0.61382258 2.01684563 0 0 Z " fill="#F1BE1D" transform="translate(398,171)"/>
<path d="M0 0 C-0.90492188 0.47179687 -0.90492188 0.47179687 -1.828125 0.953125 C-6.1104491 3.24624048 -9.77939776 5.2839205 -13 9 C-14 10 -15 11 -16 12 C-15.41661146 8.06212739 -13.75728395 5.82798353 -11 3 C-4.15862069 -1.3862069 -4.15862069 -1.3862069 0 0 Z " fill="#51A069" transform="translate(241,75)"/>
<path d="M0 0 C1.32 0.66 2.64 1.32 4 2 C3.01 3.485 3.01 3.485 2 5 C1.34 5 0.68 5 0 5 C-0.66 6.65 -1.32 8.3 -2 10 C-2.66 10 -3.32 10 -4 10 C-3.5205537 5.78087253 -2.83374881 3.20336822 0 0 Z " fill="#4983E8" transform="translate(284,186)"/>
<path d="M0 0 C0.33 0.66 0.66 1.32 1 2 C0.36729133 3.34977849 -0.30062468 4.68352881 -1 6 C-1 6.66 -1 7.32 -1 8 C-1.928125 8.2475 -2.85625 8.495 -3.8125 8.75 C-7.16458325 10.06454245 -8.1877803 10.97963384 -10 14 C-10.66 13.67 -11.32 13.34 -12 13 C-9.2239921 9.40147125 -6.34645017 6.08225674 -3 3 C-2.34 3 -1.68 3 -1 3 C-0.67 2.01 -0.34 1.02 0 0 Z " fill="#CABD20" transform="translate(337,140)"/>
<path d="M0 0 C0.66 0.33 1.32 0.66 2 1 C1.44570312 1.53109375 0.89140625 2.0621875 0.3203125 2.609375 C-0.40414062 3.31578125 -1.12859375 4.0221875 -1.875 4.75 C-2.59429687 5.44609375 -3.31359375 6.1421875 -4.0546875 6.859375 C-5.86479679 8.85122217 -6.94848086 10.5427658 -8 13 C-8.99 13 -9.98 13 -11 13 C-9.43638038 9.16202456 -6.97489917 6.8332373 -4 4 C-3.236875 3.236875 -2.47375 2.47375 -1.6875 1.6875 C-1.130625 1.130625 -0.57375 0.57375 0 0 Z " fill="#A85C7C" transform="translate(254,222)"/>
<path d="M0 0 C1.32 0.33 2.64 0.66 4 1 C2.37829621 2.00533667 0.75252763 3.00411907 -0.875 4 C-2.23238281 4.8353125 -2.23238281 4.8353125 -3.6171875 5.6875 C-6 7 -6 7 -8 7 C-7.125 3.125 -7.125 3.125 -6 2 C-4.00041636 1.95919217 -1.99954746 1.95745644 0 2 C0 1.34 0 0.68 0 0 Z " fill="#D54C45" transform="translate(337,218)"/>
<path d="M0 0 C0.66 0.33 1.32 0.66 2 1 C1.06027344 1.92232422 1.06027344 1.92232422 0.1015625 2.86328125 C-0.71570313 3.67152344 -1.53296875 4.47976562 -2.375 5.3125 C-3.18710938 6.11300781 -3.99921875 6.91351563 -4.8359375 7.73828125 C-7.12604842 10.00009937 -7.12604842 10.00009937 -9 13 C-9.66 13 -10.32 13 -11 13 C-10.45677238 9.205764 -8.9784232 7.7689044 -6.0625 5.375 C-5.35222656 4.78460938 -4.64195312 4.19421875 -3.91015625 3.5859375 C-3.27980469 3.06257812 -2.64945313 2.53921875 -2 2 C-1.34 1.34 -0.68 0.68 0 0 Z " fill="#846A9C" transform="translate(234,241)"/>
<path d="M0 0 C0.75 1.6875 0.75 1.6875 1 4 C-0.625 6.75 -0.625 6.75 -3 9 C-5.75 9.3125 -5.75 9.3125 -8 9 C-7.04270084 7.87411986 -6.08412105 6.7493285 -5.125 5.625 C-4.59132813 4.99851563 -4.05765625 4.37203125 -3.5078125 3.7265625 C-2.38567993 2.44163349 -1.20628025 1.20628025 0 0 Z " fill="#D84847" transform="translate(295,183)"/>
<path d="M0 0 C0.99 0.66 1.98 1.32 3 2 C1.66666667 3.33333333 0.33333333 4.66666667 -1 6 C-1.86625 6.886875 -2.7325 7.77375 -3.625 8.6875 C-6 11 -6 11 -8 12 C-7.67 11.01 -7.34 10.02 -7 9 C-6.34 9 -5.68 9 -5 9 C-5 7.68 -5 6.36 -5 5 C-4.01 4.67 -3.02 4.34 -2 4 C-0.79117904 1.99983534 -0.79117904 1.99983534 0 0 Z " fill="#72A735" transform="translate(346,128)"/>
<path d="M0 0 C0.99 0.33 1.98 0.66 3 1 C1.90344712 2.31886772 0.79746577 3.62990057 -0.3125 4.9375 C-0.92738281 5.66839844 -1.54226563 6.39929688 -2.17578125 7.15234375 C-4 9 -4 9 -7 10 C-7 9.34 -7 8.68 -7 8 C-6.34 7.67 -5.68 7.34 -5 7 C-4.27840576 5.35636866 -3.60648579 3.68949614 -3 2 C-2.01 2 -1.02 2 0 2 C0 1.34 0 0.68 0 0 Z " fill="#55A439" transform="translate(335,139)"/>
<path d="M0 0 C1 3 1 3 0.00390625 5.26171875 C-0.47175781 6.06222656 -0.94742187 6.86273438 -1.4375 7.6875 C-1.91058594 8.49574219 -2.38367188 9.30398438 -2.87109375 10.13671875 C-3.24363281 10.75160156 -3.61617188 11.36648437 -4 12 C-5.03596041 8.78782744 -5.07584301 8.1805786 -3.6875 4.875 C-2 2 -2 2 0 0 Z " fill="#CECFD0" transform="translate(5,6)"/>
<path d="M0 0 C0.66 0.33 1.32 0.66 2 1 C-0.48952921 3.66735273 -2.63408134 5.55746343 -6 7 C-6 5.68 -6 4.36 -6 3 C-5.01 3 -4.02 3 -3 3 C-3 2.34 -3 1.68 -3 1 C-2.01 0.67 -1.02 0.34 0 0 Z " fill="#62A734" transform="translate(322,154)"/>
<path d="M0 0 C1.2989839 0.90626784 2.58893167 1.82549537 3.875 2.75 C4.59429687 3.26046875 5.31359375 3.7709375 6.0546875 4.296875 C8.08570565 6.07503547 8.97855012 7.52701607 10 10 C6.17377257 8.4411666 3.74852621 6.04566418 1 3 C0.67 2.01 0.34 1.02 0 0 Z " fill="#3D8DCD" transform="translate(251,118)"/>
<path d="M0 0 C2.97 0.33 5.94 0.66 9 1 C7.68 1.99 6.36 2.98 5 4 C1.125 2.25 1.125 2.25 0 0 Z " fill="#F2B028" transform="translate(345,210)"/>
<path d="M0 0 C1.65 0.33 3.3 0.66 5 1 C-0.14285714 5.42857143 -0.14285714 5.42857143 -4 6 C-3.67 5.34 -3.34 4.68 -3 4 C-2.34 4 -1.68 4 -1 4 C-0.67 2.68 -0.34 1.36 0 0 Z " fill="#D54B3F" transform="translate(289,244)"/>
<path d="M0 0 C0 3 0 3 -2 6 C-2.99 6 -3.98 6 -5 6 C-4.1875 3.5625 -4.1875 3.5625 -3 1 C-2.01 0.67 -1.02 0.34 0 0 Z " fill="#C94E58" transform="translate(261,217)"/>
<path d="M0 0 C1.98 0 3.96 0 6 0 C4.6875 2 4.6875 2 3 4 C2.01 4 1.02 4 0 4 C0 2.68 0 1.36 0 0 Z " fill="#6C76C0" transform="translate(300,172)"/>
<path d="M0 0 C0.66 0 1.32 0 2 0 C1.6875 1.875 1.6875 1.875 1 4 C-2 6 -2 6 -5 6 C-5 5.34 -5 4.68 -5 4 C-4.360625 3.71125 -3.72125 3.4225 -3.0625 3.125 C-0.84793921 2.17176549 -0.84793921 2.17176549 0 0 Z " fill="#C64E5B" transform="translate(285,192)"/>
</svg>
