<?xml version="1.0" encoding="UTF-8"?>
<svg version="1.1" xmlns="http://www.w3.org/2000/svg" width="265" height="190">
<path d="M0 0 C3.26496751 3.63198962 5.82250205 7.43210147 6.375 12.3125 C6.58125 13.199375 6.7875 14.08625 7 15 C8.64823539 16.04206301 8.64823539 16.04206301 10.6875 16.875 C15.84780733 19.14407131 17.98714396 22.35366779 21 27 C22.03447266 28.485 22.03447266 28.485 23.08984375 30 C28.10433276 37.32920231 31.95881168 44.83656978 35.34912109 53.04638672 C35.80665771 54.14297607 35.80665771 54.14297607 36.2734375 55.26171875 C36.53560059 55.91100342 36.79776367 56.56028809 37.06787109 57.22924805 C37.93318117 59.08852388 37.93318117 59.08852388 39.55712891 60.54223633 C41.76916614 62.77710508 41.80500707 64.94511074 42 68 C39.1150419 70.8849581 36.0601153 70.38275252 32.1875 70.5 C27.44927384 70.64579157 23.3365275 70.8871143 19 73 C18.94552953 74.41623216 18.90699492 75.83308191 18.875 77.25 C18.85179687 78.03890625 18.82859375 78.8278125 18.8046875 79.640625 C18.84743181 82.00448908 18.84743181 82.00448908 19.984375 83.89453125 C21.77671284 87.61018546 21.35729243 91.74288027 21.4609375 95.80859375 C22.10821903 99.64068803 23.58045402 101.01484587 26 104 C27.03605979 106.65032822 27.67915506 109.3544313 28.3125 112.125 C28.49361328 112.84042969 28.67472656 113.55585938 28.86132812 114.29296875 C29.67708663 117.68931741 30.12455276 119.62634171 29 123 C21.75034756 123.04633306 14.50072703 123.08187408 7.25095654 123.10362434 C3.88461771 123.1140632 0.51838015 123.12822409 -2.84790039 123.15087891 C-6.71763815 123.17507811 -10.58723176 123.18647192 -14.45703125 123.1953125 C-15.66647903 123.20563507 -16.87592682 123.21595764 -18.12202454 123.22659302 C-19.80342781 123.22681961 -19.80342781 123.22681961 -21.51879883 123.22705078 C-22.50697098 123.231492 -23.49514313 123.23593323 -24.51325989 123.24050903 C-27 123 -27 123 -30 121 C-31.7576706 116.28204207 -32.64990878 112.01358202 -32 107 C-29.47197045 103.57972473 -28.01924007 102.2028463 -23.8203125 101.3671875 C-22.88960937 101.24601562 -21.95890625 101.12484375 -21 101 C-21.76214041 98.7467153 -22.53426967 96.49772542 -23.3125 94.25 C-23.63250977 93.29867187 -23.63250977 93.29867187 -23.95898438 92.328125 C-24.92046133 89.57284774 -25.77142294 87.27701363 -27.640625 85.01171875 C-29.67861656 81.99572549 -29.31999667 79.15525343 -29.4375 75.5625 C-29.6498267 72.74446781 -30.11481336 70.75969952 -31 68 C-34.03480908 65.78376209 -36.6392036 64.84887209 -40.25 63.859375 C-43 63 -43 63 -45 60 C-45.50233333 57.50297332 -45.91178055 55.06203919 -46.25390625 52.54296875 C-46.35968491 51.80355545 -46.46546356 51.06414215 -46.57444763 50.30232239 C-46.7973772 48.73177085 -47.01652284 47.16067828 -47.23217773 45.58911133 C-47.55622693 43.23310843 -47.89325281 40.87925863 -48.23242188 38.52539062 C-49.53091951 29.35822237 -50.49208062 20.24972445 -51 11 C-47.75743979 8.83829319 -45.41747297 8.24431002 -41.63671875 7.37890625 C-40.35603516 7.08306641 -39.07535156 6.78722656 -37.75585938 6.48242188 C-36.39975333 6.17572048 -35.04363348 5.86908007 -33.6875 5.5625 C-32.37422386 5.26030876 -31.06107146 4.95757923 -29.74804688 4.65429688 C-26.48643501 3.90322413 -23.2212295 3.16931642 -19.95452881 2.44073486 C-17.97968945 1.99542009 -16.00866141 1.53544031 -14.03759766 1.07373047 C-12.79413574 0.79029785 -11.55067383 0.50686523 -10.26953125 0.21484375 C-9.15811768 -0.04304932 -8.0467041 -0.30094238 -6.90161133 -0.56665039 C-4.12546336 -0.98126231 -2.5768341 -1.04116736 0 0 Z M13 46 C12.91866209 47.91595968 12.86065633 49.83291932 12.8125 51.75 C12.77769531 52.81734375 12.74289063 53.8846875 12.70703125 54.984375 C13.03533147 58.36367855 13.54842826 59.67976246 16 62 C18.0316566 62.68850829 18.0316566 62.68850829 20.1875 62.75 C21.445625 62.8325 22.70375 62.915 24 63 C23.34306414 59.25369009 21.65887801 56.55883435 19.625 53.375 C18.71621094 51.93253906 18.71621094 51.93253906 17.7890625 50.4609375 C16.06856685 47.79522491 16.06856685 47.79522491 13 46 Z M-4 86 C-4 89.63 -4 93.26 -4 97 C-3.01 97.33 -2.02 97.66 -1 98 C1.19038423 96.62831762 1.19038423 96.62831762 3 95 C2.73323796 93.01508358 2.73323796 93.01508358 2 91 C1.01 90.67 0.02 90.34 -1 90 C-2.1875 87.9375 -2.1875 87.9375 -3 86 C-3.33 86 -3.66 86 -4 86 Z " fill="#747279" transform="translate(161,54)"/>
<path d="M0 0 C-0.99 1.98 -1.98 3.96 -3 6 C-2.01 6.33 -1.02 6.66 0 7 C4.93421053 39.69736842 4.93421053 39.69736842 6 50 C-2.86912251 52.32876401 -11.76024329 54.43624828 -20.75 56.25 C-21.6069043 56.42499023 -22.46380859 56.59998047 -23.34667969 56.78027344 C-24.15524414 56.94043945 -24.96380859 57.10060547 -25.796875 57.265625 C-26.86953613 57.47880371 -26.86953613 57.47880371 -27.96386719 57.69628906 C-30 58 -30 58 -34 58 C-34 58.66 -34 59.32 -34 60 C-34.99 59.67 -35.98 59.34 -37 59 C-38.92557269 53.78557972 -39.60973026 48.4565868 -40.2890625 42.9609375 C-40.39721283 42.11705475 -40.50536316 41.273172 -40.61679077 40.40371704 C-40.84282239 38.63080136 -41.06622123 36.85754822 -41.28710938 35.08398438 C-41.62494678 32.37542664 -41.97197435 29.66816271 -42.3203125 26.9609375 C-42.53960501 25.23183955 -42.75837308 23.50267499 -42.9765625 21.7734375 C-43.07965729 20.96812592 -43.18275208 20.16281433 -43.28897095 19.33309937 C-44.34122147 10.81789301 -44.34122147 10.81789301 -44 8 C-40.53242653 5.68828436 -37.76774574 5.49752516 -33.75 5.125 C-27.99792725 4.51765458 -22.68422905 3.48276074 -17.125 1.875 C-11.25085034 0.19311197 -6.08644504 -0.5155577 0 0 Z " fill="#E2DD2D" transform="translate(154,57)"/>
<path d="M0 0 C2.475 0.99 2.475 0.99 5 2 C4.34 2.33 3.68 2.66 3 3 C3.66 8.28 4.32 13.56 5 19 C5.99 19 6.98 19 8 19 C8.03867188 20.32064453 8.03867188 20.32064453 8.078125 21.66796875 C8.13484375 22.82941406 8.1915625 23.99085938 8.25 25.1875 C8.29640625 26.33605469 8.3428125 27.48460937 8.390625 28.66796875 C9.10470684 32.57253162 10.52968253 33.9592554 13 37 C14.03591932 39.6503619 14.67916011 42.35445341 15.3125 45.125 C15.58416992 46.19814453 15.58416992 46.19814453 15.86132812 47.29296875 C16.67708663 50.68931741 17.12455276 52.62634171 16 56 C8.75034756 56.04633306 1.50072703 56.08187408 -5.74904346 56.10362434 C-9.11538229 56.1140632 -12.48161985 56.12822409 -15.84790039 56.15087891 C-19.71763815 56.17507811 -23.58723176 56.18647192 -27.45703125 56.1953125 C-28.66647903 56.20563507 -29.87592682 56.21595764 -31.12202454 56.22659302 C-32.80342781 56.22681961 -32.80342781 56.22681961 -34.51879883 56.22705078 C-35.50697098 56.231492 -36.49514313 56.23593323 -37.51325989 56.24050903 C-40 56 -40 56 -43 54 C-44.7576706 49.28204207 -45.64990878 45.01358202 -45 40 C-42.47197045 36.57972473 -41.01924007 35.2028463 -36.8203125 34.3671875 C-35.88960937 34.24601562 -34.95890625 34.12484375 -34 34 C-34.28875 33.20335937 -34.5775 32.40671875 -34.875 31.5859375 C-35.431875 29.99652344 -35.431875 29.99652344 -36 28.375 C-36.37125 27.33085937 -36.7425 26.28671875 -37.125 25.2109375 C-38.00483564 21.98225494 -38.15988262 19.32755706 -38 16 C-37.01 15.67 -36.02 15.34 -35 15 C-34.67 13.68 -34.34 12.36 -34 11 C-23.77 11 -13.54 11 -3 11 C-2.49509655 8.98038621 -1.99046512 6.96066863 -1.5 4.9375 C-1.07018312 3.2719596 -0.54394553 1.63183658 0 0 Z M-17 19 C-17 22.63 -17 26.26 -17 30 C-16.01 30.33 -15.02 30.66 -14 31 C-11.80961577 29.62831762 -11.80961577 29.62831762 -10 28 C-10.26676204 26.01508358 -10.26676204 26.01508358 -11 24 C-11.99 23.67 -12.98 23.34 -14 23 C-15.1875 20.9375 -15.1875 20.9375 -16 19 C-16.33 19 -16.66 19 -17 19 Z " fill="#07070A" transform="translate(174,121)"/>
<path d="M0 0 C1.32 0.33 2.64 0.66 4 1 C3.67 1.66 3.34 2.32 3 3 C2.67 2.67 2.34 2.34 2 2 C2 5.3 2 8.6 2 12 C3.65 11.34 5.3 10.68 7 10 C7 8.68 7 7.36 7 6 C7.99 6 8.98 6 10 6 C10.33 5.34 10.66 4.68 11 4 C12 7.875 12 7.875 12 9 C12.32670903 11.00109278 12.65977214 13.00116131 13 15 C10.33333333 15 7.66666667 15 5 15 C5 15.66 5 16.32 5 17 C6.0209375 17.0928125 6.0209375 17.0928125 7.0625 17.1875 C10.4781038 18.13224148 12.55583237 19.67700437 15.3515625 21.7890625 C17.14204741 23.10434762 18.96725218 24.10559096 21 25 C20.34 25.66 19.68 26.32 19 27 C19.99 27.66 20.98 28.32 22 29 C22 29.66 22 30.32 22 31 C23.32 30.67 24.64 30.34 26 30 C26 32.31 26 34.62 26 37 C28.64 37 31.28 37 34 37 C34 37.33 34 37.66 34 38 C26.75034756 38.04633306 19.50072703 38.08187408 12.25095654 38.10362434 C8.88461771 38.1140632 5.51838015 38.12822409 2.15209961 38.15087891 C-1.71763815 38.17507811 -5.58723176 38.18647192 -9.45703125 38.1953125 C-10.66647903 38.20563507 -11.87592682 38.21595764 -13.12202454 38.22659302 C-14.80342781 38.22681961 -14.80342781 38.22681961 -16.51879883 38.22705078 C-17.50697098 38.231492 -18.49514313 38.23593323 -19.51325989 38.24050903 C-22 38 -22 38 -25 36 C-26.7576706 31.28204207 -27.64990878 27.01358202 -27 22 C-24.4352833 18.53008917 -22.89391378 17.21926187 -18.6875 16.1875 C-17.800625 16.125625 -16.91375 16.06375 -16 16 C-15.67 14.68 -15.34 13.36 -15 12 C-14.34 13.65 -13.68 15.3 -13 17 C-12.67 16.67 -12.34 16.34 -12 16 C-9.32941149 15.85884839 -6.67567762 15.95752893 -4 16 C-5.32 15.01 -6.64 14.02 -8 13 C-5.36 13.33 -2.72 13.66 0 14 C0 9.38 0 4.76 0 0 Z " fill="#17161B" transform="translate(156,139)"/>
<path d="M0 0 C2 3 2 3 3 5 C3 4.01 3 3.02 3 2 C6.465 1.505 6.465 1.505 10 1 C10.165 2.0725 10.33 3.145 10.5 4.25 C11.17931582 6.68098017 11.54114543 7.71058485 13.703125 9.07421875 C14.37859375 9.35910156 15.0540625 9.64398438 15.75 9.9375 C20.89185636 12.16225293 23.00666665 15.38377507 26 20 C26.68964844 20.99 27.37929687 21.98 28.08984375 23 C34.8677513 32.89940875 42.28096928 44.94290955 44 57 C43.01 57.495 43.01 57.495 42 58 C41.505 56.02 41.505 56.02 41 54 C40.34 54 39.68 54 39 54 C39 53.34 39 52.68 39 52 C37.88625 51.566875 37.88625 51.566875 36.75 51.125 C35.8425 50.75375 34.935 50.3825 34 50 C33.29875 49.731875 32.5975 49.46375 31.875 49.1875 C29.22457848 47.50889971 28.32344879 45.83596169 27 43 C26.3125 39.1875 26.3125 39.1875 26 36 C25.34 36 24.68 36 24 36 C24 35.34 24 34.68 24 34 C22.02 34.495 22.02 34.495 20 35 C20.66 33.68 21.32 32.36 22 31 C21.34 31 20.68 31 20 31 C19.505 28.525 19.505 28.525 19 26 C18.01 26.33 17.02 26.66 16 27 C16.5259375 28.051875 16.5259375 28.051875 17.0625 29.125 C18.17399764 32.53359275 17.66588383 34.52260667 17 38 C17.185625 38.70125 17.37125 39.4025 17.5625 40.125 C18.15557267 42.66674001 17.31909732 43.82736912 16 46 C16 44.35 16 42.7 16 41 C15.34 41 14.68 41 14 41 C13.67 41.99 13.34 42.98 13 44 C12.67 43.34 12.34 42.68 12 42 C11.505 44.475 11.505 44.475 11 47 C9.68 46.67 8.36 46.34 7 46 C6.71125 44.9275 6.4225 43.855 6.125 42.75 C5.21284558 39.23847795 5.21284558 39.23847795 3.99609375 37.1640625 C0.30993652 29.15570522 0.72063905 18.39379145 0.24609375 9.66796875 C0.29410859 7.08105198 0.29410859 7.08105198 -1 6 C-1.125 3.5 -1.125 3.5 -1 1 C-0.67 0.67 -0.34 0.34 0 0 Z " fill="#CAB224" transform="translate(156,61)"/>
<path d="M0 0 C1.484375 1.84765625 1.484375 1.84765625 2.75 4.0625 C3.17796875 4.79597656 3.6059375 5.52945313 4.046875 6.28515625 C4.36140625 6.85105469 4.6759375 7.41695312 5 8 C3.1875 9.0625 3.1875 9.0625 1 10 C0.01 9.67 -0.98 9.34 -2 9 C-1.69964844 9.68707031 -1.39929688 10.37414062 -1.08984375 11.08203125 C-0.70957031 11.98308594 -0.32929688 12.88414063 0.0625 13.8125 C0.44535156 14.70582031 0.82820313 15.59914063 1.22265625 16.51953125 C2 19 2 19 1 22 C-0.98 17.38 -2.96 12.76 -5 8 C-5 9.65 -5 11.3 -5 13 C-4.505 13.495 -4.505 13.495 -4 14 C-3.7962791 15.61046339 -3.65259907 17.22861279 -3.53515625 18.84765625 C-3.45716797 19.84603516 -3.37917969 20.84441406 -3.29882812 21.87304688 C-3.14331233 23.97186749 -2.98961675 26.0708239 -2.83789062 28.16992188 C-2.47350363 38.37043435 -2.47350363 38.37043435 2 47 C2.39764263 48.98821313 2.73775349 50.98944339 3 53 C3.99 53.33 4.98 53.66 6 54 C6 51.03 6 48.06 6 45 C8.26609984 49.53219967 7.92735976 51.17772925 7 56 C7.99 56.495 7.99 56.495 9 57 C6.47557889 59.22149058 4.8216968 60.0445758 1.5 60.875 C-2.55816398 62.17940985 -3.53441597 63.65385025 -6 67 C-6.99 67 -7.98 67 -9 67 C-9.495 68.485 -9.495 68.485 -10 70 C-11.62890625 71.38671875 -11.62890625 71.38671875 -13.5625 72.6875 C-14.20316406 73.12449219 -14.84382813 73.56148438 -15.50390625 74.01171875 C-15.99761719 74.33785156 -16.49132812 74.66398437 -17 75 C-17.66 74.67 -18.32 74.34 -19 74 C-17.68 72.35 -16.36 70.7 -15 69 C-16.03125 68.87625 -17.0625 68.7525 -18.125 68.625 C-21.62116846 68.06110186 -24.68397627 67.21317941 -28 66 C-28.495 66.99 -28.495 66.99 -29 68 C-29 67.34 -29 66.68 -29 66 C-30.2375 66.04125 -31.475 66.0825 -32.75 66.125 C-36.01637962 66.13658291 -38.2146947 65.8568702 -41 64 C-41 63.01 -41 62.02 -41 61 C-40.34104736 60.86424561 -39.68209473 60.72849121 -39.00317383 60.58862305 C-35.93929048 59.95647808 -32.87581621 59.3223877 -29.8125 58.6875 C-28.71655518 58.4603833 -27.62061035 58.2332666 -26.49145508 57.99926758 C-19.73223725 56.59095118 -13.0004424 55.1188665 -6.29296875 53.48046875 C-4 53 -4 53 -1 53 C-1.18175781 52.27941406 -1.36351562 51.55882812 -1.55078125 50.81640625 C-3.48627155 42.54838871 -4.68549849 34.30260255 -5.6875 25.875 C-5.81874268 24.7722876 -5.94998535 23.6695752 -6.08520508 22.53344727 C-6.57024255 18.31449958 -7 14.25203397 -7 10 C-8.32 9.67 -9.64 9.34 -11 9 C-10.01 7.35 -9.02 5.7 -8 4 C-14.61418607 3.53584659 -19.95182284 4.65942112 -26.31494141 6.49804688 C-31.86809175 8.06500409 -37.24946831 8.76089265 -43 9 C-40.65027842 6.65027842 -39.47234094 6.48412321 -36.265625 5.81640625 C-35.30503174 5.61225098 -34.34443848 5.4080957 -33.35473633 5.19775391 C-32.33017334 4.98812012 -31.30561035 4.77848633 -30.25 4.5625 C-28.15492434 4.12381051 -26.0598722 3.68500865 -23.96484375 3.24609375 C-22.94374512 3.03452637 -21.92264648 2.82295898 -20.87060547 2.60498047 C-18.40818285 2.08602459 -15.9551553 1.54156427 -13.50390625 0.97265625 C-12.28574219 0.69292969 -11.06757813 0.41320313 -9.8125 0.125 C-8.76707031 -0.11992188 -7.72164062 -0.36484375 -6.64453125 -0.6171875 C-3.94513286 -1.00794236 -2.47545863 -1.12812478 0 0 Z " fill="#121112" transform="translate(161,54)"/>
<path d="M0 0 C1 7 2 14 3 21 C-10.73589481 24.64052851 -24.89968728 25.6321905 -39 27 C-40.00496852 23.98509443 -40.10335303 21.95818308 -40.0625 18.8125 C-40.05347656 17.91144531 -40.04445313 17.01039062 -40.03515625 16.08203125 C-40.02355469 15.39496094 -40.01195313 14.70789063 -40 14 C-36.07142246 12.14868517 -33.01224888 11.77995057 -28.6875 11.875 C-27.61886719 11.89304687 -26.55023438 11.91109375 -25.44921875 11.9296875 C-24.64097656 11.95289062 -23.83273438 11.97609375 -23 12 C-23 11.34 -23 10.68 -23 10 C-19.68827959 8.39755464 -16.99609 7.90949336 -13.375 7.75 C-11.05244657 7.61990753 -11.05244657 7.61990753 -9 7 C-6.97343617 4.11547725 -6.97343617 4.11547725 -6 1 C-4 0 -4 0 0 0 Z " fill="#FBE41B" transform="translate(157,84)"/>
<path d="M0 0 C-0.66 2.64 -1.32 5.28 -2 8 C-2.66 8 -3.32 8 -4 8 C-4.33 10.97 -4.66 13.94 -5 17 C-5.804375 17.2475 -6.60875 17.495 -7.4375 17.75 C-10.171081 18.72238859 -10.171081 18.72238859 -10.8125 21.125 C-10.9053125 22.053125 -10.9053125 22.053125 -11 23 C-11.66 23 -12.32 23 -13 23 C-13.33 22.34 -13.66 21.68 -14 21 C-15.99226169 20.71080072 -17.98722182 20.42735449 -19.9921875 20.24609375 C-22 20 -22 20 -25 19 C-25.33 18.34 -25.66 17.68 -26 17 C-28.31 17 -30.62 17 -33 17 C-33.66 13.37 -34.32 9.74 -35 6 C-32.85423363 5.97314062 -30.70837355 5.95366912 -28.5625 5.9375 C-27.36753906 5.92589844 -26.17257813 5.91429688 -24.94140625 5.90234375 C-22 6 -22 6 -21 7 C-17.97980236 6.74664647 -17.97980236 6.74664647 -15 6 C-14.67 5.34 -14.34 4.68 -14 4 C-13.01 3.67 -12.02 3.34 -11 3 C-10.34 2.34 -9.68 1.68 -9 1 C-2.44680851 -1.22340426 -2.44680851 -1.22340426 0 0 Z " fill="#FCF127" transform="translate(150,66)"/>
<path d="M0 0 C1.65 0 3.3 0 5 0 C5.33 1.65 5.66 3.3 6 5 C6.66 5 7.32 5 8 5 C8 5.99 8 6.98 8 8 C8.66 8 9.32 8 10 8 C10 8.66 10 9.32 10 10 C10.66 10 11.32 10 12 10 C14 16 14 16 16 22 C17.97746603 22.73080266 19.98072489 23.39421747 22 24 C22.99 24.66 23.98 25.32 25 26 C25 26.66 25 27.32 25 28 C25.66 28 26.32 28 27 28 C27.66 28.99 28.32 29.98 29 31 C29.66 30.01 30.32 29.02 31 28 C32.3950848 30.29778673 33.07438619 31.4792967 32.6875 34.1875 C32 36 32 36 31 37 C27.6922159 37.23788858 24.39175355 37.39540297 21.078125 37.51757812 C16.99161825 37.71664509 13.69227175 38.20474188 10 40 C9.9727585 41.41655793 9.95349533 42.83327045 9.9375 44.25 C9.92589844 45.03890625 9.91429687 45.8278125 9.90234375 46.640625 C9.99614694 48.90691002 10.36758937 50.8288895 11 53 C10.34 53 9.68 53 9 53 C8.6603981 51.12612523 8.32861309 49.25083303 8 47.375 C7.814375 46.33085937 7.62875 45.28671875 7.4375 44.2109375 C7.01284203 41.09425135 6.92454794 38.14069188 7 35 C7.66 35 8.32 35 9 35 C8.67 33.35 8.34 31.7 8 30 C10.64 30 13.28 30 16 30 C16 28.68 16 27.36 16 26 C15.401875 25.93554688 14.80375 25.87109375 14.1875 25.8046875 C11.10161356 24.66952213 10.52573624 22.98575545 9 20.125 C7.0589506 16.50663074 5.46295394 14.25390536 2 12 C2.3403125 10.14375 2.3403125 10.14375 2.6875 8.25 C3.09666898 5.13146889 3.18326458 4.31872101 1.5625 1.5 C1.046875 1.005 0.53125 0.51 0 0 Z " fill="#946E0D" transform="translate(170,87)"/>
<path d="M0 0 C1.80030122 2.70045182 2.93377066 5.06677881 4.125 8.0625 C4.47820312 8.94035156 4.83140625 9.81820312 5.1953125 10.72265625 C6 13 6 13 6 15 C6.66 15 7.32 15 8 15 C8 18.96 8 22.92 8 27 C9.32 27 10.64 27 12 27 C12.33 26.34 12.66 25.68 13 25 C15.5625 27 15.5625 27 18 30 C18.08164946 32.17015667 17.75864143 34.02024421 17.32421875 36.14453125 C16.85732584 38.07621462 16.85732584 38.07621462 17.5625 40.25 C18 42 18 42 17.0625 44.25 C16.5365625 45.11625 16.5365625 45.11625 16 46 C16 44.35 16 42.7 16 41 C15.34 41 14.68 41 14 41 C13.67 41.99 13.34 42.98 13 44 C12.67 43.34 12.34 42.68 12 42 C11.505 44.475 11.505 44.475 11 47 C9.68 46.67 8.36 46.34 7 46 C6.71125 44.9275 6.4225 43.855 6.125 42.75 C5.21284558 39.23847795 5.21284558 39.23847795 3.99609375 37.1640625 C0.30993652 29.15570522 0.72063905 18.39379145 0.24609375 9.66796875 C0.29410859 7.08105198 0.29410859 7.08105198 -1 6 C-1.125 3.5 -1.125 3.5 -1 1 C-0.67 0.67 -0.34 0.34 0 0 Z " fill="#EAC823" transform="translate(156,61)"/>
<path d="M0 0 C0.33 0 0.66 0 1 0 C1.02578125 0.88042969 1.0515625 1.76085937 1.078125 2.66796875 C1.13484375 3.82941406 1.1915625 4.99085938 1.25 6.1875 C1.29640625 7.33605469 1.3428125 8.48460937 1.390625 9.66796875 C2.10477972 13.57293013 3.53162311 14.95704748 6 18 C7.03511662 20.67152973 7.67865896 23.39708426 8.3125 26.1875 C8.58416992 27.27321289 8.58416992 27.27321289 8.86132812 28.38085938 C10.13848136 33.72303729 10.13848136 33.72303729 9 36 C6.36 36 3.72 36 1 36 C1 33.69 1 31.38 1 29 C-0.32 29.33 -1.64 29.66 -3 30 C-3.33 29.34 -3.66 28.68 -4 28 C-4.99 27.34 -5.98 26.68 -7 26 C-6.34 25.34 -5.68 24.68 -5 24 C-9.94748092 21.21841628 -14.8954653 18.4868246 -20 16 C-20 15.34 -20 14.68 -20 14 C-16.94152152 13.45627049 -14.11227195 13 -11 13 C-10.34 12.67 -9.68 12.34 -9 12 C-8.566875 12.495 -8.13375 12.99 -7.6875 13.5 C-6.00259517 15.33218192 -6.00259517 15.33218192 -3 15 C-3 14.34 -3 13.68 -3 13 C-2.34 13 -1.68 13 -1 13 C-0.67 8.71 -0.34 4.42 0 0 Z " fill="#121219" transform="translate(181,140)"/>
<path d="M0 0 C4.44705124 0.55341082 7.85654059 1.65025684 11.8125 3.75 C12.76769531 4.23984375 13.72289062 4.7296875 14.70703125 5.234375 C17 7 17 7 17.82421875 9.703125 C17.88222656 10.46109375 17.94023437 11.2190625 18 12 C17.01 12 16.02 12 15 12 C14.67 12.66 14.34 13.32 14 14 C14 13.34 14 12.68 14 12 C13.34 12 12.68 12 12 12 C12 14.97 12 17.94 12 21 C6.72 21 1.44 21 -4 21 C-3.67 14.73 -3.34 8.46 -3 2 C-2.67 2.99 -2.34 3.98 -2 5 C-1.01 5 -0.02 5 1 5 C0.67 3.35 0.34 1.7 0 0 Z " fill="#040508" transform="translate(154,155)"/>
<path d="M0 0 C1.32 0.33 2.64 0.66 4 1 C3.67 1.66 3.34 2.32 3 3 C2.67 2.67 2.34 2.34 2 2 C2 5.3 2 8.6 2 12 C3.65 11.34 5.3 10.68 7 10 C7 8.68 7 7.36 7 6 C7.99 6 8.98 6 10 6 C10.33 5.34 10.66 4.68 11 4 C12 7.875 12 7.875 12 9 C12.32670903 11.00109278 12.65977214 13.00116131 13 15 C10.33333333 15 7.66666667 15 5 15 C5 15.66 5 16.32 5 17 C6.0209375 17.0928125 6.0209375 17.0928125 7.0625 17.1875 C10.4781038 18.13224148 12.55583237 19.67700437 15.3515625 21.7890625 C17.14204741 23.10434762 18.96725218 24.10559096 21 25 C20.34 25.66 19.68 26.32 19 27 C19.99 27.66 20.98 28.32 22 29 C22 29.66 22 30.32 22 31 C23.32 30.67 24.64 30.34 26 30 C26 32.31 26 34.62 26 37 C28.64 37 31.28 37 34 37 C34 37.33 34 37.66 34 38 C15.52 38 -2.96 38 -22 38 C-22 37.67 -22 37.34 -22 37 C-11.44 37 -0.88 37 10 37 C10 34.03 10 31.06 10 28 C11.98 28 13.96 28 16 28 C15.89386164 25.54775306 15.89386164 25.54775306 15 23 C12.71385438 21.93483181 12.71385438 21.93483181 10 21 C6.64104436 19.38181699 3.32621196 17.68528073 0 16 C0 10.72 0 5.44 0 0 Z " fill="#7C7C80" transform="translate(156,139)"/>
<path d="M0 0 C0.99 0.33 1.98 0.66 3 1 C1.02 1.99 1.02 1.99 -1 3 C-0.855625 4.08539063 -0.71125 5.17078125 -0.5625 6.2890625 C-0.37480044 7.7343491 -0.18731162 9.17966307 0 10.625 C0.09539062 11.33785156 0.19078125 12.05070312 0.2890625 12.78515625 C0.81606101 16.88821609 1.10466984 20.85245742 1 25 C4.96 24.505 4.96 24.505 9 24 C9 24.66 9 25.32 9 26 C7.35 26 5.7 26 4 26 C4.33 27.65 4.66 29.3 5 31 C5.99 31 6.98 31 8 31 C8.33 30.34 8.66 29.68 9 29 C8.01 28.67 7.02 28.34 6 28 C7.32 28 8.64 28 10 28 C9.25 33.75 9.25 33.75 7 36 C7 35.34 7 34.68 7 34 C6.01 34.495 6.01 34.495 5 35 C4.97301811 36.62490954 4.95361243 38.24994633 4.9375 39.875 C4.92589844 40.77992187 4.91429688 41.68484375 4.90234375 42.6171875 C4.83750743 45.0168585 4.83750743 45.0168585 6 47 C10.71408243 46.44978793 15.42802497 45.89839688 20.1418457 45.34594727 C21.74304542 45.15845429 23.34428187 44.97127476 24.94555664 44.78442383 C27.25677229 44.5146741 29.5678503 44.24377036 31.87890625 43.97265625 C32.9402755 43.8491555 32.9402755 43.8491555 34.02308655 43.72315979 C38.35996904 43.21302331 42.67997792 42.63406378 47 42 C47 42.66 47 43.32 47 44 C38.13087749 46.32876401 29.23975671 48.43624828 20.25 50.25 C19.3930957 50.42499023 18.53619141 50.59998047 17.65332031 50.78027344 C16.84475586 50.94043945 16.03619141 51.10060547 15.203125 51.265625 C14.13046387 51.47880371 14.13046387 51.47880371 13.03613281 51.69628906 C11 52 11 52 7 52 C7 52.66 7 53.32 7 54 C6.01 53.67 5.02 53.34 4 53 C2.07442731 47.78557972 1.39026974 42.4565868 0.7109375 36.9609375 C0.60278717 36.11705475 0.49463684 35.273172 0.38320923 34.40371704 C0.15717761 32.63080136 -0.06622123 30.85754822 -0.28710938 29.08398438 C-0.62494678 26.37542664 -0.97197435 23.66816271 -1.3203125 20.9609375 C-1.53960501 19.23183955 -1.75837308 17.50267499 -1.9765625 15.7734375 C-2.07965729 14.96812592 -2.18275208 14.16281433 -2.28897095 13.33309937 C-3.34122147 4.81789301 -3.34122147 4.81789301 -3 2 C-2.01 1.34 -1.02 0.68 0 0 Z " fill="#A19037" transform="translate(113,63)"/>
<path d="M0 0 C6.05946517 7.22474694 10.47777526 14.66149139 14.3125 23.25 C14.8369873 24.42115356 14.8369873 24.42115356 15.37207031 25.6159668 C17.01482993 29.38581689 18.43311929 32.89216873 19 37 C18.01 37.495 18.01 37.495 17 38 C16.67 36.68 16.34 35.36 16 34 C15.34 34 14.68 34 14 34 C14 33.34 14 32.68 14 32 C12.88625 31.566875 12.88625 31.566875 11.75 31.125 C10.8425 30.75375 9.935 30.3825 9 30 C8.29875 29.731875 7.5975 29.46375 6.875 29.1875 C4.22457848 27.50889971 3.32344879 25.83596169 2 23 C1.3125 19.1875 1.3125 19.1875 1 16 C0.34 16 -0.32 16 -1 16 C-1 15.34 -1 14.68 -1 14 C-2.32 14.33 -3.64 14.66 -5 15 C-4.34 13.68 -3.68 12.36 -3 11 C-3.66 11 -4.32 11 -5 11 C-5 9.68 -5 8.36 -5 7 C-4.01 7 -3.02 7 -2 7 C-1.34 4.69 -0.68 2.38 0 0 Z " fill="#C5A65A" transform="translate(181,81)"/>
<path d="M0 0 C-1.45195504 3.84341039 -2.3055328 5.64017243 -6.015625 7.5625 C-10.45373633 9.30737398 -15.01787655 10.27631064 -19.6875 11.1875 C-20.56438477 11.3618457 -21.44126953 11.53619141 -22.34472656 11.71582031 C-28.93781032 12.95672853 -35.28765604 13.49114712 -42 13 C-42.33 11.68 -42.66 10.36 -43 9 C-38.98024517 6.21173075 -35.1895155 5.24771857 -30.4375 4.5 C-25.41873866 3.6486337 -20.53843998 2.66990949 -15.625 1.3125 C-10.33721591 -0.07825965 -5.44230266 -0.3250933 0 0 Z " fill="#F8EC39" transform="translate(154,57)"/>
<path d="M0 0 C2.29612756 13.6332574 2.29612756 13.6332574 2 20 C1.21625 20.0825 0.4325 20.165 -0.375 20.25 C-3.14749104 20.72806339 -3.14749104 20.72806339 -4.3125 23.0625 C-4.539375 23.701875 -4.76625 24.34125 -5 25 C-5.0825 24.38125 -5.165 23.7625 -5.25 23.125 C-5.81258459 20.81562433 -5.81258459 20.81562433 -8.0625 19.75 C-8.701875 19.5025 -9.34125 19.255 -10 19 C-10.25 13.375 -10.25 13.375 -8 10 C-7.34 10 -6.68 10 -6 10 C-5.67 7.36 -5.34 4.72 -5 2 C-7.97 2.99 -10.94 3.98 -14 5 C-14 5.66 -14 6.32 -14 7 C-14.680625 7.12375 -15.36125 7.2475 -16.0625 7.375 C-19.4277412 8.09100877 -22.70013425 9.02945125 -26 10 C-26 9.34 -26 8.68 -26 8 C-30.95 8 -35.9 8 -41 8 C-41 7.34 -41 6.68 -41 6 C-39.9584375 5.90203125 -38.916875 5.8040625 -37.84375 5.703125 C-26.66427572 4.56678596 -10.44046716 -2.53957309 0 0 Z " fill="#E7E82D" transform="translate(154,64)"/>
<path d="M0 0 C1.484375 1.84765625 1.484375 1.84765625 2.75 4.0625 C3.17796875 4.79597656 3.6059375 5.52945313 4.046875 6.28515625 C4.36140625 6.85105469 4.6759375 7.41695312 5 8 C3.1875 9.0625 3.1875 9.0625 1 10 C0.01 9.67 -0.98 9.34 -2 9 C-1.69964844 9.68707031 -1.39929688 10.37414062 -1.08984375 11.08203125 C-0.70957031 11.98308594 -0.32929688 12.88414063 0.0625 13.8125 C0.44535156 14.70582031 0.82820313 15.59914063 1.22265625 16.51953125 C2 19 2 19 1 22 C-0.98 17.38 -2.96 12.76 -5 8 C-5 9.65 -5 11.3 -5 13 C-4.505 13.495 -4.505 13.495 -4 14 C-3.7962791 15.61046339 -3.65259907 17.22861279 -3.53515625 18.84765625 C-3.45716797 19.84603516 -3.37917969 20.84441406 -3.29882812 21.87304688 C-3.14331233 23.97186749 -2.98961675 26.0708239 -2.83789062 28.16992188 C-2.47350363 38.37043435 -2.47350363 38.37043435 2 47 C2.40047444 49.32275177 2.7397104 51.65739357 3 54 C1.08654673 54.53251766 -0.8309295 55.05059483 -2.75 55.5625 C-3.81734375 55.85253906 -4.8846875 56.14257812 -5.984375 56.44140625 C-8.84335927 56.97098494 -10.31597383 56.98370862 -13 56 C-13 55.67 -13 55.34 -13 55 C-9.04 54.34 -5.08 53.68 -1 53 C-1.433125 51.205625 -1.86625 49.41125 -2.3125 47.5625 C-3.86314956 40.37782369 -4.81998908 33.17143334 -5.6875 25.875 C-5.81874268 24.7722876 -5.94998535 23.6695752 -6.08520508 22.53344727 C-6.57024255 18.31449958 -7 14.25203397 -7 10 C-8.32 9.67 -9.64 9.34 -11 9 C-10.01 7.35 -9.02 5.7 -8 4 C-14.61418607 3.53584659 -19.95182284 4.65942112 -26.31494141 6.49804688 C-31.86809175 8.06500409 -37.24946831 8.76089265 -43 9 C-40.65027842 6.65027842 -39.47234094 6.48412321 -36.265625 5.81640625 C-35.30503174 5.61225098 -34.34443848 5.4080957 -33.35473633 5.19775391 C-32.33017334 4.98812012 -31.30561035 4.77848633 -30.25 4.5625 C-28.15492434 4.12381051 -26.0598722 3.68500865 -23.96484375 3.24609375 C-22.94374512 3.03452637 -21.92264648 2.82295898 -20.87060547 2.60498047 C-18.40818285 2.08602459 -15.9551553 1.54156427 -13.50390625 0.97265625 C-12.28574219 0.69292969 -11.06757813 0.41320313 -9.8125 0.125 C-8.76707031 -0.11992188 -7.72164062 -0.36484375 -6.64453125 -0.6171875 C-3.94513286 -1.00794236 -2.47545863 -1.12812478 0 0 Z " fill="#AC8B07" transform="translate(161,54)"/>
<path d="M0 0 C0 0.99 0 1.98 0 3 C-0.99 3 -1.98 3 -3 3 C-3 7.62 -3 12.24 -3 17 C-4.32 17 -5.64 17 -7 17 C-7 17.99 -7 18.98 -7 20 C-9.01822917 19.96744792 -11.03645833 19.93489583 -13.0546875 19.90234375 C-15.08185404 19.87350758 -15.08185404 19.87350758 -17 21 C-18.59138085 16.82262526 -19.21278058 13.46839215 -19 9 C-19.66 9 -20.32 9 -21 9 C-21 8.01 -21 7.02 -21 6 C-18 5 -18 5 -15 6 C-12.30566683 4.12802546 -12.30566683 4.12802546 -10 2 C-10.66 1.34 -11.32 0.68 -12 0 C-7.91556885 -1.53166168 -4.20544343 -0.63081652 0 0 Z " fill="#060609" transform="translate(159,136)"/>
<path d="M0 0 C2.26609984 4.53219967 1.92735976 6.17772925 1 11 C1.66 11.33 2.32 11.66 3 12 C1.1875 13.5625 1.1875 13.5625 -1 15 C-1.99 14.67 -2.98 14.34 -4 14 C-3.67 13.34 -3.34 12.68 -3 12 C-2.34 12 -1.68 12 -1 12 C-1 11.34 -1 10.68 -1 10 C-4.3 10.66 -7.6 11.32 -11 12 C-11 12.66 -11 13.32 -11 14 C-11.84884766 14.27263672 -11.84884766 14.27263672 -12.71484375 14.55078125 C-13.81505859 14.92783203 -13.81505859 14.92783203 -14.9375 15.3125 C-15.66839844 15.55613281 -16.39929688 15.79976562 -17.15234375 16.05078125 C-19.35932024 16.91240441 -19.35932024 16.91240441 -20 20 C-21.65 20 -23.3 20 -25 20 C-25.66 18.68 -26.32 17.36 -27 16 C-27.78375 16.33 -28.5675 16.66 -29.375 17 C-33.31916646 18.08804592 -36.57726699 18.11794838 -40.6328125 17.97265625 C-42.93243898 17.99921959 -44.80405094 18.34728703 -47 19 C-47 18.01 -47 17.02 -47 16 C-43.16951846 15.15318611 -39.33522945 14.32502029 -35.5 13.5 C-34.42234375 13.26152344 -33.3446875 13.02304688 -32.234375 12.77734375 C-26.33017707 11.51730151 -21.02577693 10.83396252 -15 11 C-14.030625 10.67 -13.06125 10.34 -12.0625 10 C-7.90792712 8.64340477 -4.36048788 8.867864 0 9 C0 6.03 0 3.06 0 0 Z " fill="#140D03" transform="translate(167,99)"/>
<path d="M0 0 C6.97669157 -0.39325819 12.51656189 0.36903961 19 3 C18.34 4.32 17.68 5.64 17 7 C18.32 6.67 19.64 6.34 21 6 C21.33 6.66 21.66 7.32 22 8 C19.35261084 9.4606285 18.10551666 10 15 10 C15 10.66 15 11.32 15 12 C14.01 12.495 14.01 12.495 13 13 C12.67 13.99 12.34 14.98 12 16 C11.34 16.33 10.68 16.66 10 17 C8.86649466 19.01669827 8.86649466 19.01669827 8 21 C4.22724563 17.00170054 4.26087352 12.50548225 3.828125 7.3125 C3.6449093 5.52967031 3.33003637 3.7615691 3 2 C2.01 1.34 1.02 0.68 0 0 Z " fill="#5E5D64" transform="translate(127,120)"/>
<path d="M0 0 C6.15234375 -0.09765625 6.15234375 -0.09765625 8 0 C9 1 9 1 9.125 4 C9 7 9 7 8 8 C6.00344494 8.18717704 4.00209265 8.32395539 2 8.4375 C-3.53657328 8.81596477 -8.62826531 9.63430474 -14 11 C-14 8.36 -14 5.72 -14 3 C-10.78548731 1.39274365 -7.56387464 1.94251815 -4 2 C-3.67 2.99 -3.34 3.98 -3 5 C-2.34 5 -1.68 5 -1 5 C-0.67 3.35 -0.34 1.7 0 0 Z " fill="#C2D04F" transform="translate(140,84)"/>
<path d="M0 0 C0.33 0 0.66 0 1 0 C1 3.96 1 7.92 1 12 C2.32 12 3.64 12 5 12 C5.33 11.34 5.66 10.68 6 10 C8.5625 12 8.5625 12 11 15 C11.08164946 17.17015667 10.75864143 19.02024421 10.32421875 21.14453125 C9.85732584 23.07621462 9.85732584 23.07621462 10.5625 25.25 C11 27 11 27 10.0625 29.25 C9.711875 29.8275 9.36125 30.405 9 31 C9 29.35 9 27.7 9 26 C8.34 26 7.68 26 7 26 C6.67 26.99 6.34 27.98 6 29 C5.67 28.34 5.34 27.68 5 27 C4.67 28.65 4.34 30.3 4 32 C-1.26409827 22.13534527 -0.21256081 10.84060123 0 0 Z " fill="#D6B837" transform="translate(163,76)"/>
<path d="M0 0 C3.71137193 -0.3452439 5.51625962 -0.31499373 8.6875 1.75 C13.9339207 6.85462555 13.9339207 6.85462555 14.1875 11.25 C14.125625 12.1575 14.06375 13.065 14 14 C12.4375 15.1875 12.4375 15.1875 10 16 C5.68439202 14.58626635 3.54827424 13.82241136 1 10 C0.5859375 7.51953125 0.5859375 7.51953125 0.375 4.8125 C0.30023438 3.91144531 0.22546875 3.01039062 0.1484375 2.08203125 C0.09945312 1.39496094 0.05046875 0.70789063 0 0 Z " fill="#FBF27E" transform="translate(167,71)"/>
<path d="M0 0 C6.6 0 13.2 0 20 0 C20 0.33 20 0.66 20 1 C18.35 1 16.7 1 15 1 C15 1.66 15 2.32 15 3 C13.68 3.33 12.36 3.66 11 4 C11.33 4.66 11.66 5.32 12 6 C10.35 6.33 8.7 6.66 7 7 C6.67 7.99 6.34 8.98 6 10 C3.04215769 11.22393475 1.00272755 10.96516243 -2 10 C-2 10.99 -2 11.98 -2 13 C-1.34 13 -0.68 13 0 13 C0 14.98 0 16.96 0 19 C-3.26737303 15.73262697 -3.95672896 12.16831802 -4.125 7.625 C-4.08375 6.75875 -4.0425 5.8925 -4 5 C-3.01 4.67 -2.02 4.34 -1 4 C-0.67 2.68 -0.34 1.36 0 0 Z " fill="#1A191D" transform="translate(140,132)"/>
<path d="M0 0 C1.70884005 1.62339805 3.37446717 3.29319053 5 5 C5 5.66 5 6.32 5 7 C6.32 7.33 7.64 7.66 9 8 C9 8.66 9 9.32 9 10 C13.39253773 11.56272189 13.39253773 11.56272189 18 12 C18 12.66 18 13.32 18 14 C12.65450281 15.12536783 5.06932075 16.53466037 0 14 C0 14.66 0 15.32 0 16 C-0.99 16.33 -1.98 16.66 -3 17 C-3.02715383 18.74991334 -3.04646551 20.49994945 -3.0625 22.25 C-3.07410156 23.22453125 -3.08570313 24.1990625 -3.09765625 25.203125 C-3.01195577 27.65758678 -2.70706066 29.66168914 -2 32 C-2.66 32 -3.32 32 -4 32 C-4.3396019 30.12612523 -4.67138691 28.25083303 -5 26.375 C-5.185625 25.33085937 -5.37125 24.28671875 -5.5625 23.2109375 C-5.98715797 20.09425135 -6.07545206 17.14069188 -6 14 C-5.34 14 -4.68 14 -4 14 C-4.33 12.35 -4.66 10.7 -5 9 C-2.36 9 0.28 9 3 9 C3 7.68 3 6.36 3 5 C2.34 5 1.68 5 1 5 C0.67 3.35 0.34 1.7 0 0 Z " fill="#644A19" transform="translate(183,108)"/>
<path d="M0 0 C1.26237731 2.52475462 1.09856404 4.31200466 1.0625 7.125 C1.05347656 8.03507812 1.04445313 8.94515625 1.03515625 9.8828125 C1.02355469 10.58148438 1.01195313 11.28015625 1 12 C4.60502045 11.40168778 4.90757505 11.12580062 7.25 7.9375 C7.8275 6.968125 8.405 5.99875 9 5 C9.66 5.33 10.32 5.66 11 6 C10.67 6.66 10.34 7.32 10 8 C11.7634375 7.9690625 11.7634375 7.9690625 13.5625 7.9375 C17.47413467 7.93052739 21.14497944 8.35749657 25 9 C25 8.34 25 7.68 25 7 C27.64 5.68 30.28 4.36 33 3 C33.66 3.99 34.32 4.98 35 6 C37.05003955 7.19232613 37.05003955 7.19232613 39 8 C35.23828193 10.3446325 31.26237296 10.62389142 26.953125 11.0703125 C26.18192322 11.15626678 25.41072144 11.24222107 24.6161499 11.33078003 C22.16149313 11.60270085 19.70583809 11.86398609 17.25 12.125 C15.58195423 12.30789266 13.91398431 12.49147852 12.24609375 12.67578125 C8.16489788 13.12522547 4.08277422 13.56513707 0 14 C-0.99293628 11.02119115 -1.13406411 8.98398802 -1.125 5.875 C-1.12757812 4.98554687 -1.13015625 4.09609375 -1.1328125 3.1796875 C-1 1 -1 1 0 0 Z " fill="#F7D929" transform="translate(118,97)"/>
<path d="M0 0 C0.33 1.32 0.66 2.64 1 4 C5.95 4 10.9 4 16 4 C16 6.31 16 8.62 16 11 C13.36 11 10.72 11 8 11 C8 11.99 8 12.98 8 14 C8.99 14.33 9.98 14.66 11 15 C9.35 15.33 7.7 15.66 6 16 C5.67 14.35 5.34 12.7 5 11 C4.01 11 3.02 11 2 11 C2 12.65 2 14.3 2 16 C-1.14126655 11.28810018 -1.20935225 7.65251079 -1 2 C-0.67 1.34 -0.34 0.68 0 0 Z " fill="#707689" transform="translate(130,159)"/>
<path d="M0 0 C1.32 0.33 2.64 0.66 4 1 C3.67 1.66 3.34 2.32 3 3 C2.67 2.67 2.34 2.34 2 2 C2 5.3 2 8.6 2 12 C3.65 11.34 5.3 10.68 7 10 C7 8.68 7 7.36 7 6 C7.99 6 8.98 6 10 6 C10.33 5.34 10.66 4.68 11 4 C12 7.875 12 7.875 12 9 C12.32670903 11.00109278 12.65977214 13.00116131 13 15 C10.33333333 15 7.66666667 15 5 15 C5 15.66 5 16.32 5 17 C6.0209375 17.0928125 6.0209375 17.0928125 7.0625 17.1875 C10.4781038 18.13224148 12.55583237 19.67700437 15.3515625 21.7890625 C17.14204741 23.10434762 18.96725218 24.10559096 21 25 C20.34 25.66 19.68 26.32 19 27 C19.99 27.66 20.98 28.32 22 29 C21.67 29.66 21.34 30.32 21 31 C18.5625 29.8125 18.5625 29.8125 16 28 C15.835 27.154375 15.67 26.30875 15.5 25.4375 C15.335 24.633125 15.17 23.82875 15 23 C12.72601556 21.94480462 12.72601556 21.94480462 10 21 C6.64104436 19.38181699 3.32621196 17.68528073 0 16 C0 10.72 0 5.44 0 0 Z " fill="#616167" transform="translate(156,139)"/>
<path d="M0 0 C0.7425 0.33 1.485 0.66 2.25 1 C5.13883312 2.22782871 5.13883312 2.22782871 9 2 C9.433125 2.928125 9.86625 3.85625 10.3125 4.8125 C11.7193912 7.89964245 11.7193912 7.89964245 13.53125 9.40625 C15.39602931 11.42973393 15.68195042 13.00419837 16.1875 15.6875 C16.34605469 16.49574219 16.50460938 17.30398437 16.66796875 18.13671875 C16.77753906 18.75160156 16.88710937 19.36648437 17 20 C15.32700041 19.34938905 13.66140763 18.67966676 12 18 C11.29875 17.731875 10.5975 17.46375 9.875 17.1875 C7.22457848 15.50889971 6.32344879 13.83596169 5 11 C4.3125 7.1875 4.3125 7.1875 4 4 C3.34 4 2.68 4 2 4 C2 3.34 2 2.68 2 2 C0.68 2.33 -0.64 2.66 -2 3 C-1.34 2.01 -0.68 1.02 0 0 Z " fill="#AA7E07" transform="translate(178,93)"/>
<path d="M0 0 C0 0.66 0 1.32 0 2 C-8.86912251 4.32876401 -17.76024329 6.43624828 -26.75 8.25 C-27.6069043 8.42499023 -28.46380859 8.59998047 -29.34667969 8.78027344 C-30.15524414 8.94043945 -30.96380859 9.10060547 -31.796875 9.265625 C-32.51198242 9.40774414 -33.22708984 9.54986328 -33.96386719 9.69628906 C-36 10 -36 10 -40 10 C-40 10.66 -40 11.32 -40 12 C-40.99 11.67 -41.98 11.34 -43 11 C-42.34 10.67 -41.68 10.34 -41 10 C-41 9.01 -41 8.02 -41 7 C-30.74723518 4.55547505 -20.64587643 2.5176264 -10.16015625 1.39453125 C-6.50971143 0.93878968 -3.73426621 0 0 0 Z " fill="#C0A233" transform="translate(160,105)"/>
<path d="M0 0 C0.66 0.33 1.32 0.66 2 1 C2 4.96 2 8.92 2 13 C1.01 13 0.02 13 -1 13 C-1 13.99 -1 14.98 -1 16 C-5.95 16 -10.9 16 -16 16 C-16 14.02 -16 12.04 -16 10 C-15.01 10 -14.02 10 -13 10 C-12.67 11.65 -12.34 13.3 -12 15 C-11.34 14.34 -10.68 13.68 -10 13 C-10 12.01 -10 11.02 -10 10 C-7.36 10 -4.72 10 -2 10 C-2 7.03 -2 4.06 -2 1 C-1.34 0.67 -0.68 0.34 0 0 Z " fill="#0D0E18" transform="translate(148,160)"/>
<path d="M0 0 C-0.66 0.33 -1.32 0.66 -2 1 C-2.33 1.99 -2.66 2.98 -3 4 C-3.66 4 -4.32 4 -5 4 C-5.495 3.01 -5.495 3.01 -6 2 C-8.64 2.99 -11.28 3.98 -14 5 C-14 5.66 -14 6.32 -14 7 C-14.680625 7.12375 -15.36125 7.2475 -16.0625 7.375 C-19.4277412 8.09100877 -22.70013425 9.02945125 -26 10 C-26 9.34 -26 8.68 -26 8 C-30.95 8 -35.9 8 -41 8 C-41 7.34 -41 6.68 -41 6 C-39.9584375 5.90203125 -38.916875 5.8040625 -37.84375 5.703125 C-26.66427572 4.56678596 -10.44046716 -2.53957309 0 0 Z " fill="#DBC518" transform="translate(154,64)"/>
<path d="M0 0 C-0.33 0.66 -0.66 1.32 -1 2 C-2.85444472 2.20604941 -4.70945234 2.40778945 -6.56640625 2.58984375 C-9.32915341 3.05547529 -11.7023834 3.9226627 -14.3125 4.9375 C-23.12893239 8.28628302 -31.60414442 9.36686638 -41 9 C-41.33 9.99 -41.66 10.98 -42 12 C-42.33 11.01 -42.66 10.02 -43 9 C-38.98024517 6.21173075 -35.1895155 5.24771857 -30.4375 4.5 C-25.41873866 3.6486337 -20.53843998 2.66990949 -15.625 1.3125 C-10.33721591 -0.07825965 -5.44230266 -0.3250933 0 0 Z " fill="#EDEB71" transform="translate(154,57)"/>
<path d="M0 0 C0.33 0 0.66 0 1 0 C1.02578125 0.88042969 1.0515625 1.76085937 1.078125 2.66796875 C1.13484375 3.82941406 1.1915625 4.99085938 1.25 6.1875 C1.29640625 7.33605469 1.3428125 8.48460937 1.390625 9.66796875 C2.10470295 13.57251034 3.53712265 14.95356776 6 18 C7.01155262 20.69383919 7.63400688 23.44268711 8.25 26.25 C8.42273438 26.9821875 8.59546875 27.714375 8.7734375 28.46875 C10 33.72544643 10 33.72544643 10 35 C8.35 35 6.7 35 5 35 C5.09539062 34.33613281 5.19078125 33.67226562 5.2890625 32.98828125 C6.20315322 26.28354475 6.20315322 26.28354475 4 20 C3.01 20.66 2.02 21.32 1 22 C0.01 21.67 -0.98 21.34 -2 21 C-2.33 18.36 -2.66 15.72 -3 13 C-2.34 13 -1.68 13 -1 13 C-0.67 8.71 -0.34 4.42 0 0 Z " fill="#3C3C42" transform="translate(181,140)"/>
<path d="M0 0 C1 3 1 3 0 5.5 C-2.59051196 8.73813995 -5.17766512 9.48424651 -9 11 C-9.825 11.721875 -10.65 12.44375 -11.5 13.1875 C-14.78296374 15.56764871 -17.04054929 15.31054515 -21 15 C-18.52612021 11.64259171 -16.70444098 9.7960926 -13 8 C-12.21625 7.175 -11.4325 6.35 -10.625 5.5 C-7.77928926 2.7897993 -5.74825218 1.99953392 -2 1 C-1.34 0.67 -0.68 0.34 0 0 Z " fill="#5C5B60" transform="translate(169,111)"/>
<path d="M0 0 C0.66 0 1.32 0 2 0 C2.02685938 2.14576637 2.04633088 4.29162645 2.0625 6.4375 C2.07410156 7.63246094 2.08570313 8.82742187 2.09765625 10.05859375 C2 13 2 13 1 14 C-1.67058851 14.14115161 -4.32432238 14.04247107 -7 14 C-6.67 9.71 -6.34 5.42 -6 1 C-4.02 1.495 -4.02 1.495 -2 2 C-2 3.32 -2 4.64 -2 6 C-1.34 6 -0.68 6 0 6 C0 4.02 0 2.04 0 0 Z " fill="#1B1C21" transform="translate(157,162)"/>
<path d="M0 0 C2.38420461 2.55450494 3 3.4404523 3 7 C-0.875 5.125 -0.875 5.125 -2 4 C-11.53000308 3.20365728 -19.33014179 4.32125145 -28.45703125 7.04296875 C-33.2808259 8.34597833 -38.021293 8.79298516 -43 9 C-40.65027842 6.65027842 -39.47234094 6.48412321 -36.265625 5.81640625 C-35.30503174 5.61225098 -34.34443848 5.4080957 -33.35473633 5.19775391 C-32.33017334 4.98812012 -31.30561035 4.77848633 -30.25 4.5625 C-28.15492434 4.12381051 -26.0598722 3.68500865 -23.96484375 3.24609375 C-22.94374512 3.03452637 -21.92264648 2.82295898 -20.87060547 2.60498047 C-18.40818285 2.08602459 -15.9551553 1.54156427 -13.50390625 0.97265625 C-12.28574219 0.69292969 -11.06757813 0.41320313 -9.8125 0.125 C-8.76707031 -0.11992188 -7.72164062 -0.36484375 -6.64453125 -0.6171875 C-3.99956132 -1.0000635 -2.46998641 -0.97252261 0 0 Z " fill="#2A2510" transform="translate(161,54)"/>
<path d="M0 0 C2 3.75 2 3.75 2 6 C3.32 6.33 4.64 6.66 6 7 C5.01 7.33 4.02 7.66 3 8 C2.67 8.99 2.34 9.98 2 11 C3.32 11.33 4.64 11.66 6 12 C1.05 12 -3.9 12 -9 12 C-9 10.35 -9 8.7 -9 7 C-2.25 4 -2.25 4 0 4 C0 2.68 0 1.36 0 0 Z " fill="#3A3D49" transform="translate(140,151)"/>
<path d="M0 0 C-1 1 -1 1 -4.0625 1.0625 C-5.031875 1.041875 -6.00125 1.02125 -7 1 C-7 1.66 -7 2.32 -7 3 C-5.68 3.33 -4.36 3.66 -3 4 C-10.12950371 5.90120099 -16.63740707 6.22424141 -24 6 C-23.67 4.68 -23.34 3.36 -23 2 C-19.54315232 1.46896481 -16.08435738 0.95191093 -12.625 0.4375 C-11.64015625 0.28603516 -10.6553125 0.13457031 -9.640625 -0.02148438 C-8.22910156 -0.2293457 -8.22910156 -0.2293457 -6.7890625 -0.44140625 C-5.91975098 -0.57232666 -5.05043945 -0.70324707 -4.15478516 -0.83813477 C-2 -1 -2 -1 0 0 Z " fill="#F6EE3D" transform="translate(136,64)"/>
<path d="M0 0 C5.07692308 2.53846154 5.07692308 2.53846154 7 6 C7.1875 9.25 7.1875 9.25 7 12 C5.3125 13.125 5.3125 13.125 3 14 C0.25 13.125 0.25 13.125 -2 12 C-1.34 11.67 -0.68 11.34 0 11 C0 7.37 0 3.74 0 0 Z " fill="#E6D766" transform="translate(174,73)"/>
<path d="M0 0 C0.66 0.99 1.32 1.98 2 3 C4.05003955 4.19232613 4.05003955 4.19232613 6 5 C3.09996873 6.62332428 0.75429294 7.32053986 -2.546875 7.6328125 C-3.81337891 7.75849609 -3.81337891 7.75849609 -5.10546875 7.88671875 C-5.97816406 7.96535156 -6.85085937 8.04398438 -7.75 8.125 C-9.08224609 8.25455078 -9.08224609 8.25455078 -10.44140625 8.38671875 C-12.62702936 8.59823066 -14.81308238 8.80240227 -17 9 C-14.23776722 6.23776722 -11.79293383 6.42143709 -8 6 C-8 5.34 -8 4.68 -8 4 C-5.36 2.68 -2.72 1.36 0 0 Z " fill="#EECA1C" transform="translate(151,100)"/>
<path d="M0 0 C0.66 0 1.32 0 2 0 C2 2.64 2 5.28 2 8 C4.97 8 7.94 8 11 8 C11.33 10.64 11.66 13.28 12 16 C11.34 16.33 10.68 16.66 10 17 C10 15.68 10 14.36 10 13 C9.34 14.32 8.68 15.64 8 17 C6.68 16.67 5.36 16.34 4 16 C4 14.35 4 12.7 4 11 C4.99 10.67 5.98 10.34 7 10 C7.66 10.33 8.32 10.66 9 11 C9 10.34 9 9.68 9 9 C6.36 9.33 3.72 9.66 1 10 C0.67 6.7 0.34 3.4 0 0 Z " fill="#D8DB55" transform="translate(113,78)"/>
<path d="M0 0 C0.33 0 0.66 0 1 0 C1.144375 1.258125 1.28875 2.51625 1.4375 3.8125 C1.86642701 6.04829697 1.86642701 6.04829697 3 8 C5.87394404 9.61298139 8.77982829 10.3639167 12 11 C12 11.66 12 12.32 12 13 C10.68 13.33 9.36 13.66 8 14 C8 13.34 8 12.68 8 12 C4.16774573 11.91087781 0.73437848 12.12132271 -3 13 C-2.88490339 11.58249437 -2.75746342 10.16598831 -2.625 8.75 C-2.55539063 7.96109375 -2.48578125 7.1721875 -2.4140625 6.359375 C-1.98492887 3.914123 -1.21399362 2.15163097 0 0 Z " fill="#D2B839" transform="translate(167,75)"/>
<path d="M0 0 C4.48525648 0.656379 8.66914029 1.70074209 13 3 C13 3.33 13 3.66 13 4 C10.69 4.33 8.38 4.66 6 5 C6 5.66 6 6.32 6 7 C5.34 7 4.68 7 4 7 C4 7.66 4 8.32 4 9 C2.68 9 1.36 9 0 9 C-1.125 2.25 -1.125 2.25 0 0 Z " fill="#534E59" transform="translate(133,120)"/>
<path d="M0 0 C0.33 0 0.66 0 1 0 C1 3.96 1 7.92 1 12 C2.32 12 3.64 12 5 12 C5 12.99 5 13.98 5 15 C4.34 15 3.68 15 3 15 C3.165 16.134375 3.33 17.26875 3.5 18.4375 C4.07576084 22.97060294 4.09505266 27.43747238 4 32 C-1.26409827 22.13534527 -0.21256081 10.84060123 0 0 Z " fill="#B2901D" transform="translate(163,76)"/>
<path d="M0 0 C6.6 0 13.2 0 20 0 C20 0.33 20 0.66 20 1 C18.35 1 16.7 1 15 1 C15 1.66 15 2.32 15 3 C13.68 3.33 12.36 3.66 11 4 C11.33 4.66 11.66 5.32 12 6 C8.7 6 5.4 6 2 6 C2 4 2 4 4 2 C2.68 1.34 1.36 0.68 0 0 Z " fill="#2A232A" transform="translate(140,132)"/>
<path d="M0 0 C0 0.66 0 1.32 0 2 C-2 4 -2 4 -5 6 C-6.2065625 7.2684375 -6.2065625 7.2684375 -7.4375 8.5625 C-9.83092916 10.83917652 -10.8110443 11.64567159 -14 12 C-14 10 -14 10 -12.5 8.375 C-12.005 7.92125 -11.51 7.4675 -11 7 C-11.66 6.67 -12.32 6.34 -13 6 C-11.68 5.34 -10.36 4.68 -9 4 C-9.33 3.34 -9.66 2.68 -10 2 C-3.375 0 -3.375 0 0 0 Z " fill="#060508" transform="translate(166,109)"/>
<path d="M0 0 C0.33 0 0.66 0 1 0 C1.50509208 2.24886238 2.00389179 4.49913869 2.5 6.75 C2.7784375 8.00296875 3.056875 9.2559375 3.34375 10.546875 C4 14 4 14 4 18 C2.1875 17.875 2.1875 17.875 0 17 C-1.95222505 14.03800337 -3.08142845 12.08571266 -2.8125 8.5 C-2.544375 7.675 -2.27625 6.85 -2 6 C-1.649375 4.906875 -1.29875 3.81375 -0.9375 2.6875 C-0.4734375 1.3571875 -0.4734375 1.3571875 0 0 Z " fill="#F4DC2A" transform="translate(156,87)"/>
<path d="M0 0 C-9.28597346 2.42755144 -18.4858532 4.63053948 -28 6 C-28 5.01 -28 4.02 -28 3 C-24.08807535 2.10281053 -20.1700033 1.23614489 -16.25 0.375 C-15.13882813 0.11976562 -14.02765625 -0.13546875 -12.8828125 -0.3984375 C-11.81289062 -0.63046875 -10.74296875 -0.8625 -9.640625 -1.1015625 C-8.65610352 -1.32150879 -7.67158203 -1.54145508 -6.65722656 -1.76806641 C-3.71352165 -2.025005 -2.45336001 -1.57279718 0 0 Z " fill="#4C3C12" transform="translate(148,112)"/>
<path d="M0 0 C0.7425 0.33 1.485 0.66 2.25 1 C5.13883312 2.22782871 5.13883312 2.22782871 9 2 C9.433125 2.928125 9.86625 3.85625 10.3125 4.8125 C11.74574242 7.94274244 11.74574242 7.94274244 13.75 9.625 C14.1625 10.07875 14.575 10.5325 15 11 C14.6875 13.1875 14.6875 13.1875 14 15 C13.75507813 14.38640625 13.51015625 13.7728125 13.2578125 13.140625 C11.74947715 10.57364433 10.55743212 9.96142096 7.875 8.75 C7.15054688 8.41484375 6.42609375 8.0796875 5.6796875 7.734375 C5.12539062 7.49203125 4.57109375 7.2496875 4 7 C4 6.01 4 5.02 4 4 C3.34 4 2.68 4 2 4 C2 3.34 2 2.68 2 2 C0.68 2.33 -0.64 2.66 -2 3 C-1.34 2.01 -0.68 1.02 0 0 Z " fill="#C7A22C" transform="translate(178,93)"/>
<path d="M0 0 C6.46326465 -0.45356243 9.60931587 0.40621058 15 4 C11.71023192 5.09658936 10.28696233 4.79953138 7 4 C7.33 4.99 7.66 5.98 8 7 C8.06740865 8.56118428 8.08514456 10.1250252 8.0625 11.6875 C8.05347656 12.49574219 8.04445312 13.30398437 8.03515625 14.13671875 C8.02355469 14.75160156 8.01195312 15.36648437 8 16 C7.34 16.33 6.68 16.66 6 17 C5.875 11.25 5.875 11.25 7 9 C6.34 9 5.68 9 5 9 C5.33 6.69 5.66 4.38 6 2 C4.02 2 2.04 2 0 2 C0 1.34 0 0.68 0 0 Z " fill="#1B1B20" transform="translate(156,158)"/>
<path d="M0 0 C2.64 0.33 5.28 0.66 8 1 C8.33 2.32 8.66 3.64 9 5 C8.01 5 7.02 5 6 5 C5.67 5.66 5.34 6.32 5 7 C5 6.34 5 5.68 5 5 C4.34 5 3.68 5 3 5 C3 7.97 3 10.94 3 14 C1.18751015 10.3750203 0.68111085 8.62740416 0.375 4.75 C0.30023438 3.85796875 0.22546875 2.9659375 0.1484375 2.046875 C0.09945312 1.37140625 0.05046875 0.6959375 0 0 Z " fill="#0C0B10" transform="translate(163,162)"/>
<path d="M0 0 C0.268125 0.556875 0.53625 1.11375 0.8125 1.6875 C1.96991625 4.05478338 1.96991625 4.05478338 3.5625 6.3125 C5.28978782 9.54177723 5.64505574 12.37956857 6 16 C4.08654673 16.53251766 2.1690705 17.05059483 0.25 17.5625 C-0.81734375 17.85253906 -1.8846875 18.14257812 -2.984375 18.44140625 C-5.84335927 18.97098494 -7.31597383 18.98370862 -10 18 C-10 17.67 -10 17.34 -10 17 C-6.04 16.34 -2.08 15.68 2 15 C1.67 13.63875 1.34 12.2775 1 10.875 C0.17007504 7.17540494 -0.19525704 3.80751232 0 0 Z " fill="#7B6312" transform="translate(158,92)"/>
<path d="M0 0 C0.33 0 0.66 0 1 0 C3.11161731 17.85649203 3.11161731 17.85649203 4 26 C3.01 25.67 2.02 25.34 1 25 C-0.125 21.6875 -0.125 21.6875 -1 18 C-1.20625 17.195625 -1.4125 16.39125 -1.625 15.5625 C-1.74875 15.046875 -1.8725 14.53125 -2 14 C-1.34 14 -0.68 14 0 14 C0 9.38 0 4.76 0 0 Z " fill="#DABC48" transform="translate(162,82)"/>
<path d="M0 0 C0.66 0.33 1.32 0.66 2 1 C2.75 3.9375 2.75 3.9375 3 7 C0.12556598 9.87443402 -2.89152035 9.38244775 -6.75 9.5 C-11.88350151 9.6598343 -16.1429385 10.10605149 -21 12 C-20.67 11.01 -20.34 10.02 -20 9 C-19.01 9 -18.02 9 -17 9 C-17 8.34 -17 7.68 -17 7 C-11.06 7 -5.12 7 1 7 C0.34 5.68 -0.32 4.36 -1 3 C-0.67 2.01 -0.34 1.02 0 0 Z " fill="#7E7676" transform="translate(200,115)"/>
<path d="M0 0 C2.97 0 5.94 0 9 0 C9 0.66 9 1.32 9 2 C8.030625 2.12375 7.06125 2.2475 6.0625 2.375 C5.051875 2.58125 4.04125 2.7875 3 3 C2.67 3.66 2.34 4.32 2 5 C2.99 5 3.98 5 5 5 C5 5.66 5 6.32 5 7 C4.01 7.33 3.02 7.66 2 8 C1.97284617 9.74991334 1.95353449 11.49994945 1.9375 13.25 C1.92589844 14.22453125 1.91429687 15.1990625 1.90234375 16.203125 C1.98804423 18.65758678 2.29293934 20.66168914 3 23 C2.34 23 1.68 23 1 23 C0.6603981 21.12612523 0.32861309 19.25083303 0 17.375 C-0.2784375 15.80878906 -0.2784375 15.80878906 -0.5625 14.2109375 C-0.98715797 11.09425135 -1.07545206 8.14069188 -1 5 C-0.34 5 0.32 5 1 5 C0.67 3.35 0.34 1.7 0 0 Z " fill="#504F53" transform="translate(178,117)"/>
<path d="M0 0 C0.66 0 1.32 0 2 0 C3.28317892 3.84953676 3.06643637 6.94738135 3 11 C0.69 11.33 -1.62 11.66 -4 12 C-3.52309796 10.37433394 -3.04340334 8.74948689 -2.5625 7.125 C-2.29566406 6.22007813 -2.02882812 5.31515625 -1.75390625 4.3828125 C-1 2 -1 2 0 0 Z " fill="#F6F23B" transform="translate(152,65)"/>
<path d="M0 0 C0.66 0.33 1.32 0.66 2 1 C1.67 7.6 1.34 14.2 1 21 C0.34 21 -0.32 21 -1 21 C-1.93724883 14.22296996 -2.23030877 7.76669822 -1 1 C-0.67 0.67 -0.34 0.34 0 0 Z " fill="#FAE742" transform="translate(161,75)"/>
<path d="M0 0 C1 3 1 3 0 5.5 C-2.6047066 8.75588325 -5.09115121 9.67378344 -9 11 C-9.99 11 -10.98 11 -12 11 C-10.48781092 6.76587058 -7.72160191 5.30739318 -4 3 C-2.65824027 2.01133494 -1.32103998 1.0161846 0 0 Z " fill="#616066" transform="translate(169,111)"/>
<path d="M0 0 C1.98 0.99 3.96 1.98 6 3 C6 3.66 6 4.32 6 5 C6.66 5 7.32 5 8 5 C8.12375 5.639375 8.2475 6.27875 8.375 6.9375 C8.58125 7.618125 8.7875 8.29875 9 9 C9.66 9.33 10.32 9.66 11 10 C9.25 10.6875 9.25 10.6875 7 11 C4.75 9.6875 4.75 9.6875 3 8 C3 7.34 3 6.68 3 6 C2.01 5.67 1.02 5.34 0 5 C0 3.35 0 1.7 0 0 Z " fill="#A07710" transform="translate(189,110)"/>
<path d="M0 0 C2 3.875 2 3.875 2 5 C2.32670903 7.00109278 2.65977214 9.00116131 3 11 C0.33333333 11 -2.33333333 11 -5 11 C-4.67 10.2575 -4.34 9.515 -4 8.75 C-2.77217129 5.86116688 -2.77217129 5.86116688 -3 2 C-2.01 2 -1.02 2 0 2 C0 1.34 0 0.68 0 0 Z " fill="#36363F" transform="translate(166,143)"/>
<path d="M0 0 C1.32 0 2.64 0 4 0 C4 1.32 4 2.64 4 4 C6.97 4.495 6.97 4.495 10 5 C10 5.66 10 6.32 10 7 C6.62902617 8.49821059 4.79557881 9 1 9 C0.67 6.03 0.34 3.06 0 0 Z " fill="#FEF224" transform="translate(116,74)"/>
<path d="M0 0 C-0.33 0.66 -0.66 1.32 -1 2 C-3.47017339 2.64259881 -5.87021882 3.16873874 -8.375 3.625 C-9.06078125 3.7590625 -9.7465625 3.893125 -10.453125 4.03125 C-13.34900157 4.58338211 -16.04560993 5 -19 5 C-19 5.99 -19 6.98 -19 8 C-19.99 7.67 -20.98 7.34 -22 7 C-21.34 6.67 -20.68 6.34 -20 6 C-20 5.01 -20 4.02 -20 3 C-17.60530271 2.49395076 -15.20948283 1.99500483 -12.8125 1.5 C-12.13896484 1.35691406 -11.46542969 1.21382813 -10.77148438 1.06640625 C-7.12490207 0.31930158 -3.72351043 -0.17352282 0 0 Z " fill="#B6961A" transform="translate(139,109)"/>
<path d="M0 0 C-0.61538462 7.50769231 -0.61538462 7.50769231 -2.5625 10 C-3.2740625 10.495 -3.2740625 10.495 -4 11 C-5.5 9.625 -5.5 9.625 -7 8 C-7 7.34 -7 6.68 -7 6 C-6.34 6 -5.68 6 -5 6 C-5.33 4.35 -5.66 2.7 -6 1 C-4 0 -4 0 0 0 Z " fill="#EDDE1C" transform="translate(157,84)"/>
<path d="M0 0 C4.75 0.875 4.75 0.875 7 2 C6.34 5.3 5.68 8.6 5 12 C1.92732833 7.90310444 0 5.13829491 0 0 Z " fill="#EDDE55" transform="translate(159,63)"/>
<path d="M0 0 C1.32 1.65 2.64 3.3 4 5 C2.02 7.31 0.04 9.62 -2 12 C-2.99 11.67 -3.98 11.34 -5 11 C-5 9.68 -5 8.36 -5 7 C-4.01 7 -3.02 7 -2 7 C-1.34 4.69 -0.68 2.38 0 0 Z " fill="#8E8C70" transform="translate(181,81)"/>
<path d="M0 0 C0.33 0.99 0.66 1.98 1 3 C3.00016466 4.20882096 3.00016466 4.20882096 5 5 C5 5.66 5 6.32 5 7 C0.83861737 7.08159574 -2.9472484 6.98248524 -7 6 C-6.67 5.01 -6.34 4.02 -6 3 C-4.02 3 -2.04 3 0 3 C0 2.01 0 1.02 0 0 Z " fill="#2E271E" transform="translate(187,116)"/>
<path d="M0 0 C0.66 0.33 1.32 0.66 2 1 C1.34 3.64 0.68 6.28 0 9 C-0.66 9 -1.32 9 -2 9 C-2.33 9.99 -2.66 10.98 -3 12 C-3.66 11.34 -4.32 10.68 -5 10 C-4.625 7.875 -4.625 7.875 -4 6 C-4.66 5.67 -5.32 5.34 -6 5 C-5.34 5 -4.68 5 -4 5 C-4.33 4.01 -4.66 3.02 -5 2 C-2.625 0.9375 -2.625 0.9375 0 0 Z " fill="#FBF437" transform="translate(148,65)"/>
<path d="M0 0 C2.625 0.375 2.625 0.375 5 1 C4.67 2.65 4.34 4.3 4 6 C2.35 6.33 0.7 6.66 -1 7 C-1.625 4.625 -1.625 4.625 -2 2 C-1.34 1.34 -0.68 0.68 0 0 Z " fill="#AEBF3D" transform="translate(144,84)"/>
<path d="M0 0 C1.93938819 2.90908228 2.96774957 5.40862379 4.125 8.6875 C4.47820312 9.68136719 4.83140625 10.67523438 5.1953125 11.69921875 C5.46085938 12.45847656 5.72640625 13.21773437 6 14 C4.33333333 14 2.66666667 14 1 14 C0.855625 12.865625 0.71125 11.73125 0.5625 10.5625 C0.38828522 7.19222799 0.38828522 7.19222799 -1 6 C-1.125 3.5 -1.125 3.5 -1 1 C-0.67 0.67 -0.34 0.34 0 0 Z " fill="#EFD336" transform="translate(156,61)"/>
<path d="M0 0 C-1 1 -1 1 -4.0625 1.0625 C-5.031875 1.041875 -6.00125 1.02125 -7 1 C-7 1.66 -7 2.32 -7 3 C-5.68 3.33 -4.36 3.66 -3 4 C-4.41377782 4.36552803 -5.83120576 4.71695495 -7.25 5.0625 C-8.03890625 5.25972656 -8.8278125 5.45695312 -9.640625 5.66015625 C-12.10394822 6.01497267 -13.65604132 5.76877544 -16 5 C-14.68 4.34 -13.36 3.68 -12 3 C-13.32 2.67 -14.64 2.34 -16 2 C-4.57142857 -2.28571429 -4.57142857 -2.28571429 0 0 Z " fill="#FBF348" transform="translate(136,64)"/>
<path d="M0 0 C2 3.75 2 3.75 2 6 C1.43410156 6.18175781 0.86820313 6.36351562 0.28515625 6.55078125 C-0.81505859 6.92783203 -0.81505859 6.92783203 -1.9375 7.3125 C-2.66839844 7.55613281 -3.39929688 7.79976562 -4.15234375 8.05078125 C-6.35932024 8.91240441 -6.35932024 8.91240441 -7 12 C-7.66 12 -8.32 12 -9 12 C-9 10.35 -9 8.7 -9 7 C-2.25 4 -2.25 4 0 4 C0 2.68 0 1.36 0 0 Z " fill="#4E4E51" transform="translate(140,151)"/>
<path d="M0 0 C0.66 0.33 1.32 0.66 2 1 C2 1.66 2 2.32 2 3 C1.34 3 0.68 3 0 3 C0.66 3.66 1.32 4.32 2 5 C2.33 5.99 2.66 6.98 3 8 C0.69 8.33 -1.62 8.66 -4 9 C-4 8.34 -4 7.68 -4 7 C-6.31 7 -8.62 7 -11 7 C-11 6.34 -11 5.68 -11 5 C-10.37351563 4.97421875 -9.74703125 4.9484375 -9.1015625 4.921875 C-8.28429687 4.86515625 -7.46703125 4.8084375 -6.625 4.75 C-5.81289062 4.70359375 -5.00078125 4.6571875 -4.1640625 4.609375 C-1.81161073 4.2077908 -1.81161073 4.2077908 -0.7109375 1.953125 C-0.47632813 1.30859375 -0.24171875 0.6640625 0 0 Z " fill="#F9EE28" transform="translate(150,87)"/>
<path d="M0 0 C0 0.66 0 1.32 0 2 C-1.65 2 -3.3 2 -5 2 C-4.72965366 4.43717258 -4.72965366 4.43717258 -4 7 C-3.01 7.66 -2.02 8.32 -1 9 C-2.65 9 -4.3 9 -6 9 C-6.33 10.32 -6.66 11.64 -7 13 C-7.33 9.04 -7.66 5.08 -8 1 C-5.07175348 0.02391783 -3.04386724 -0.08226668 0 0 Z " fill="#B5AF3C" transform="translate(122,87)"/>
<path d="M0 0 C0.99 0 1.98 0 3 0 C3.33 1.98 3.66 3.96 4 6 C2.02 6.99 2.02 6.99 0 8 C-0.66 7.34 -1.32 6.68 -2 6 C-1.44444444 1.44444444 -1.44444444 1.44444444 0 0 Z " fill="#B0BC41" transform="translate(150,76)"/>
<path d="M0 0 C0.66 0 1.32 0 2 0 C6.23632385 8.03501094 6.23632385 8.03501094 5.25 12.0625 C4.8375 12.701875 4.425 13.34125 4 14 C3.34 13.34 2.68 12.68 2 12 C2 10.68 2 9.36 2 8 C1.34 8 0.68 8 0 8 C0 5.36 0 2.72 0 0 Z " fill="#E8C74A" transform="translate(166,91)"/>
<path d="M0 0 C0.99 0.33 1.98 0.66 3 1 C3 3.31 3 5.62 3 8 C2.21625 8.0825 1.4325 8.165 0.625 8.25 C-2.14749104 8.72806339 -2.14749104 8.72806339 -3.3125 11.0625 C-3.539375 11.701875 -3.76625 12.34125 -4 13 C-4.66 10.36 -5.32 7.72 -6 5 C-3.525 5.99 -3.525 5.99 -1 7 C-0.25042843 3.52852158 -0.25042843 3.52852158 0 0 Z " fill="#E0E04C" transform="translate(153,76)"/>
<path d="M0 0 C1.65 0.33 3.3 0.66 5 1 C3.25 4.875 3.25 4.875 1 6 C-1.3329866 6.04022391 -3.66706666 6.04320247 -6 6 C-5.34 5.67 -4.68 5.34 -4 5 C-4 4.34 -4 3.68 -4 3 C-3.01 3 -2.02 3 -1 3 C-0.67 2.01 -0.34 1.02 0 0 Z " fill="#E9DB1F" transform="translate(148,58)"/>
<path d="M0 0 C0.99 0 1.98 0 3 0 C3.33 1.65 3.66 3.3 4 5 C4.66 4.34 5.32 3.68 6 3 C8.125 2.375 8.125 2.375 10 2 C9.67 3.32 9.34 4.64 9 6 C6.03 6 3.06 6 0 6 C0 4.02 0 2.04 0 0 Z " fill="#42434F" transform="translate(132,170)"/>
<path d="M0 0 C2.26609984 4.53219967 1.92735976 6.17772925 1 11 C1.66 11.33 2.32 11.66 3 12 C1.1875 13.5625 1.1875 13.5625 -1 15 C-1.99 14.67 -2.98 14.34 -4 14 C-3.67 13.34 -3.34 12.68 -3 12 C-2.34 12 -1.68 12 -1 12 C-1 11.34 -1 10.68 -1 10 C-1.66 9.67 -2.32 9.34 -3 9 C-2.01 9 -1.02 9 0 9 C0 6.03 0 3.06 0 0 Z " fill="#36280B" transform="translate(167,99)"/>
<path d="M0 0 C6.76923077 3.44615385 6.76923077 3.44615385 7.9375 6.25 C7.958125 6.8275 7.97875 7.405 8 8 C8.66 8 9.32 8 10 8 C10.33 9.65 10.66 11.3 11 13 C10.34 13 9.68 13 9 13 C9 11.68 9 10.36 9 9 C8.34 9 7.68 9 7 9 C7 8.01 7 7.02 7 6 C5.35 5.67 3.7 5.34 2 5 C2 4.34 2 3.68 2 3 C1.34 3 0.68 3 0 3 C0 2.01 0 1.02 0 0 Z " fill="#B78E10" transform="translate(184,100)"/>
<path d="M0 0 C0.66 0 1.32 0 2 0 C2 2.31 2 4.62 2 7 C-2.40114397 6.49701212 -4.71195019 4.91227269 -8 2 C-3.25 2.875 -3.25 2.875 -1 4 C-0.67 2.68 -0.34 1.36 0 0 Z " fill="#47474F" transform="translate(180,169)"/>
<path d="M0 0 C3.11259019 2.81137178 3.64900977 4.78811722 4 9 C3.67 9.99 3.34 10.98 3 12 C2.34 12 1.68 12 1 12 C0.03929566 9.11788698 -0.10581883 7.30149956 -0.0625 4.3125 C-0.05347656 3.50425781 -0.04445312 2.69601563 -0.03515625 1.86328125 C-0.02355469 1.24839844 -0.01195312 0.63351563 0 0 Z " fill="#080810" transform="translate(184,159)"/>
<path d="M0 0 C-0.474375 0.61875 -0.94875 1.2375 -1.4375 1.875 C-3.02417441 3.90705546 -3.02417441 3.90705546 -4 6 C-6.375 6.1875 -6.375 6.1875 -9 6 C-9.66 5.01 -10.32 4.02 -11 3 C-7.14243493 0.84694043 -4.44870215 -0.39253254 0 0 Z " fill="#080909" transform="translate(151,113)"/>
<path d="M0 0 C0.99 0 1.98 0 3 0 C3.042721 1.66611905 3.04063832 3.33382885 3 5 C2 6 2 6 -0.5625 6.0625 C-1.7690625 6.0315625 -1.7690625 6.0315625 -3 6 C-3.33 4.68 -3.66 3.36 -4 2 C-2.68 2 -1.36 2 0 2 C0 1.34 0 0.68 0 0 Z " fill="#F2E922" transform="translate(142,78)"/>
<path d="M0 0 C-0.99 0.495 -0.99 0.495 -2 1 C-2.33 1.99 -2.66 2.98 -3 4 C-3.66 4 -4.32 4 -5 4 C-5.33 3.34 -5.66 2.68 -6 2 C-7.051875 2.33 -8.10375 2.66 -9.1875 3 C-12.38873357 3.83966782 -14.7411008 4.19750904 -18 4 C-15.25686894 2.17124596 -13.22925051 1.27962972 -10.125 0.3125 C-9.28195313 0.04050781 -8.43890625 -0.23148438 -7.5703125 -0.51171875 C-4.72316953 -1.05258938 -2.77903135 -0.7420711 0 0 Z " fill="#CEBA0F" transform="translate(154,64)"/>
<path d="M0 0 C2.475 0.99 2.475 0.99 5 2 C4.01 2.495 4.01 2.495 3 3 C2.63451555 4.32488113 2.3062434 5.66018514 2 7 C1.36345658 8.3479743 0.70394612 9.68596724 0 11 C-0.66 10.67 -1.32 10.34 -2 10 C-2.17942163 6.05272412 -2.09350689 3.4019487 0 0 Z " fill="#121116" transform="translate(174,121)"/>
<path d="M0 0 C0.33 0 0.66 0 1 0 C1 2.31 1 4.62 1 7 C0.34 7 -0.32 7 -1 7 C-1 8.65 -1 10.3 -1 12 C-0.34 12.33 0.32 12.66 1 13 C-0.32 13 -1.64 13 -3 13 C-2.88490339 11.58249437 -2.75746342 10.16598831 -2.625 8.75 C-2.55539063 7.96109375 -2.48578125 7.1721875 -2.4140625 6.359375 C-1.98492887 3.914123 -1.21399362 2.15163097 0 0 Z " fill="#E3CB2F" transform="translate(167,75)"/>
<path d="M0 0 C0.33 0.45375 0.66 0.9075 1 1.375 C4.0377843 3.84319974 7.19187061 4.18843144 11 5 C10.67 3.68 10.34 2.36 10 1 C10.66 1 11.32 1 12 1 C12.5625 2.9375 12.5625 2.9375 13 5 C12 6 12 6 9.49609375 6.09765625 C7.98208984 6.08025391 7.98208984 6.08025391 6.4375 6.0625 C5.42558594 6.05347656 4.41367188 6.04445313 3.37109375 6.03515625 C2.58863281 6.02355469 1.80617187 6.01195313 1 6 C0.67 4.02 0.34 2.04 0 0 Z " fill="#807878" transform="translate(174,112)"/>
<path d="M0 0 C1 3 1 3 1.4375 5.625 C1.7159375 6.800625 1.7159375 6.800625 2 8 C2.66 8.33 3.32 8.66 4 9 C1.69 9 -0.62 9 -3 9 C-2.25 2.25 -2.25 2.25 0 0 Z " fill="#040509" transform="translate(153,167)"/>
<path d="M0 0 C0.33 0 0.66 0 1 0 C1.33820166 1.5823006 1.67035939 3.16589375 2 4.75 C2.185625 5.63171875 2.37125 6.5134375 2.5625 7.421875 C3 10 3 10 3 14 C2.01 14 1.02 14 0 14 C-0.19393875 11.85473901 -0.37998676 9.70876323 -0.5625 7.5625 C-0.71912109 5.77005859 -0.71912109 5.77005859 -0.87890625 3.94140625 C-0.91886719 2.97074219 -0.95882812 2.00007812 -1 1 C-0.67 0.67 -0.34 0.34 0 0 Z " fill="#191921" transform="translate(183,161)"/>
<path d="M0 0 C0.99 0.33 1.98 0.66 3 1 C3.6875 3.0625 3.6875 3.0625 4 5 C1.29120665 6.35439668 -1.00933268 6.06501451 -4 6 C-2.84826645 3.53199953 -1.95216435 1.95216435 0 0 Z " fill="#D3B56B" transform="translate(184,87)"/>
<path d="M0 0 C2.475 0.495 2.475 0.495 5 1 C5.33 2.32 5.66 3.64 6 5 C4.02 5.99 4.02 5.99 2 7 C0 5 0 5 -0.125 2.375 C-0.08375 1.59125 -0.0425 0.8075 0 0 Z " fill="#EEDD76" transform="translate(175,80)"/>
<path d="M0 0 C1.32 0.33 2.64 0.66 4 1 C4.33 2.32 4.66 3.64 5 5 C5.66 5 6.32 5 7 5 C7.33 7.31 7.66 9.62 8 12 C5.45868642 9.69716746 3.92889705 7.32686207 2.3125 4.3125 C1.87550781 3.50425781 1.43851563 2.69601563 0.98828125 1.86328125 C0.66214844 1.24839844 0.33601562 0.63351563 0 0 Z " fill="#7E6440" transform="translate(176,101)"/>
<path d="M0 0 C0.66 0 1.32 0 2 0 C2 1.32 2 2.64 2 4 C2.66 4 3.32 4 4 4 C4.33 5.32 4.66 6.64 5 8 C3.35 7.67 1.7 7.34 0 7 C-1.125 2.25 -1.125 2.25 0 0 Z " fill="#453217" transform="translate(173,93)"/>
<path d="M0 0 C1.65 0 3.3 0 5 0 C5.33 1.65 5.66 3.3 6 5 C6.66 5 7.32 5 8 5 C7.34 6.65 6.68 8.3 6 10 C4.98268577 7.96537153 3.96865681 5.93339573 3 3.875 C2.02859623 1.83448849 2.02859623 1.83448849 0 0 Z " fill="#917328" transform="translate(170,87)"/>
<path d="M0 0 C1.98 0.495 1.98 0.495 4 1 C3.67 2.65 3.34 4.3 3 6 C4.98 5.67 6.96 5.34 9 5 C8.67 5.99 8.34 6.98 8 8 C5.03 8 2.06 8 -1 8 C-0.67 5.36 -0.34 2.72 0 0 Z " fill="#DAE350" transform="translate(140,84)"/>
<path d="M0 0 C0 0.66 0 1.32 0 2 C0.99 2 1.98 2 3 2 C3 3.32 3 4.64 3 6 C2.34 6 1.68 6 1 6 C0.67 5.34 0.34 4.68 0 4 C-1.89533342 3.53476937 -1.89533342 3.53476937 -4.0625 3.375 C-5.361875 3.25125 -6.66125 3.1275 -8 3 C-5.36657694 0.36657694 -3.69534435 0 0 0 Z " fill="#EAEF3C" transform="translate(136,83)"/>
<path d="M0 0 C2.31 0.33 4.62 0.66 7 1 C7 1.66 7 2.32 7 3 C5.68 3 4.36 3 3 3 C3 3.99 3 4.98 3 6 C2.34 6 1.68 6 1 6 C0.67 4.02 0.34 2.04 0 0 Z " fill="#9CA1BB" transform="translate(131,164)"/>
<path d="M0 0 C0.33 0 0.66 0 1 0 C1 5.61 1 11.22 1 17 C-0.32 17.33 -1.64 17.66 -3 18 C-3 17.01 -3 16.02 -3 15 C-2.01 15 -1.02 15 0 15 C0 10.05 0 5.1 0 0 Z " fill="#333339" transform="translate(150,158)"/>
<path d="M0 0 C2.475 0.99 2.475 0.99 5 2 C4.01 2.495 4.01 2.495 3 3 C3.30035156 3.68707031 3.60070312 4.37414062 3.91015625 5.08203125 C4.48056641 6.43361328 4.48056641 6.43361328 5.0625 7.8125 C5.63677734 9.15248047 5.63677734 9.15248047 6.22265625 10.51953125 C7 13 7 13 6 16 C4.9979249 13.52165356 3.99824992 11.04238664 3 8.5625 C2.71382812 7.85544922 2.42765625 7.14839844 2.1328125 6.41992188 C0 1.11328125 0 1.11328125 0 0 Z " fill="#937D14" transform="translate(156,60)"/>
<path d="M0 0 C3.375 -0.1875 3.375 -0.1875 7 0 C7.66 0.99 8.32 1.98 9 3 C6.03 3 3.06 3 0 3 C0 2.01 0 1.02 0 0 Z " fill="#08070E" transform="translate(169,173)"/>
<path d="M0 0 C0.66 0 1.32 0 2 0 C2.33 2.97 2.66 5.94 3 9 C2.01 9 1.02 9 0 9 C0 6.03 0 3.06 0 0 Z " fill="#5D5C61" transform="translate(166,167)"/>
<path d="M0 0 C2.475 0.99 2.475 0.99 5 2 C5 4.31 5 6.62 5 9 C7.31 9 9.62 9 12 9 C12 9.33 12 9.66 12 10 C9.36 10 6.72 10 4 10 C4 7.69 4 5.38 4 3 C2.68 3.33 1.36 3.66 0 4 C0 2.68 0 1.36 0 0 Z " fill="#05060C" transform="translate(178,166)"/>
<path d="M0 0 C0.33 0.99 0.66 1.98 1 3 C0.01 3.495 0.01 3.495 -1 4 C-2.13350534 6.01669827 -2.13350534 6.01669827 -3 8 C-6 4.25 -6 4.25 -6 2 C-4.02 1.34 -2.04 0.68 0 0 Z " fill="#4C4B52" transform="translate(138,133)"/>
<path d="M0 0 C2.31 0 4.62 0 7 0 C6.67 0.99 6.34 1.98 6 3 C4.68 3 3.36 3 2 3 C1.67 3.99 1.34 4.98 1 6 C0.01 5.67 -0.98 5.34 -2 5 C-1.01 4.67 -0.02 4.34 1 4 C0.67 2.68 0.34 1.36 0 0 Z " fill="#0D0B10" transform="translate(139,133)"/>
<path d="M0 0 C1.32 0.33 2.64 0.66 4 1 C4 1.99 4 2.98 4 4 C3.01 4.33 2.02 4.66 1 5 C0.67 4.67 0.34 4.34 0 4 C-0.99 4.99 -1.98 5.98 -3 7 C-3.33 6.34 -3.66 5.68 -4 5 C-3.34 5 -2.68 5 -2 5 C-2 4.01 -2 3.02 -2 2 C-1.34 2 -0.68 2 0 2 C0 1.34 0 0.68 0 0 Z " fill="#6C6870" transform="translate(175,118)"/>
<path d="M0 0 C0.66 0 1.32 0 2 0 C2.33 2.31 2.66 4.62 3 7 C2.34 7 1.68 7 1 7 C0.67 7.66 0.34 8.32 0 9 C-0.66 8.67 -1.32 8.34 -2 8 C-1.34 5.36 -0.68 2.72 0 0 Z " fill="#746339" transform="translate(170,102)"/>
<path d="M0 0 C0.66 0 1.32 0 2 0 C1.979375 0.9075 1.95875 1.815 1.9375 2.75 C1.85422971 5.84934697 1.85422971 5.84934697 2.625 8.125 C3.13048226 10.6524113 2.2019033 11.78886492 1 14 C0.63906896 11.85529407 0.28642411 9.70919203 -0.0625 7.5625 C-0.25972656 6.36753906 -0.45695313 5.17257813 -0.66015625 3.94140625 C-0.77230469 2.97074219 -0.88445312 2.00007813 -1 1 C-0.67 0.67 -0.34 0.34 0 0 Z " fill="#B09C4B" transform="translate(171,93)"/>
<path d="M0 0 C0.66 0 1.32 0 2 0 C3.38226016 2.76452033 3.09525387 5.0461363 3.0625 8.125 C3.05347656 9.22070312 3.04445313 10.31640625 3.03515625 11.4453125 C3.02355469 12.28835937 3.01195313 13.13140625 3 14 C2.67 14 2.34 14 2 14 C2 11.36 2 8.72 2 6 C1.34 6 0.68 6 0 6 C0 4.02 0 2.04 0 0 Z " fill="#EFDA34" transform="translate(113,72)"/>
<path d="M0 0 C0.89203125 0.00902344 1.7840625 0.01804688 2.703125 0.02734375 C3.37859375 0.03894531 4.0540625 0.05054688 4.75 0.0625 C4.42 0.7225 4.09 1.3825 3.75 2.0625 C1.02734375 2.4765625 1.02734375 2.4765625 -2.3125 2.6875 C-3.41722656 2.76226562 -4.52195313 2.83703125 -5.66015625 2.9140625 C-6.51480469 2.96304688 -7.36945313 3.01203125 -8.25 3.0625 C-8.58 2.4025 -8.91 1.7425 -9.25 1.0625 C-6.09493858 0.12630187 -3.28413498 -0.0432123 0 0 Z " fill="#EAE27C" transform="translate(149.25,56.9375)"/>
<path d="M0 0 C0.99 0 1.98 0 3 0 C3.33 1.98 3.66 3.96 4 6 C2.68 5.67 1.36 5.34 0 5 C-0.5625 3.0625 -0.5625 3.0625 -1 1 C-0.67 0.67 -0.34 0.34 0 0 Z " fill="#F5DE40" transform="translate(156,99)"/>
<path d="M0 0 C1.32 0.33 2.64 0.66 4 1 C4.12375 1.94875 4.2475 2.8975 4.375 3.875 C4.71687177 7.08667191 4.71687177 7.08667191 7 9 C5.68 9.33 4.36 9.66 3 10 C2.06576355 6.98968256 1.95550089 6.13349732 3 3 C2.34 3 1.68 3 1 3 C0.67 2.01 0.34 1.02 0 0 Z " fill="#A59A5E" transform="translate(163,62)"/>
<path d="M0 0 C1.65 0 3.3 0 5 0 C5 1.98 5 3.96 5 6 C4.34 6 3.68 6 3 6 C1.66666667 4.66666667 0.33333333 3.33333333 -1 2 C-0.67 1.34 -0.34 0.68 0 0 Z " fill="#A3A8BD" transform="translate(141,163)"/>
<path d="M0 0 C3.3 0 6.6 0 10 0 C10.33 1.32 10.66 2.64 11 4 C9.68 4 8.36 4 7 4 C7 3.34 7 2.68 7 2 C4.69 1.67 2.38 1.34 0 1 C0 0.67 0 0.34 0 0 Z " fill="#848BA6" transform="translate(131,163)"/>
<path d="M0 0 C1.1446875 0.2784375 1.1446875 0.2784375 2.3125 0.5625 C5.08967375 1.22819173 5.08967375 1.22819173 8 0 C7.67 0.99 7.34 1.98 7 3 C4.69 3.33 2.38 3.66 0 4 C0 2.68 0 1.36 0 0 Z " fill="#191A25" transform="translate(142,158)"/>
<path d="M0 0 C0.66 0 1.32 0 2 0 C2 2.31 2 4.62 2 7 C0.68 6.67 -0.64 6.34 -2 6 C-1.49396008 3.83125748 -1.00016187 2.00032373 0 0 Z " fill="#121219" transform="translate(179,140)"/>
<path d="M0 0 C2.3125 0.1875 2.3125 0.1875 4 1 C2.47058649 4.05882701 0.05780454 4.68951234 -3 6 C-3.66 5.67 -4.32 5.34 -5 5 C-2.75 2.4375 -2.75 2.4375 0 0 Z " fill="#4A494C" transform="translate(161,114)"/>
<path d="M0 0 C3.465 1.485 3.465 1.485 7 3 C6.67 4.32 6.34 5.64 6 7 C5.34 7 4.68 7 4 7 C4 6.01 4 5.02 4 4 C3.34 4 2.68 4 2 4 C2 3.34 2 2.68 2 2 C0.68 2.33 -0.64 2.66 -2 3 C-1.34 2.01 -0.68 1.02 0 0 Z " fill="#B6901F" transform="translate(178,93)"/>
<path d="M0 0 C0 0.66 0 1.32 0 2 C-3.37097383 3.49821059 -5.20442119 4 -9 4 C-8.67 3.01 -8.34 2.02 -8 1 C-5.23735711 0.40267181 -2.83967231 0 0 0 Z " fill="#F7E50C" transform="translate(126,79)"/>
<path d="M0 0 C2.97 0 5.94 0 9 0 C8.67 0.99 8.34 1.98 8 3 C5.36 2.67 2.72 2.34 0 2 C0 1.34 0 0.68 0 0 Z " fill="#83828A" transform="translate(164,129)"/>
<path d="M0 0 C-1.65 1.65 -3.3 3.3 -5 5 C-5.66 4.67 -6.32 4.34 -7 4 C-7 3.01 -7 2.02 -7 1 C-4.53721199 -0.231394 -2.7204945 -0.07159196 0 0 Z " fill="#63636D" transform="translate(146,124)"/>
<path d="M0 0 C2.64 0.33 5.28 0.66 8 1 C8 1.66 8 2.32 8 3 C5.03 3 2.06 3 -1 3 C-0.67 2.01 -0.34 1.02 0 0 Z " fill="#090709" transform="translate(181,119)"/>
<path d="M0 0 C2.475 0.99 2.475 0.99 5 2 C5 2.66 5 3.32 5 4 C6.65 4.33 8.3 4.66 10 5 C8.02 5.99 8.02 5.99 6 7 C4 5.625 4 5.625 2 4 C2 3.34 2 2.68 2 2 C1.34 2 0.68 2 0 2 C0 1.34 0 0.68 0 0 Z " fill="#85650D" transform="translate(190,114)"/>
<path d="M0 0 C0.66 0 1.32 0 2 0 C1.25 5.75 1.25 5.75 -1 8 C-2.5625 5.625 -2.5625 5.625 -4 3 C-3.67 2.34 -3.34 1.68 -3 1 C-2.67 1.99 -2.34 2.98 -2 4 C-1.34 4 -0.68 4 0 4 C0 2.68 0 1.36 0 0 Z " fill="#9DAC33" transform="translate(139,85)"/>
<path d="M0 0 C1.74959319 2.62438979 2.62068453 3.96547627 3 7 C2.01 8.485 2.01 8.485 1 10 C-0.85064319 6.87703962 -1.29356154 4.62059232 -1 1 C-0.67 0.67 -0.34 0.34 0 0 Z " fill="#D5B435" transform="translate(156,61)"/>
<path d="M0 0 C6.15234375 0.5859375 6.15234375 0.5859375 8 1 C8.33 1.66 8.66 2.32 9 3 C7.02 3.99 7.02 3.99 5 5 C3.35 3.35 1.7 1.7 0 0 Z " fill="#5D4C25" transform="translate(157,59)"/>
<path d="M0 0 C2.64 0.33 5.28 0.66 8 1 C8 1.66 8 2.32 8 3 C7.34 3 6.68 3 6 3 C5.67 3.66 5.34 4.32 5 5 C4.01 4.34 3.02 3.68 2 3 C2 2.34 2 1.68 2 1 C1.34 0.67 0.68 0.34 0 0 Z " fill="#06060E" transform="translate(174,160)"/>
<path d="M0 0 C2.475 0.99 2.475 0.99 5 2 C5 2.66 5 3.32 5 4 C5.99 4.33 6.98 4.66 8 5 C4.23312136 5 3.08809695 4.76462683 0 3 C0 2.01 0 1.02 0 0 Z " fill="#3A3942" transform="translate(156,152)"/>
<path d="M0 0 C1.65 0.33 3.3 0.66 5 1 C5 1.66 5 2.32 5 3 C3.1875 4.0625 3.1875 4.0625 1 5 C0.01 4.67 -0.98 4.34 -2 4 C-1.34 2.68 -0.68 1.36 0 0 Z " fill="#6A6970" transform="translate(135,130)"/>
<path d="M0 0 C0.99 0.33 1.98 0.66 3 1 C2.34 1 1.68 1 1 1 C1.165 1.94875 1.33 2.8975 1.5 3.875 C2 7 2 7 2 9 C1.34 9 0.68 9 0 9 C-1.125 2.25 -1.125 2.25 0 0 Z " fill="#3A363F" transform="translate(133,120)"/>
<path d="M0 0 C2.625 0.9375 2.625 0.9375 5 2 C5 2.33 5 2.66 5 3 C3.35 3 1.7 3 0 3 C0 3.66 0 4.32 0 5 C0.66 5.33 1.32 5.66 2 6 C0.68 5.67 -0.64 5.34 -2 5 C-2 3.68 -2 2.36 -2 1 C-1.34 0.67 -0.68 0.34 0 0 Z " fill="#49414B" transform="translate(136,120)"/>
<path d="M0 0 C0.99 0 1.98 0 3 0 C3 0.66 3 1.32 3 2 C3.99 2.33 4.98 2.66 6 3 C6 4.65 6 6.3 6 8 C3.33264727 5.51047079 1.44253657 3.36591866 0 0 Z " fill="#8C6212" transform="translate(183,107)"/>
<path d="M0 0 C2.12508244 3.18762365 2.5020163 5.26512223 3 9 C1.68 8.34 0.36 7.68 -1 7 C-0.67 4.69 -0.34 2.38 0 0 Z " fill="#B89C54" transform="translate(190,95)"/>
<path d="M0 0 C2.475 0.495 2.475 0.495 5 1 C4.34 2.32 3.68 3.64 3 5 C2.01 4.67 1.02 4.34 0 4 C0 2.68 0 1.36 0 0 Z " fill="#8F7F64" transform="translate(176,88)"/>
<path d="M0 0 C1.98 0 3.96 0 6 0 C6.33 0.66 6.66 1.32 7 2 C4.69 2.33 2.38 2.66 0 3 C0 2.01 0 1.02 0 0 Z " fill="#DBD894" transform="translate(167,71)"/>
<path d="M0 0 C0.66 0 1.32 0 2 0 C2.625 3.375 2.625 3.375 3 7 C2.34 7.66 1.68 8.32 1 9 C-1.125 2.25 -1.125 2.25 0 0 Z " fill="#F4D428" transform="translate(152,65)"/>
<path d="M0 0 C1.65 0.33 3.3 0.66 5 1 C4.3125 2.9375 4.3125 2.9375 3 5 C0.375 5.75 0.375 5.75 -2 6 C-1.34 5.67 -0.68 5.34 0 5 C0 4.34 0 3.68 0 3 C0.66 3 1.32 3 2 3 C2 2.34 2 1.68 2 1 C1.34 0.67 0.68 0.34 0 0 Z " fill="#F2E044" transform="translate(148,58)"/>
<path d="M0 0 C0.33 0 0.66 0 1 0 C1.33 1.98 1.66 3.96 2 6 C1.01 6.495 1.01 6.495 0 7 C0 6.34 0 5.68 0 5 C-1.32 4.67 -2.64 4.34 -4 4 C-2.68 3.34 -1.36 2.68 0 2 C0 1.34 0 0.68 0 0 Z " fill="#5A5A63" transform="translate(167,148)"/>
<path d="M0 0 C2.97 0 5.94 0 9 0 C9 0.66 9 1.32 9 2 C7.576875 2.185625 7.576875 2.185625 6.125 2.375 C2.91332809 2.71687177 2.91332809 2.71687177 1 5 C0.67 3.35 0.34 1.7 0 0 Z " fill="#444041" transform="translate(178,117)"/>
<path d="M0 0 C0.66 0 1.32 0 2 0 C2 1.65 2 3.3 2 5 C2.99 5 3.98 5 5 5 C4.67 5.99 4.34 6.98 4 8 C2 6.25 2 6.25 0 4 C0 2.68 0 1.36 0 0 Z " fill="#F9E358" transform="translate(168,77)"/>
<path d="M0 0 C1.65 1.65 3.3 3.3 5 5 C4.67 5.99 4.34 6.98 4 8 C1 6 1 6 0.3125 2.875 C0.209375 1.92625 0.10625 0.9775 0 0 Z " fill="#C2B16E" transform="translate(176,74)"/>
<path d="M0 0 C1.65 0 3.3 0 5 0 C5.33 0.66 5.66 1.32 6 2 C3.625 3.0625 3.625 3.0625 1 4 C0.34 3.67 -0.32 3.34 -1 3 C-0.67 2.01 -0.34 1.02 0 0 Z " fill="#867239" transform="translate(154,57)"/>
</svg>
