<svg width="733" height="636" viewBox="0 0 733 636" fill="none" xmlns="http://www.w3.org/2000/svg">
<g clip-path="url(#clip0_4980_7606)">
<path d="M649.582 417.504L652.376 420.869L654.029 426.195L649.888 427.456L643.606 426.169L649.582 417.504Z" fill="#E78E61"/>
<path d="M312.777 505.882C312.777 505.882 302.375 515.462 281.345 517.958C261.476 520.317 251.179 514.632 251.179 514.632L215.354 262.721L276.958 253.98L312.777 505.882Z" fill="#006E00"/>
<path d="M312.447 503.612L312.558 504.399C312.855 506.48 311.918 508.542 310.165 509.697C305.811 512.57 296.49 517.151 279.241 519.331C266.621 520.928 259.025 519.753 254.897 518.489C252.875 517.873 251.392 516.152 251.09 514.061L250.813 512.105C253.222 513.541 261.441 517.282 279.118 515.053C300.767 512.317 309.917 505.795 312.447 503.612Z" fill="#AA9FA0"/>
<path d="M282.215 302.316C282.215 302.316 283.138 316.594 271.104 337.09C266.573 344.806 262.434 349.902 259.796 352.777C258.158 354.57 255.463 354.925 253.43 353.591C247.822 349.915 236.567 341.527 228.897 329.206C226.803 325.852 225.063 323.054 223.615 320.724L222.237 311.096C224.266 310.736 237.286 308.422 251.501 306.402C266.966 304.208 282.208 302.314 282.208 302.314L282.215 302.316Z" fill="#C00000"/>
<path d="M303.369 439.727L303.9 443.45C303.605 443.697 299.569 447.005 281.915 455.264C263.542 463.861 259.203 467.739 253.591 474.256C249.158 479.41 247.562 484.155 247.089 485.907L245.69 476.051C247.952 472.478 253.553 465.592 265.457 460.06C282.276 452.239 301.149 443.59 303.366 439.734L303.369 439.727Z" fill="#BE9600"/>
<path d="M312.447 503.612L312.558 504.399C312.855 506.48 311.918 508.542 310.165 509.697C305.811 512.57 296.49 517.151 279.241 519.331C266.621 520.928 259.025 519.753 254.897 518.489C252.875 517.873 251.392 516.152 251.09 514.061L250.813 512.105C253.222 513.541 261.441 517.282 279.118 515.053C300.767 512.317 309.917 505.795 312.447 503.612Z" fill="#AA9FA0"/>
<path d="M280.726 280.5L280.842 281.297C276.812 281.595 262.755 282.699 248.526 284.906C234.926 287.002 223.213 288.976 219.196 289.667L219.079 288.87C223.094 288.186 234.824 286.21 248.41 284.109C262.646 281.905 276.703 280.8 280.723 280.507L280.726 280.5Z" fill="#001E00"/>
<path d="M272.689 224.034L280.722 280.51C276.692 280.808 262.635 281.913 248.408 284.112C234.822 286.213 223.095 288.182 219.078 288.873L211.062 232.585C210.994 232.112 211.227 231.64 211.654 231.431C213.436 230.531 219.603 228.332 240.235 225.402C258.903 222.747 268.738 222.925 271.63 223.064C272.17 223.095 272.609 223.494 272.682 224.032L272.689 224.034Z" fill="#0D060A"/>
<path d="M221.416 228.835L218.191 229.293L240.813 388.475L244.037 388.018L221.416 228.835Z" fill="url(#paint0_linear_4980_7606)"/>
<path d="M256.554 223.749L254.039 224.105L271.72 348.521L274.234 348.164L256.554 223.749Z" fill="url(#paint1_linear_4980_7606)"/>
<path d="M260.619 422.06C268.135 424.261 276.011 419.954 278.211 412.44C280.411 404.927 276.101 397.052 268.585 394.851C261.069 392.651 253.193 396.958 250.994 404.472C248.794 411.985 253.103 419.86 260.619 422.06Z" stroke="#C59800" stroke-width="1.32648" stroke-miterlimit="10"/>
<path d="M265.586 390.77L265.681 397.638" stroke="#C59800" stroke-width="1.32648" stroke-miterlimit="10"/>
<path d="M263.207 418.352L263.31 425.223" stroke="#C59800" stroke-width="1.32648" stroke-miterlimit="10"/>
<path d="M253.831 406.459L246.97 406.794" stroke="#C59800" stroke-width="1.32648" stroke-miterlimit="10"/>
<path d="M282.652 408.19L275.956 409.726" stroke="#C59800" stroke-width="1.32648" stroke-miterlimit="10"/>
<path d="M614.561 308.939L692.907 358.46L681.286 375.899C680.773 376.671 680.102 377.336 679.327 377.842L674.688 380.881C673.137 381.893 671.818 383.222 670.817 384.781L536.825 592.453L535.664 596.314C534.778 599.266 534.867 602.421 535.924 605.314L537.335 609.173C537.666 610.079 537.554 611.081 537.043 611.899L535.722 613.983L454.105 561.562L455.673 558.764C456.069 558.057 456.72 557.537 457.499 557.304L459.726 556.641C462.192 555.912 464.681 555.568 466.592 553.845L469.976 549.645L598.664 343.488L601.103 338.512C602.027 336.622 602.527 334.554 602.554 332.446L602.598 329.119C602.614 327.801 603.012 326.52 603.733 325.424L614.559 308.946L614.561 308.939Z" fill="#DC0000"/>
<path d="M627.696 345.45L652.318 361.008L617.932 415.383C617.932 415.383 615.969 409.178 609.927 407.304C603.884 405.429 599.114 409.254 592.961 404.785C591.39 403.645 591.087 402.022 591.087 402.022L627.698 345.443L627.696 345.45Z" fill="#669700"/>
<path d="M618.447 414.569L617.929 415.384C617.929 415.384 615.966 409.18 609.923 407.305C603.886 405.439 599.11 409.255 592.956 404.793C591.385 403.653 591.081 402.031 591.081 402.031L591.515 401.349C591.725 402 592.268 403.27 593.396 404.091C599.548 408.56 604.326 404.737 610.363 406.603C615.642 408.246 617.946 413.311 618.44 414.567L618.447 414.569Z" fill="#92BF27"/>
<path d="M618.929 397.036C630.141 400.318 641.891 393.893 645.173 382.684C648.454 371.476 642.025 359.728 630.813 356.446C619.601 353.163 607.851 359.588 604.57 370.797C601.288 382.006 607.717 393.753 618.929 397.036Z" fill="#D49B35"/>
<path d="M619.338 395.657C629.789 398.717 640.741 392.728 643.799 382.28C646.858 371.833 640.866 360.883 630.415 357.823C619.964 354.764 609.013 360.753 605.954 371.2C602.895 381.648 608.887 392.598 619.338 395.657Z" fill="#F2DFC1"/>
<path d="M621.629 387.805C627.743 389.595 634.149 386.091 635.938 379.98C637.728 373.868 634.222 367.462 628.109 365.672C621.995 363.883 615.589 367.386 613.799 373.498C612.01 379.61 615.515 386.015 621.629 387.805Z" fill="#EC7B1C"/>
<path d="M572.571 537.146C572.571 537.146 572.554 537.126 572.531 537.096L572.571 537.146Z" fill="#C69D45"/>
<path d="M547.82 441.881L603.824 477.277C605.547 478.366 606.062 480.647 604.973 482.369L545.618 576.248L483.372 536.907L542.727 443.028C543.816 441.306 546.097 440.792 547.82 441.881Z" fill="#C19943"/>
<path d="M539.506 453.842L596.712 489.998C597.515 490.506 597.754 491.566 597.246 492.369L538.946 584.58L478.84 546.592L537.14 454.381C537.648 453.577 538.709 453.339 539.512 453.846L539.506 453.842Z" fill="#E8A400"/>
<path d="M540.29 454.338L539.566 453.881L490.033 532.226L490.756 532.684L540.29 454.338Z" fill="#DD8800"/>
<path d="M560.782 467.295L560.059 466.838L510.525 545.183L511.248 545.641L560.782 467.295Z" fill="#DD8800"/>
<path d="M566.411 470.854L565.688 470.396L516.154 548.742L516.877 549.199L566.411 470.854Z" fill="#DD8800"/>
<path d="M573.477 475.326L572.754 474.869L523.22 553.215L523.944 553.672L573.477 475.326Z" fill="#DD8800"/>
<path d="M576.802 477.428L576.078 476.971L526.544 555.316L527.268 555.773L576.802 477.428Z" fill="#EDAA18"/>
<path d="M582.001 480.707L581.277 480.25L531.744 558.595L532.467 559.053L582.001 480.707Z" fill="#DD8800"/>
<path d="M589.649 485.543L588.926 485.086L539.392 563.431L540.116 563.889L589.649 485.543Z" fill="#EDAA18"/>
<path d="M542.45 455.715L541.727 455.258L492.193 533.603L492.916 534.061L542.45 455.715Z" fill="#EDAA18"/>
<path d="M551.11 461.186L550.387 460.729L500.853 539.074L501.576 539.531L551.11 461.186Z" fill="#E19100"/>
<path d="M548.376 459.455L547.652 458.998L498.119 537.343L498.842 537.801L548.376 459.455Z" fill="#E19100"/>
<path d="M554.282 463.188L553.559 462.73L504.025 541.076L504.748 541.533L554.282 463.188Z" fill="#EDAA18"/>
<path d="M596.872 490.108L596.148 489.65L546.615 567.996L547.338 568.453L596.872 490.108Z" fill="#DD8800"/>
<path d="M537.023 611.892L535.703 613.976L454.086 561.555L455.653 558.757C456.05 558.05 456.708 557.532 457.479 557.297L459.707 556.634C462.173 555.905 464.669 555.563 466.572 553.838L469.958 549.631L490.23 517.156C491.224 518.097 492.721 519.336 494.895 520.713L499.648 523.714C499.648 523.714 511.681 513.878 537.977 519.15C561.894 523.946 571.838 536.197 572.532 537.081L536.815 592.441L535.654 596.302C534.76 599.252 534.856 602.409 535.907 605.3L537.324 609.161C537.649 610.065 537.544 611.069 537.026 611.885L537.023 611.892Z" fill="#C69D45"/>
<path d="M682.352 374.272L681.693 375.258L603.481 325.821C603.552 325.683 603.634 325.556 603.719 325.422L604.114 324.82L682.352 374.272Z" fill="#D10000"/>
<path d="M689.431 363.668L688.963 364.362L610.655 314.867L611.116 314.171L689.431 363.668Z" fill="#D10000"/>
<path d="M686.976 367.346L686.516 368.042L608.233 318.562L608.694 317.866L686.976 367.346Z" fill="#D10000"/>
<path d="M684.524 371.028L684.054 371.73L605.797 322.265L606.26 321.561L684.524 371.028Z" fill="#D10000"/>
<path d="M537.001 612.16L454.875 560.254L453.592 562.283L535.719 614.189L537.001 612.16Z" fill="#DC0000"/>
<path d="M480.599 562.169C484.19 563.22 487.953 561.162 489.004 557.572C490.055 553.982 487.996 550.219 484.405 549.167C480.814 548.116 477.05 550.174 475.999 553.764C474.948 557.354 477.007 561.117 480.599 562.169Z" fill="#669700"/>
<path d="M481.007 560.792C483.837 561.621 486.803 559.999 487.631 557.17C488.459 554.341 486.837 551.376 484.007 550.547C481.177 549.719 478.211 551.34 477.383 554.169C476.555 556.998 478.177 559.964 481.007 560.792Z" fill="#DFDDD6"/>
<path d="M481.325 559.691C483.547 560.341 485.876 559.068 486.527 556.846C487.177 554.624 485.903 552.296 483.68 551.645C481.458 550.994 479.129 552.268 478.478 554.49C477.828 556.711 479.102 559.04 481.325 559.691Z" stroke="#B0B0B0" stroke-width="0.47308" stroke-miterlimit="10"/>
<path d="M629.261 379.816L634.354 377.136L629.486 374.063L629.686 369.119L625.302 371.418L620.436 368.338L620.211 374.091L615.111 376.769L619.979 379.841L619.778 384.785L624.163 382.487L629.028 385.566L629.261 379.816Z" stroke="#CF5C05" stroke-width="0.630773" stroke-linecap="round" stroke-linejoin="round"/>
<path d="M623.759 380.549C625.862 381.165 628.066 379.96 628.682 377.857C629.297 375.755 628.091 373.551 625.988 372.935C623.885 372.319 621.681 373.525 621.065 375.627C620.45 377.73 621.655 379.934 623.759 380.549Z" fill="#F2DFC1" stroke="#CF5C05" stroke-width="0.630773" stroke-miterlimit="10"/>
<path d="M654.217 429.768L647.038 454.289C645.986 457.885 642.199 459.956 638.602 458.903L432.259 398.491L434.266 391.637L425.381 389.036L423.374 395.89L214.335 334.69C210.726 333.633 208.667 329.851 209.719 326.255L216.898 301.734C216.898 301.734 380.162 351.908 438.959 370.292C595.044 419.102 654.217 429.768 654.217 429.768Z" fill="#E5B100"/>
<g style="mix-blend-mode:multiply" opacity="0.4">
<path d="M273.453 344.021L230.707 518.158L528.018 609.319L580.874 438.142L273.453 344.021Z" fill="#FFC302"/>
</g>
<path d="M346.806 232.91C345.175 231.639 342.572 232.284 340.857 234.33C335.762 240.43 325.573 253.623 316.456 258.773C305.987 264.676 260.244 304.461 282.149 372.43C299.671 426.796 370.242 453.904 377.151 455.463C395.61 459.613 408.612 450.429 408.612 450.429L418.686 435.706C418.686 435.706 419.836 420.014 394.752 401.58C369.669 383.147 333.852 364.476 327.205 340.539C320.103 314.961 332.489 279.275 332.511 269.394C332.53 259.028 344.94 244.994 344.94 244.994C344.94 244.994 347.896 241.343 349.128 237.649C349.745 235.792 348.354 234.124 346.809 232.923L346.806 232.91Z" fill="#FFC50C"/>
<path d="M352.26 240.987C352.26 240.987 356.327 235.594 357.288 236.256C357.714 236.55 358.816 237.22 359.899 237.866C361.38 238.752 361.737 240.91 360.72 242.873L359.395 245.446L356.994 259.511C356.754 260.92 356.99 262.241 357.652 263.237C359.586 266.19 363.728 273.23 365.767 282.159C368.477 294.048 374.267 318.282 386.859 332.228C419.601 368.469 470.377 381.623 477.575 395.696C484.772 409.768 484.684 412.439 484.684 412.439L476.44 425.422C476.44 425.422 466.026 432.353 453.829 427.585L344.457 333.496L339.177 266.106L352.273 240.984L352.26 240.987Z" fill="#FFC50C"/>
<path d="M476.428 425.432C476.428 425.432 466.022 432.368 453.825 427.601L344.452 333.511L339.179 266.114L352.274 240.992C352.274 240.992 356.336 235.607 357.297 236.269C357.548 236.443 358.013 236.73 358.568 237.067L355.301 238.233L352.703 258.291C352.703 258.291 341.243 309.921 381.133 344.569C413.577 372.745 469.921 384.397 479.906 419.981L476.431 425.445L476.428 425.432Z" fill="#F9B800"/>
<path d="M343.105 241.511L349.123 237.643C349.123 237.643 353.747 236.221 355.287 238.228C356.827 240.234 353.981 244.85 353.981 244.85L348.905 251.886L345.522 263.396C345.199 264.501 345.035 265.602 345.052 266.671C345.145 275.911 346.452 321.715 363.433 340.565C386.597 366.266 446.708 391.177 455.868 402.565C465.021 413.949 467.136 419.264 467.136 419.264L456.947 435.931C456.947 435.931 427.483 447.348 413.998 434.664C400.505 421.974 333.618 392.346 320.669 330.957C311.478 287.375 343.105 241.511 343.105 241.511Z" fill="#FFC50C"/>
<path d="M456.961 435.937C456.961 435.937 427.495 447.341 414.005 434.664C400.518 421.967 333.619 392.354 320.689 330.956C311.484 287.375 343.117 241.504 343.117 241.504L348.995 237.742C344.56 246.423 337.965 260.993 336.175 273.635C333.426 293.128 329.727 320.883 354.976 354.926C396.236 410.581 452.953 425.133 462.288 427.185L456.948 435.94L456.961 435.937Z" fill="#F9B800"/>
<path d="M408.611 450.429C408.611 450.429 395.607 459.6 377.148 455.451C370.241 453.904 299.66 426.778 282.154 372.423C260.249 304.454 305.991 264.669 316.461 258.766C325.573 253.624 335.772 240.416 340.862 234.323C342.564 232.28 345.18 231.632 346.806 232.911C348.351 234.111 349.747 235.772 349.133 237.642C349.082 237.764 349.049 237.91 348.988 238.048L332.5 259.12C332.5 259.12 276.339 315.887 316.02 373.523C344.792 415.292 392.08 433.08 415.939 439.705L408.619 450.434L408.611 450.429Z" fill="#F9B800"/>
<path d="M341.092 230.204C340.049 231.407 339.909 233.143 340.768 234.49C342.337 236.944 345.412 240.638 350.472 242.497C358.438 245.427 363.138 240.47 363.138 240.47C363.138 240.47 364.512 238.853 363.454 231.467C362.396 224.08 362.956 222.161 362.679 221.453C362.403 220.745 351.851 217.831 351.851 217.831L341.092 230.204Z" fill="#302723"/>
<path d="M412.579 440.592C413.439 439.329 417.984 433.423 418.806 435.688C419.615 437.955 420.973 440.927 416.535 446.042C413.279 449.801 409.558 450.305 407.827 450.304C407.368 450.302 407.072 449.817 407.305 449.415C408.395 447.491 411.133 442.721 412.584 440.585L412.579 440.592Z" fill="#302723"/>
<path d="M461.525 421.968C461.525 421.968 465.63 416.342 467.875 419.723C470.112 423.099 467.297 429.839 462.984 432.116C458.67 434.393 459.366 437.133 456.625 435.254C453.884 433.375 461.525 421.968 461.525 421.968Z" fill="#302723"/>
<path d="M485.897 418.25C486.944 416.847 487.07 414.853 486.032 413.227C485.005 411.619 483.655 411.228 481.519 413.005C478.313 415.663 474.984 421.486 475.679 423.788C476.375 426.089 476.279 426.506 478.307 426.24C480.334 425.974 483.692 423.421 484.115 421.486C484.331 420.521 485.131 419.263 485.889 418.245L485.897 418.25Z" fill="#302723"/>
<path d="M506.098 482.85C471.245 555.024 399.196 587.275 332.301 554.965C265.409 522.666 240.183 441.882 275.037 369.708C309.89 297.534 385.759 270.239 452.651 302.539C519.543 334.839 540.952 410.675 506.102 482.843L506.098 482.85Z" fill="#038B5C"/>
<path d="M445.41 307.424C443.778 307.205 441.978 308.653 440.351 308.499C438.723 308.346 437.073 309.222 435.437 309.128C433.795 309.03 432.344 303.887 430.706 303.855C429.059 303.826 427.341 304.977 425.701 305.007C424.062 305.038 422.233 302.867 420.592 302.96C418.95 303.053 417.431 305.886 415.797 306.039C414.163 306.192 412.589 307.134 410.969 307.35C409.342 307.563 408.066 309.914 406.447 310.187C404.829 310.459 402.528 307.127 400.917 307.459C399.312 307.795 397.372 307.083 395.784 307.476C394.19 307.865 394.07 313.871 392.493 314.317C390.916 314.764 387.823 310.2 386.263 310.703C384.703 311.207 384.419 315.525 382.869 316.082C381.33 316.636 380.921 319.932 379.401 320.536C377.882 321.141 373.229 314.233 371.724 314.885C370.225 315.54 371.283 321.871 369.8 322.583C368.322 323.29 363.853 318.047 362.392 318.795C360.93 319.542 359.77 321.105 358.335 321.906C356.9 322.708 356.396 325.252 354.984 326.098C353.577 326.938 354.304 331.181 352.923 332.075C351.545 332.963 348.561 331.386 347.207 332.319C345.853 333.251 344.847 334.674 343.523 335.639C342.199 336.604 342.114 339.151 340.82 340.164C339.526 341.177 334.715 337.867 333.455 338.921C332.197 339.97 332.236 342.656 331.006 343.743C329.782 344.833 332.708 350.397 331.514 351.52C330.32 352.642 322.628 347.165 321.471 348.323C320.338 349.51 325.127 356.254 324.039 357.473C322.949 358.699 320.461 358.607 319.416 359.865C318.365 361.121 318.699 363.393 317.691 364.687C316.683 365.981 315.988 367.373 315.029 368.694C314.07 370.015 313.477 371.469 312.552 372.816C311.63 374.172 309.805 374.811 308.926 376.191C308.047 377.571 303.3 376.547 302.455 377.952C301.618 379.355 300.808 380.844 300.012 382.276C299.209 383.705 296.506 384.188 295.747 385.641C294.981 387.09 295.055 389.063 294.333 390.535C293.608 391.998 294.984 394.522 294.292 396.011C293.604 397.493 294.136 399.531 293.485 401.033C292.834 402.536 293.409 404.524 292.792 406.037C292.175 407.551 292.268 409.296 291.682 410.825C291.096 412.355 286.56 412.4 286.005 413.946C285.453 415.486 289.226 418.523 288.698 420.076C288.174 421.623 282.948 421.622 282.448 423.182C281.952 424.737 285.845 427.655 285.373 429.223C284.902 430.79 286.239 432.824 285.796 434.399C285.352 435.974 283.208 437.03 282.793 438.611C282.371 440.19 275.968 440.23 275.565 441.819C275.162 443.408 281.961 446.748 281.58 448.34C281.199 449.933 274.213 449.992 273.853 451.589C273.494 453.185 276 455.427 275.662 457.028C275.325 458.628 273.458 459.92 273.139 461.53C272.82 463.14 273.407 464.929 273.103 466.539C272.793 468.146 273.973 470.031 273.679 471.639C273.385 473.247 271.788 474.629 271.509 476.237C271.228 477.852 266.999 478.818 266.727 480.429C266.461 482.044 272.479 484.693 272.223 486.304C271.963 487.923 270.523 488.57 270.279 490.189C269.96 488.553 268.83 487.49 268.559 485.84C268.284 484.196 272.725 482.024 272.497 480.366C272.266 478.714 265.228 477.337 265.047 475.68C264.866 474.024 265.986 472.789 265.849 471.124C265.712 469.46 268.367 467.605 268.278 465.942C268.182 464.275 262.27 462.83 262.221 461.165C262.173 459.499 269.012 457.69 269.004 456.023C268.996 454.356 264.117 452.648 264.156 450.982C264.189 449.313 265.415 447.643 265.495 445.976C265.575 444.308 269.416 442.895 269.543 441.229C269.669 439.563 263.553 437.346 263.723 435.688C263.894 434.029 271.264 433.183 271.472 431.528C271.68 429.874 270.481 428.098 270.733 426.452C270.984 424.805 267.8 422.595 268.092 420.946C268.384 419.298 272.647 418.446 272.979 416.811C273.318 415.18 271.393 413.084 271.776 411.46C272.158 409.836 272.841 408.303 273.267 406.687C273.693 405.071 270.193 402.341 270.659 400.738C271.126 399.136 275.253 398.609 275.763 397.014C276.269 395.425 273.397 392.667 273.944 391.092C274.49 389.518 280.293 389.838 280.886 388.28C281.479 386.723 284.304 386.146 284.938 384.602C285.572 383.058 278.814 378.372 279.488 376.841C280.177 375.328 281.299 373.896 282.041 372.402C282.779 370.915 288.32 371.898 289.111 370.431C289.899 368.97 290.068 367.239 290.905 365.805C291.742 364.371 292.319 362.844 293.205 361.436C294.091 360.029 289.858 355.192 290.79 353.817C291.722 352.442 292.652 350.851 293.636 349.512C294.621 348.173 297.251 347.913 298.282 346.607C299.318 345.305 306.024 348.73 307.11 347.469C308.195 346.209 305.457 341.637 306.591 340.419C307.725 339.201 310.079 339.173 311.253 338C312.433 336.83 310.449 332.276 311.668 331.151C312.894 330.03 313.989 328.456 315.26 327.383C316.532 326.351 320.623 328.724 321.929 327.718C323.235 326.712 326.29 328.128 327.627 327.155C328.954 326.184 327.938 321.96 329.298 321.031C330.659 320.101 331.458 318.265 332.845 317.374C334.233 316.483 336.872 317.564 338.283 316.718C339.694 315.872 340.618 314.174 342.058 313.376C343.499 312.578 346.77 315.336 348.237 314.591C349.705 313.847 349.484 309.726 350.975 309.042C352.475 308.356 352.286 303.512 353.809 302.886C355.339 302.262 359.46 308.224 361.009 307.667C362.524 307.1 362.169 301.06 363.707 300.553C365.246 300.046 369.09 307.052 370.651 306.605C372.207 306.155 373.326 304.61 374.905 304.221C376.48 303.837 377.577 301.7 379.166 301.379C380.755 301.058 381.637 296.649 383.243 296.385C384.846 296.128 386.954 299.079 388.567 298.89C390.174 298.699 391.845 299.305 393.456 299.179C395.073 299.057 396.732 301.248 398.347 301.188C399.963 301.129 401.468 299.045 403.091 299.06C404.713 299.076 406.226 300.122 407.846 300.216C409.466 300.31 410.725 302.962 412.34 303.125C413.955 303.288 416.549 295.378 418.152 295.622C419.758 295.859 420.567 300.91 422.158 301.235C423.749 301.56 425.697 300.191 427.27 300.594C428.843 300.997 429.113 305.614 430.665 306.101C432.21 306.584 433.595 306.893 435.113 307.457C436.631 308.021 438.743 306.701 440.23 307.352C441.717 308.003 442.634 311.362 444.081 312.102C444.223 312.147 445.409 307.456 445.409 307.456L445.41 307.424Z" fill="#0C513F"/>
<path d="M290.148 514.563C290.167 512.934 283.093 511.474 283.15 509.834C283.201 508.207 288.917 506.754 289.002 505.121C289.086 503.488 293.21 502.156 293.326 500.524C293.443 498.892 287.023 496.751 287.171 495.12C287.321 493.498 289.119 492.009 289.297 490.379C289.479 488.759 286.185 486.664 286.395 485.035C286.608 483.416 290.179 482.223 290.417 480.601C290.662 478.982 295.806 478.192 296.088 476.577C296.36 474.966 296.137 473.342 296.447 471.735C296.757 470.128 295.641 468.301 295.976 466.692C296.314 465.092 294.762 463.101 295.128 461.508C295.493 459.915 298.113 458.893 298.516 457.305C298.91 455.719 293.442 452.595 293.867 451.011C294.298 449.429 296.367 448.262 296.823 446.694C297.282 445.119 301.571 444.719 302.055 443.158C302.548 441.594 302.876 440.028 303.394 438.478C303.912 436.927 304.664 435.503 305.216 433.963C305.768 432.422 301.416 429.058 301.993 427.531C302.579 426.001 302.332 424.07 302.943 422.553C303.563 421.034 304.149 419.417 304.79 417.917C305.442 416.414 310.965 417.046 311.647 415.56C312.332 414.067 308.444 410.404 309.151 408.931C309.867 407.455 316.872 409.116 317.615 407.663C318.362 406.205 316.826 403.594 317.607 402.161C318.384 400.719 314.208 396.454 315.019 395.038C315.834 393.615 324.299 396.7 325.147 395.304C325.999 393.901 326.335 392.348 327.221 390.972C328.159 389.6 328.597 388.007 329.563 386.658C330.529 385.309 326.51 380.31 327.507 378.978C328.497 377.642 331.143 377.501 332.161 376.189C333.179 374.876 331.573 371.392 332.619 370.103C333.664 368.813 341.328 372.985 342.401 371.718C343.474 370.451 344.294 369.063 345.394 367.818C346.495 366.574 343.779 361.903 344.907 360.682C346.035 359.46 346.711 357.748 347.864 356.556C349.019 355.357 352.14 356.077 353.323 354.901C354.503 353.731 354.453 351.27 355.663 350.132C356.867 348.992 357.379 347.024 358.617 345.909C359.855 344.794 364.77 347.867 366.031 346.781C367.293 345.695 367.709 343.699 368.995 342.642C370.281 341.586 373.053 342.508 374.36 341.486C375.673 340.468 375.155 337.149 376.492 336.16C377.83 335.17 378.676 333.542 380.043 332.585C381.401 331.63 381.484 328.763 382.872 327.841C384.26 326.919 387.842 329.423 389.252 328.536C390.657 327.655 392.656 327.874 394.083 327.028C395.509 326.182 393.827 319.889 395.281 319.082C396.734 318.274 400.91 322.555 402.391 321.786C403.868 321.023 403.388 316.381 404.883 315.659C406.378 314.938 406.629 311.286 408.151 310.603C409.73 309.903 414.836 317.414 416.439 316.759C418.042 316.104 417.156 309.174 418.773 308.566C420.396 307.961 424.427 314.264 426.067 313.717C427.707 313.169 428.926 311.853 430.592 311.375C432.258 310.897 433.262 308.431 434.95 308.029C436.636 307.633 437.465 303.012 439.166 302.704C440.868 302.396 442.597 305.032 444.318 304.822C442.871 305.617 441.953 306.315 440.524 307.136C439.091 307.962 438.777 310.641 437.366 311.487C435.951 312.34 431.335 308.005 429.939 308.883C428.537 309.757 428.318 312.567 426.934 313.468C425.549 314.368 427.876 320.794 426.509 321.72C425.143 322.646 418.018 315.248 416.669 316.199C415.321 317.151 419.124 325.295 417.787 326.269C416.456 327.246 413.898 326.503 412.588 327.5C411.27 328.499 411.119 330.932 409.822 331.951C408.525 332.97 407.474 334.21 406.195 335.254C404.916 336.299 403.942 337.603 402.674 338.67C401.41 339.731 399.375 339.803 398.128 340.889C396.882 341.975 392.343 339.329 391.112 340.431C389.887 341.537 388.679 342.715 387.469 343.837C386.259 344.959 383.412 344.426 382.22 345.573C381.032 346.715 380.536 348.667 379.363 349.825C378.187 350.988 378.806 353.971 377.644 355.151C376.489 356.334 376.378 358.518 375.238 359.717C374.098 360.916 374.028 363.082 372.906 364.292C371.791 365.504 371.286 367.237 370.186 368.466C369.086 369.694 364.534 367.868 363.449 369.113C362.422 370.294 365.18 374.725 364.159 375.924C363.138 377.124 357.986 374.847 356.983 376.057C355.987 377.27 358.876 381.636 357.895 382.865C356.914 384.094 357.556 386.533 356.593 387.772C355.63 389.011 353.161 389.032 352.213 390.288C351.266 391.543 344.9 388.786 343.971 390.052C343.039 391.323 348.685 397.303 347.777 398.588C346.87 399.873 339.879 396.931 338.996 398.229C338.11 399.533 339.875 402.633 339.017 403.945C338.14 405.349 335.814 405.917 334.989 407.342C334.162 408.773 334.223 410.74 333.439 412.194C332.655 413.649 333.344 415.867 332.603 417.345C331.856 418.819 329.827 419.659 329.117 421.153C328.407 422.648 323.719 422.356 323.039 423.867C322.363 425.372 328.054 429.706 327.402 431.224C326.75 432.742 323.77 433.267 323.143 434.799C322.513 436.321 324.39 438.86 323.785 440.396C323.174 441.928 315.981 440.881 315.382 442.42C314.783 443.959 321.754 448.426 321.161 449.968C320.568 451.51 318.111 452.333 317.519 453.875C316.932 455.421 313.505 455.888 312.909 457.436C312.322 459.013 317.722 462.808 317.14 464.388C316.559 465.968 308.941 464.987 308.362 466.576C307.787 468.16 312.241 471.556 311.678 473.146C311.109 474.732 309.353 475.894 308.79 477.484C308.227 479.074 303.808 479.301 303.249 480.884C302.686 482.474 308.598 486.339 308.035 487.928C307.472 489.518 299.473 488.491 298.916 490.084C298.359 491.678 299.278 493.78 298.721 495.373C298.158 496.963 301.212 499.827 300.649 501.417C300.086 503.007 295.392 503.126 294.829 504.715C294.266 506.305 296.087 508.743 295.517 510.329C294.948 511.916 294.066 513.39 293.494 514.982C292.918 516.566 296.534 519.701 295.95 521.287C295.365 522.873 293.298 521.616 292.707 523.198C291.485 520.964 287.652 521.109 287.602 518.56C287.548 515.873 290.594 517.055 290.133 514.546L290.148 514.563Z" fill="#0C513F"/>
<path d="M461.521 312.163C462.813 313.146 467.093 310.387 468.349 311.422C469.605 312.457 467.118 317.807 468.331 318.891C469.545 319.975 470.463 321.178 471.644 322.308C472.818 323.435 475.614 322.795 476.744 323.961C477.879 325.13 482.015 323.509 483.106 324.718C484.2 325.921 481.818 330.19 482.867 331.431C483.916 332.673 484.585 334.132 485.595 335.417C486.599 336.698 490.286 335.925 491.248 337.239C492.21 338.554 490.962 341.413 491.876 342.758C492.787 344.108 492.607 346.079 493.47 347.46C494.332 348.84 498.804 348.013 499.625 349.426C500.44 350.836 501.02 352.43 501.781 353.867C502.548 355.307 505.22 355.856 505.933 357.323C506.649 358.783 501.537 362.98 502.199 364.467C502.862 365.954 501.712 368.055 502.324 369.562C502.935 371.07 510.109 370.013 510.663 371.537C511.22 373.071 506.401 376.415 506.896 377.963C507.39 379.51 508.15 380.859 508.597 382.421C509.044 383.982 508.222 385.743 508.606 387.318C508.986 388.9 515.703 389.029 516.029 390.621C516.353 392.22 516.29 393.96 516.553 395.566C516.817 397.172 519.469 398.554 519.673 400.168C519.877 401.782 517.176 403.81 517.311 405.434C517.445 407.058 518.513 408.692 518.585 410.314C518.657 411.936 512.835 413.674 512.838 415.306C512.844 416.933 518.714 418.634 518.648 420.261C518.585 421.882 516.616 423.454 516.487 425.079C516.362 426.698 513.008 427.945 512.811 429.565C512.599 431.256 517.789 433.745 517.505 435.437C517.218 437.12 509.836 437.412 509.481 439.09C509.128 440.762 515.618 443.983 515.206 445.646C514.791 447.3 511.271 448.163 510.797 449.809C510.324 451.455 511.637 453.651 511.117 455.28C510.591 456.905 508.166 457.905 507.599 459.517C507.029 461.135 507.128 462.987 506.518 464.575C505.902 466.176 503.256 466.937 502.606 468.512C501.955 470.102 500.5 471.354 499.822 472.922C499.313 474.263 503.512 478.206 502.663 479.824C501.818 481.437 497.077 481.021 496.424 482.307C495.65 483.8 500.877 488.567 500.057 490.043C499.241 491.512 493.66 490.324 492.797 491.777C491.934 493.229 487.788 492.552 486.88 493.972C485.971 495.391 490.313 500.263 489.359 501.65C488.401 503.042 486.114 503.536 485.12 504.893C484.116 506.253 485.758 509.685 484.711 511.006C483.699 512.322 480.117 511.647 479.071 512.937C478.026 514.227 473.341 512.409 472.256 513.669C471.17 514.93 470.514 516.414 469.398 517.642C468.282 518.87 468.23 520.974 467.074 522.173C465.928 523.368 466.118 525.834 464.938 527.004C463.758 528.174 461.057 527.695 459.847 528.833C458.636 529.97 461.345 535.409 460.108 536.508C458.87 537.607 456.508 537.518 455.24 538.585C453.973 539.652 450.269 537.742 448.971 538.777C447.673 539.811 446.508 540.925 445.183 541.921C443.858 542.918 442.434 543.685 441.079 544.649C439.73 545.616 441.233 550.707 439.857 551.636C438.481 552.565 437.51 554.277 436.116 555.164C434.713 556.054 433.257 557.043 431.833 557.899C430.41 558.754 426.387 555.192 424.946 556.006C423.498 556.817 423.674 560.651 422.209 561.421C420.957 562.09 417.439 557.814 415.845 558.379C414.429 558.88 413.782 561.674 412.23 562.118C410.732 562.551 410.126 564.707 408.613 565.108C407.055 565.517 403.822 561.26 402.372 561.647C400.732 562.092 402.209 564.988 401.851 566.347C401.921 566.082 403.108 566.523 404.406 565.473C405.698 564.419 403.232 558.769 404.521 557.706C405.807 556.649 408.315 557.087 409.596 556.011C410.873 554.942 410.009 551.365 411.277 550.282C412.545 549.2 419.166 554.346 420.431 553.254C421.69 552.158 422.79 550.826 424.04 549.718C425.29 548.61 423.239 543.812 424.474 542.688C425.708 541.564 426.472 539.971 427.698 538.834C428.924 537.697 431.917 538.46 433.128 537.306C434.332 536.15 434.319 533.756 435.508 532.583C436.697 531.41 437.11 529.509 438.278 528.317C439.452 527.128 444.45 529.632 445.594 528.427C446.737 527.221 447.03 525.144 448.155 523.913C449.28 522.682 452.185 522.975 453.289 521.725C454.393 520.474 453.375 517.316 454.458 516.046C455.534 514.772 456.007 512.967 457.056 511.671C458.105 510.375 457.385 507.695 458.407 506.377C459.428 505.058 463.539 506.065 464.527 504.72C465.515 503.375 467.483 502.647 468.44 501.285C469.394 499.914 465.331 495.129 466.248 493.738C467.165 492.347 472.71 493.913 473.593 492.496C474.471 491.075 471.75 487.476 472.584 486.032C473.424 484.592 471.485 481.756 472.276 480.289C473.003 478.867 481.346 481.321 482.051 479.88C482.754 478.444 477.594 474.174 478.281 472.723C478.958 471.274 486.007 472.72 486.66 471.259C487.313 469.797 487.203 467.907 487.822 466.435C488.444 464.956 487.184 462.646 487.772 461.157C488.36 459.668 485.033 456.689 485.587 455.19C486.145 453.684 489.599 453.239 490.116 451.72C490.632 450.201 490.554 448.488 491.027 446.961C491.504 445.428 489.961 443.346 490.388 441.802C490.814 440.258 496.902 440.152 497.273 438.594C497.65 437.039 495.914 434.917 496.235 433.348C496.556 431.779 490.583 429.091 490.848 427.507C491.113 425.924 500.978 425.778 501.19 424.189C501.396 422.598 493.146 420.059 493.293 418.459C493.439 416.859 495.571 415.518 495.649 413.913C495.723 412.227 494 410.598 494.008 408.915C494.019 407.227 493.691 405.682 493.636 403.997C493.576 402.31 493.128 400.795 493.001 399.112C492.881 397.432 493.954 395.767 493.767 394.091C493.581 392.415 498.122 390.146 497.876 388.478C497.63 386.81 497.295 385.085 496.985 383.431C496.676 381.777 498.53 379.578 498.171 377.928C497.808 376.284 496.414 374.753 496.004 373.124C495.587 371.491 492.781 370.439 492.317 368.821C491.854 367.202 490.043 365.987 489.531 364.383C489.02 362.778 487.194 361.65 486.635 360.06C486.076 358.47 484.802 357.218 484.196 355.642C483.596 354.069 487.094 350.872 486.453 349.317C485.812 347.762 480.754 348.113 480.071 346.575C479.389 345.038 483.41 341.343 482.689 339.817C481.966 338.297 476.915 338.899 476.159 337.393C475.404 335.888 472.945 335.358 472.148 333.87C471.357 332.385 472.228 330.078 471.399 328.605C470.577 327.135 475.35 322.429 474.496 320.974C473.641 319.519 466.133 322.082 465.25 320.651C464.361 319.216 466.25 315.86 465.335 314.443C464.42 313.027 464.089 311.384 463.155 309.989C461.868 310.354 461.552 312.18 461.552 312.18L461.521 312.163Z" fill="#0C513F"/>
<path d="M459.187 311.633C460.136 312.972 461.71 313.845 462.582 315.222C463.464 316.613 468.406 315.666 469.214 317.088C470.025 318.52 465.177 323.026 465.909 324.487C466.641 325.948 469.911 326.183 470.579 327.673C471.244 329.17 469.722 331.564 470.318 333.086C470.919 334.612 473.239 335.473 473.765 337.021C474.296 338.573 475.985 339.794 476.454 341.359C476.919 342.931 478.266 344.342 478.665 345.933C479.068 347.518 474.118 350.339 474.46 351.947C474.799 353.546 476.351 354.829 476.636 356.439C476.918 358.055 473.98 360.051 474.203 361.674C474.429 363.292 481.119 364.075 481.291 365.703C481.463 367.332 477.083 369.346 477.205 370.979C477.327 372.612 479.908 374.051 479.98 375.689C480.051 377.327 480.092 378.948 480.113 380.59C480.138 382.227 477.617 383.819 477.591 385.46C477.569 387.095 481.761 388.822 481.698 390.459C481.634 392.096 479.2 393.615 479.099 395.248C478.995 396.886 478.702 398.478 478.564 400.106C478.426 401.735 484.767 404.064 484.589 405.694C484.41 407.324 480.751 408.605 480.535 410.231C480.319 411.857 475.963 412.882 475.713 414.497C475.462 416.112 473.465 417.382 473.186 418.99C472.908 420.598 480.364 423.664 480.048 425.268C479.732 426.888 474.984 427.621 474.631 429.236C474.277 430.852 478.43 433.537 478.048 435.145C477.66 436.75 476.312 438.187 475.893 439.791C475.471 441.385 471.323 441.98 470.863 443.57C470.407 445.154 474.699 448.201 474.206 449.78C473.712 451.36 473.237 453.037 472.719 454.603C472.194 456.166 472.14 458.007 471.582 459.559C471.023 461.112 466.859 461.397 466.267 462.939C465.674 464.481 464.972 466.004 464.339 467.532C463.712 469.064 465.709 471.764 465.051 473.278C464.387 474.79 459.884 474.613 459.183 476.105C458.485 477.606 459.688 480.037 458.947 481.515C458.205 482.993 457.493 484.534 456.721 485.996C455.949 487.457 454.825 488.776 454.009 490.214C453.194 491.652 448.692 490.927 447.84 492.345C446.988 493.763 452.358 499.045 451.472 500.437C450.583 501.835 442.768 498.696 441.846 500.068C440.917 501.436 439.805 502.539 438.842 503.882C437.879 505.225 438.999 508.016 437.997 509.33C436.994 510.643 439.383 514.668 438.344 515.945C437.305 517.223 432.493 515.36 431.405 516.611C430.32 517.856 428.951 518.757 427.83 519.966C426.705 521.181 428.183 524.858 427.019 526.029C425.855 527.199 422.705 526.328 421.504 527.463C420.303 528.597 418.258 528.688 417.018 529.777C415.778 530.867 417.45 535.364 416.17 536.409C414.891 537.454 413.371 538.281 412.052 539.28C410.737 540.274 410.649 543.122 409.294 544.07C407.94 545.018 402.778 540.294 401.387 541.191C400 542.082 397.685 541.167 396.261 542.007C394.838 542.846 397.143 550.168 395.684 550.956C394.234 551.742 390.049 547.154 388.563 547.888C387.112 548.602 385.85 549.6 384.378 550.294C382.909 550.981 380.984 550.42 379.494 551.073C378.004 551.726 379.217 558.728 377.707 559.33C376.197 559.932 374.451 560.16 372.921 560.696C371.385 561.228 370.471 564.236 368.906 564.689C367.347 565.145 364.806 562.629 363.222 562.984C362.113 563.166 360.324 564.286 358.724 564.258C357.352 564.234 356.437 557.949 355.071 557.769C353.504 557.561 350.327 562.141 347.58 561.185C355.494 563.933 353.711 559.804 355.478 559.373C357.111 558.973 359.894 561.675 361.535 561.08C363.177 560.485 362.578 554.426 364.097 553.718C365.753 552.948 371.095 558.741 372.461 557.934C373.883 556.95 371.154 549.734 372.57 548.732C373.983 547.735 377.338 549.465 378.742 548.44C380.137 547.418 380.316 544.769 381.698 543.725C383.075 542.677 385.729 543.273 387.081 542.196C388.437 541.113 389.292 539.41 390.617 538.295C391.943 537.18 394.797 537.773 396.086 536.622C397.375 535.471 399.33 534.886 400.579 533.69C401.832 532.488 398.956 527.095 400.154 525.847C401.314 524.699 405.786 526.72 406.92 525.502C408.041 524.308 403.707 518.255 404.805 517.002C405.883 515.769 411.292 518.28 412.34 516.984C413.389 515.688 417.669 516.914 418.678 515.588C419.674 514.287 415.302 508.938 416.275 507.593C417.231 506.263 419.526 505.901 420.464 504.53C421.387 503.173 419.274 499.862 420.179 498.464C421.067 497.082 424.819 497.561 425.687 496.144C426.554 494.726 431.748 495.88 432.579 494.442C433.4 493.023 433.812 491.256 434.621 489.799C435.431 488.342 434.928 486.146 435.704 484.679C436.473 483.224 435.475 480.824 436.214 479.337C436.952 477.865 439.802 477.389 440.516 475.888C441.223 474.4 436.299 470.297 436.985 468.789C437.667 467.287 439.881 466.516 440.536 464.992C441.19 463.483 445.572 463.531 446.205 462.002C446.829 460.477 447.296 458.843 447.905 457.302C448.513 455.76 449.339 454.272 449.914 452.72C450.485 451.175 446.018 447.803 446.57 446.247C447.123 444.692 446.734 442.875 447.256 441.302C447.78 439.739 448.188 438.201 448.688 436.625C449.188 435.049 454.83 435.076 455.308 433.496C455.78 431.912 451.267 428.906 451.711 427.316C452.155 425.725 459.481 426.008 459.903 424.414C460.325 422.819 458.193 420.532 458.587 418.931C458.985 417.323 453.677 414.405 454.043 412.796C454.412 411.182 463.573 411.515 463.917 409.902C464.259 408.281 464.06 406.495 464.377 404.875C464.69 403.246 464.447 401.469 464.732 399.848C465.021 398.221 459.075 395.556 459.332 393.929C459.592 392.295 461.863 391.005 462.092 389.37C462.325 387.73 459.063 385.692 459.261 384.057C459.459 382.421 468.309 381.752 468.479 380.109C468.646 378.456 468.512 376.713 468.647 375.076C468.783 373.422 463.673 371.375 463.777 369.737C463.881 368.082 463.265 366.437 463.341 364.791C463.417 363.146 466.232 361.585 466.263 359.947C466.299 358.287 464.48 356.63 464.468 354.985C464.466 353.321 463.321 351.741 463.278 350.095C463.235 348.433 468.824 346.553 468.736 344.915C468.649 343.277 467.256 341.626 467.128 339.99C466.997 338.329 469.32 336.367 469.142 334.735C468.961 333.078 465.77 331.723 465.541 330.096C465.316 328.448 464.223 326.919 463.947 325.307C463.662 323.665 461.038 322.513 460.702 320.908C460.364 319.277 464.017 316.752 463.624 315.164C463.223 313.547 462.377 309.511 461.921 307.936C461.373 307.625 459.216 311.625 459.216 311.625L459.187 311.633Z" fill="#0C513F"/>
<path d="M449.329 308.484C449.548 310.129 447.02 312.044 447.198 313.691C447.382 315.342 452.649 316.448 452.798 318.103C452.941 319.756 448.017 321.762 448.128 323.414C448.237 325.072 453.619 326.407 453.69 328.06C453.762 329.714 453.186 331.416 453.222 333.074C453.259 334.733 456.296 336.403 456.298 338.067C456.294 339.727 451.578 341.361 451.542 343.021C451.507 344.68 455.978 346.51 455.905 348.165C455.831 349.821 448.389 351.082 448.284 352.736C448.18 354.391 451.069 356.219 450.927 357.869C450.785 359.519 455.091 361.626 454.917 363.275C454.744 364.924 451.688 366.283 451.478 367.928C451.273 369.576 452.119 371.385 451.878 373.028C451.639 374.666 448.563 375.871 448.289 377.514C448.019 379.151 451.47 381.457 451.162 383.089C450.858 384.715 447.626 385.796 447.291 387.422C446.955 389.047 449.084 391.221 448.715 392.836C448.352 394.454 449.377 396.463 448.979 398.07C448.582 399.678 448.44 401.431 448.014 403.032C447.589 404.632 446.139 406.022 445.686 407.616C445.232 409.209 445.55 411.099 445.069 412.685C444.587 414.271 436.141 413.336 435.631 414.916C435.116 416.491 441.745 420.456 441.202 422.025C440.658 423.593 432.451 422.406 431.88 423.967C431.312 425.523 431.842 427.416 431.24 428.961C430.644 430.509 434.827 433.934 434.2 435.466C433.57 437.004 432.952 438.564 432.303 440.091C431.648 441.616 434.472 444.73 433.792 446.241C433.112 447.752 424.234 445.479 423.53 446.977C422.804 448.455 424.325 450.961 423.575 452.427C422.824 453.892 420.747 454.601 419.96 456.046C419.179 457.495 419.998 459.782 419.189 461.208C418.377 462.64 414.739 462.365 413.899 463.774C413.057 465.189 414.047 467.632 413.179 469.034C412.315 470.43 416.201 474.864 415.306 476.244C414.411 477.623 409.58 476.417 408.657 477.774C407.732 479.136 407.488 480.946 406.541 482.289C405.594 483.632 408.47 487.785 407.496 489.105C406.521 490.425 400.364 487.885 399.365 489.192C398.366 490.499 399.625 493.549 398.599 494.833C397.572 496.118 394.718 495.907 393.67 497.172C392.622 498.437 393.016 500.908 391.946 502.154C390.877 503.399 390.722 505.472 389.622 506.7C388.531 507.926 388.088 509.796 386.967 511.005C385.848 512.208 380.721 509.634 379.587 510.821C378.454 512.007 378.256 514.057 377.095 515.221C375.934 516.385 372.534 515.196 371.358 516.344C370.176 517.489 373.566 523.374 372.362 524.499C371.165 525.628 366.861 523.37 365.646 524.473C364.43 525.576 364.897 528.533 363.66 529.616C362.423 530.7 361.181 531.764 359.926 532.822C358.727 533.822 355.988 532.719 354.671 533.672C353.401 534.594 354.531 538.991 353.172 539.873C351.849 540.734 349.23 539.585 347.854 540.426C346.494 541.252 345.054 541.9 343.66 542.7C342.27 543.493 344.085 550.041 342.692 550.81C341.283 551.594 338.168 549.301 336.772 550.06C335.35 550.837 334.034 549.84 332.657 550.594C331.226 551.374 329.563 554.073 328.494 552.987C328.531 553.023 326.73 547.938 327.832 546.631C328.931 545.331 333.49 546.969 334.611 545.672C335.725 544.388 333.329 540.009 334.449 538.727C335.57 537.446 337.439 536.799 338.575 535.518C339.708 534.243 343.737 535.549 344.876 534.278C346.015 533.006 343.41 528.395 344.543 527.12C345.682 525.849 346.759 524.545 347.892 523.27C349.029 521.989 349.721 520.366 350.848 519.088C351.972 517.8 355.972 519.042 357.08 517.754C358.195 516.454 359.361 515.221 360.454 513.917C361.551 512.607 360.36 509.459 361.429 508.141C362.504 506.812 366.843 508.117 367.891 506.781C368.944 505.431 368.249 502.781 369.263 501.418C370.283 500.043 371.206 498.64 372.183 497.257C373.151 495.933 374.404 494.819 375.352 493.476C376.305 492.136 380.769 493.255 381.698 491.902C382.633 490.552 377.429 485.049 378.339 483.686C379.249 482.323 387.096 485.536 387.987 484.163C388.882 482.784 390.037 481.513 390.904 480.126C391.78 478.737 390.466 475.952 391.317 474.55C392.175 473.15 389.237 469.481 390.076 468.072C390.91 466.66 395.984 467.726 396.799 466.303C397.613 464.881 398.808 463.639 399.604 462.207C400.4 460.775 398.002 457.58 398.78 456.138C399.557 454.695 402.841 454.581 403.601 453.128C404.36 451.676 406.298 450.796 407.039 449.334C407.78 447.871 404.454 444.36 405.183 442.891C405.905 441.419 406.877 440.089 407.581 438.607C408.284 437.124 406.918 434.701 407.609 433.212C408.301 431.723 415.208 433.077 415.881 431.578C416.554 430.08 419.071 429.352 419.732 427.847C420.383 426.344 414.086 421.835 414.725 420.326C415.364 418.817 421.565 419.607 422.189 418.097C422.809 416.578 423.105 414.892 423.713 413.366C424.321 411.84 426.163 410.756 426.749 409.227C427.335 407.697 421.403 403.679 421.977 402.142C422.551 400.606 423.486 399.225 424.048 397.682C424.609 396.139 422.7 393.749 423.24 392.202C423.779 390.655 427.229 390.145 427.763 388.595C428.29 387.041 427.837 385.182 428.352 383.622C428.867 382.062 435.332 382.437 435.831 380.876C436.331 379.316 430.82 375.843 431.304 374.282C431.791 372.715 434.183 371.745 434.655 370.178C435.126 368.61 438.889 368.005 439.348 366.431C439.807 364.857 434.62 361.654 435.067 360.073C435.52 358.495 443.369 358.989 443.807 357.411C444.244 355.832 437.405 352.256 437.83 350.671C438.255 349.086 441.952 348.383 442.365 346.791C442.78 345.209 441.222 343.112 441.625 341.524C442.028 339.935 444.477 338.861 444.874 337.269C445.271 335.677 444.887 333.895 445.269 332.302C445.65 330.71 448.303 329.642 448.678 328.046C449.053 326.45 450.3 325.038 450.669 323.439C451.038 321.84 445.635 318.95 445.991 317.345C446.345 315.745 451.232 315.135 451.58 313.532C451.927 311.929 446.058 313.148 446.399 311.542C445.978 310.981 449.319 308.502 449.319 308.502L449.329 308.484Z" fill="#0C513F"/>
<path d="M305.195 537.329C305.592 535.721 309.335 534.74 309.767 533.143C310.199 531.546 308.659 529.443 309.122 527.863C309.581 526.273 312.436 525.449 312.92 523.872C313.408 522.289 314.948 521.131 315.46 519.561C315.972 517.992 311.085 514.632 311.628 513.079C312.171 511.526 317.254 511.602 317.819 510.053C318.387 508.497 318.129 506.704 318.722 505.162C319.315 503.619 313.725 499.659 314.34 498.12C314.951 496.588 315.939 495.156 316.572 493.627C317.211 492.103 315.836 489.666 316.493 488.151C317.151 486.636 320.775 486.379 321.455 484.868C322.131 483.363 321.668 481.299 322.366 479.798C323.061 478.303 323.118 476.456 323.829 474.962C324.539 473.467 326.948 472.761 327.671 471.274C328.4 469.789 329.725 468.586 330.466 467.108C331.208 465.63 332.452 464.4 333.205 462.929C333.959 461.457 337.673 461.534 338.439 460.07C339.204 458.605 341.19 457.814 341.965 456.363C342.75 454.908 339.068 451.053 339.859 449.602C340.643 448.147 338.655 445.15 339.452 443.702C340.249 442.254 349.066 445.274 349.875 443.833C350.684 442.392 347.905 438.944 348.72 437.506C349.536 436.068 348.069 433.328 348.887 431.899C349.709 430.465 348.917 428.097 349.745 426.665C350.569 425.24 358.168 427.731 358.996 426.299C359.83 424.871 353.301 419.155 354.135 417.727C354.965 416.305 360.135 417.414 360.975 415.99C361.809 414.562 364.658 414.324 365.492 412.896C366.332 411.471 366.497 409.659 367.337 408.234C368.189 406.816 363.798 402.109 364.693 400.714C365.589 399.319 370.898 400.774 371.821 399.402C372.744 398.03 374.13 396.995 375.083 395.64C376.037 394.285 374.14 390.883 375.118 389.541C376.093 388.205 379.902 388.962 380.901 387.639C381.895 386.313 385.021 386.654 386.033 385.338C387.045 384.022 384.075 379.644 385.096 378.341C386.117 377.038 391.035 378.806 392.062 377.506C393.089 376.207 390.042 371.691 391.069 370.392C392.096 369.092 393.606 368.18 394.634 366.88C395.661 365.58 394.354 362.456 395.375 361.153C396.396 359.85 401.042 361.385 402.054 360.069C403.055 358.803 400.581 354.788 401.585 353.531C402.589 352.274 409.238 355.51 410.245 354.247C411.249 352.99 409.948 349.885 410.958 348.632C411.968 347.379 409.56 343.359 410.576 342.109C411.586 340.856 414.804 341.382 415.823 340.125C416.839 338.875 417.043 336.948 418.072 335.705C419.094 334.458 422.279 334.998 423.308 333.755C424.339 332.521 422.522 328.884 423.565 327.656C424.603 326.426 427.867 327.072 428.91 325.844C429.96 324.62 429.127 321.769 430.189 320.551C431.242 319.337 431.247 317.159 432.312 315.951C433.377 314.744 434.254 313.323 435.338 312.125C436.415 310.924 438.264 310.386 439.354 309.191C440.44 308.003 445.814 305.666 446.913 304.484C446.305 305.994 439.553 309.028 438.956 310.52C438.354 312.034 444.634 316.263 444.037 317.755C443.435 319.269 435.44 317.822 434.843 319.313C434.245 320.805 434.709 322.734 434.111 324.226C433.507 325.73 437.595 329.111 436.994 330.594C436.39 332.098 435.808 333.606 435.195 335.097C434.578 336.594 437.429 339.54 436.81 341.028C436.187 342.522 427.418 340.578 426.786 342.059C426.151 343.546 427.756 345.971 427.105 347.442C426.458 348.923 424.464 349.773 423.798 351.244C423.132 352.715 424.099 354.907 423.414 356.368C422.73 357.828 419.15 357.871 418.448 359.322C417.745 360.773 418.914 363.09 418.189 364.537C417.465 365.984 421.669 369.946 420.92 371.38C420.177 372.801 415.356 372.079 414.582 373.5C413.814 374.908 413.747 376.701 412.948 378.108C412.156 379.503 415.367 383.271 414.534 384.668C413.701 386.065 407.469 384.168 406.615 385.545C405.77 386.904 407.293 389.761 406.411 391.131C405.542 392.477 402.739 392.541 401.829 393.888C400.999 395.087 401.731 397.479 400.927 398.955C400.206 400.292 400.594 402.228 399.891 403.695C399.214 405.096 399.384 406.89 398.726 408.333C398.067 409.776 392.512 408.968 391.86 410.383C391.179 411.854 391.674 413.783 390.999 415.138C390.25 416.644 386.829 416.334 386.082 417.587C385.255 419.018 390.004 423.711 389.17 425.139C388.346 426.564 383.64 425.745 382.813 427.177C381.985 428.608 383.294 431.271 382.466 432.702C381.639 434.134 380.808 435.555 379.981 436.987C379.153 438.418 376.171 438.592 375.344 440.024C374.516 441.455 377.302 444.978 376.475 446.41C375.647 447.841 372.81 448.101 371.983 449.533C371.155 450.964 370.177 452.306 369.343 453.734C368.509 455.162 373.262 459.849 372.428 461.277C371.594 462.705 367.797 462.4 366.963 463.828C366.129 465.256 361.751 464.597 360.911 466.022C360.071 467.447 357.739 467.979 356.899 469.404C356.059 470.829 361.924 476.227 361.078 477.648C360.232 479.07 355.574 478.221 354.728 479.642C353.882 481.063 356.967 484.843 356.115 486.262C355.263 487.68 353.601 488.621 352.743 490.036C351.885 491.451 347.781 490.901 346.923 492.316C346.065 493.731 349.395 497.706 348.53 499.118C347.665 500.529 346.844 501.979 345.973 503.388C345.102 504.796 344.686 506.497 343.809 507.901C342.933 509.306 338.868 508.729 337.988 510.125C337.105 511.526 336.145 512.878 335.262 514.28C334.373 515.678 335.899 518.617 335.004 520.012C334.108 521.407 329.744 520.573 328.846 521.958C327.948 523.344 328.819 525.89 327.914 527.272C327.01 528.654 326.151 530.084 325.241 531.463C324.33 532.841 323.115 534.032 322.199 535.407C321.282 536.783 316.869 535.803 315.94 537.172C315.011 538.541 316.006 543.453 315.074 544.812C312.242 544.104 314.162 537.136 311.337 536.384C308.108 535.526 307.313 539.362 305.194 537.344L305.195 537.329Z" fill="#0C513F"/>
<path d="M450.329 310.404C457.2 313.722 463.565 314.766 464.546 312.735C465.526 310.705 460.751 306.369 453.879 303.051C447.008 299.733 440.643 298.689 439.662 300.719C438.682 302.75 443.457 307.086 450.329 310.404Z" fill="#02C27F"/>
<path d="M451.028 293.98C452.117 293.7 453.243 294.283 453.637 295.339C455.01 299.063 458.014 307.183 458.533 308.33C459.211 309.817 456.131 310.424 450.189 307.323C444.247 304.223 447.703 303.333 447.703 303.333L449.438 295.629C449.62 294.82 450.238 294.19 451.034 293.983L451.028 293.98Z" fill="#0EA56B"/>
<path d="M551.533 348.952C559 353.294 565.683 355.73 566.459 354.395C567.235 353.06 561.811 348.458 554.344 344.117C546.877 339.775 540.195 337.338 539.418 338.674C538.642 340.009 544.066 344.611 551.533 348.952Z" fill="#CA320D"/>
<path d="M592.611 309.403L565.57 293.682L560.71 302.042L587.75 317.763L592.611 309.403Z" fill="#FF884D"/>
<path d="M563.395 297.426L590.435 313.147L584.132 323.989C583.123 325.723 580.894 326.313 579.16 325.305L558.414 313.243C556.68 312.235 556.09 310.006 557.098 308.271L563.402 297.43L563.395 297.426Z" fill="#ED5E3B"/>
<path d="M565.979 353.879L539.925 338.731C539.906 338.635 565.979 353.879 565.979 353.879Z" fill="#02C27F"/>
<path d="M487.895 382.003C487.774 382.196 487.641 382.392 487.523 382.578L487.895 382.003Z" fill="#02C27F"/>
<path d="M539.925 338.727C539.906 338.631 565.979 353.875 565.979 353.875L539.925 338.727Z" fill="#02C27F"/>
<path d="M553.804 421.114C553.87 421.001 553.937 420.869 553.988 420.748L553.804 421.114Z" fill="#02C27F"/>
<path d="M553.99 420.75L459.506 583.261C456.645 588.181 450.357 589.864 445.443 587.007L396.924 558.798C392.018 555.946 390.358 549.651 393.223 544.724L487.846 381.973L487.888 381.998C499.823 363.678 522.258 359.886 526.169 358.255C529.568 356.836 532.135 352.065 532.135 352.065L539.918 338.726L565.972 353.874L558.231 367.237C558.231 367.237 555.365 371.825 555.81 375.488C556.32 379.69 564.132 401.067 554.115 420.502C554.077 420.584 554.028 420.669 553.983 420.746L553.99 420.75Z" fill="#ED5E3B"/>
<path d="M553.991 420.753L459.506 583.263C456.646 588.184 450.357 589.866 445.444 587.01L396.925 558.8C392.019 555.948 390.359 549.654 393.223 544.726L487.847 381.976L487.889 382C499.823 363.68 522.259 359.889 526.17 358.257C527.325 357.778 528.373 356.916 529.254 355.985C529.859 356.941 535.364 360.613 542.286 364.637C549.208 368.662 555.116 371.625 556.254 371.664C555.89 372.905 555.653 374.239 555.808 375.48C556.318 379.681 564.13 401.059 554.113 420.494C554.075 420.575 554.026 420.66 553.981 420.737L553.991 420.753Z" fill="#FF884D"/>
<path d="M548.39 430.381L493.455 524.868C484.721 522.516 471.926 516.831 458.371 508.95C453.563 506.154 449.051 503.305 444.942 500.51C442.151 501.708 439.115 501.706 436.599 500.243C433.483 498.432 431.92 494.826 432.188 490.926C430.294 489.315 428.612 487.781 427.179 486.335L481.471 392.955C486.411 392.667 493.134 393.124 499.202 396.492C510.522 402.752 537.089 415.265 543.131 423.334C545.274 426.202 547.029 428.552 548.404 430.389L548.39 430.381Z" fill="#992600"/>
<path d="M554.132 420.51L553.993 420.75C554.038 420.672 554.087 420.588 554.125 420.506L554.132 420.51Z" fill="#02C27F"/>
<path d="M559.673 313.94L577.923 324.551C580.348 325.961 581.174 329.082 579.764 331.507L566.445 354.416L539.404 338.695L552.724 315.785C554.134 313.36 557.255 312.534 559.68 313.944L559.673 313.94Z" fill="#ED5E3B"/>
<path d="M542.029 365.09C549.489 369.427 555.853 372.397 556.245 371.723C556.636 371.05 550.907 366.988 543.448 362.651C535.988 358.315 529.624 355.345 529.232 356.018C528.841 356.692 534.57 360.754 542.029 365.09Z" fill="#992600"/>
<path d="M595.566 303.592L568.969 288.129C567.977 287.552 566.704 287.889 566.127 288.882L564.143 292.293C563.566 293.286 563.903 294.559 564.896 295.136L591.492 310.599C592.485 311.176 593.757 310.839 594.335 309.847L596.318 306.435C596.895 305.442 596.559 304.169 595.566 303.592Z" fill="#ED5E3B"/>
<path d="M451.036 468.684C450.991 468.762 450.916 468.842 450.829 468.895L451.097 468.531C451.08 468.577 451.061 468.642 451.036 468.684Z" fill="#038B5C"/>
<path d="M451.132 468.506L451.115 468.536C451.115 468.536 451.121 468.509 451.125 468.502L451.132 468.506Z" fill="#038B5C"/>
<path d="M504.83 500.12C504.83 500.12 544.01 502.566 543.202 533.077C542.395 563.588 526.127 604.028 496.539 603.51L473.955 599.43C473.955 599.43 449.462 592.94 445.75 566.54C442.146 540.931 446.092 491.955 488.068 494.779C490.415 494.94 492.723 495.442 494.915 496.294L504.818 500.123L504.83 500.12Z" fill="#038B5C"/>
<path d="M518.463 513.014C518.463 513.014 506.628 506.13 497.032 507.388" stroke="#0C513F" stroke-width="1.91627" stroke-miterlimit="10"/>
<path d="M511.535 509.959L527.847 503.476C529.072 502.986 529.573 501.512 528.887 500.387C528.352 499.5 527.259 499.134 526.294 499.506L505.465 507.546L511.535 509.959Z" fill="#0C513F"/>
<path d="M343.725 544.461C343.725 544.461 323.607 545.124 299.998 533.847C276.392 522.551 255.586 541.476 228.634 525.212L237.782 515.956C237.782 515.956 247.873 522.436 268.115 522.495C288.35 522.56 298.295 522.067 313.311 529.007C324.397 534.132 334.231 533.282 338.61 532.478C338.583 532.537 338.573 532.599 338.54 532.656L343.726 544.455L343.725 544.461Z" fill="#990038"/>
<path d="M338.608 532.489C334.228 533.293 324.394 534.143 313.308 529.017C298.298 522.078 288.347 522.571 268.112 522.506C247.877 522.441 237.78 515.966 237.78 515.966C237.78 515.966 238.841 510.136 241.733 497.791C242.263 495.511 242.777 493.462 243.252 491.545C244.799 491.254 246.657 491.117 248.857 491.214C258.409 491.662 270.023 501.54 293.226 501.571C315.704 501.575 331.125 496.139 339.175 497.758C339.018 512.343 341.286 525.9 338.614 532.49L338.608 532.489Z" fill="#EA212D"/>
<path d="M339.176 497.755C331.133 496.136 315.705 501.572 293.228 501.568C270.024 501.537 258.41 491.665 248.859 491.21C246.658 491.114 244.801 491.251 243.254 491.542C245.898 481.274 247.842 475.677 248.877 464.558C249.501 457.869 249.929 452.359 250.244 447.77C264.423 451.647 285.206 456.965 297.687 458.525C314.405 460.611 338.138 458.11 346.092 457.13C344.107 464.678 342.279 473.275 340.562 482.229C339.586 487.361 339.238 492.631 339.175 497.761L339.176 497.755Z" fill="#EA212D"/>
<path d="M352.345 438.597C350.11 443.188 348.022 449.62 346.086 457.131C338.132 458.111 314.405 460.613 297.681 458.525C285.199 456.972 264.417 451.648 250.238 447.771C251.238 432.853 250.915 427.608 251.795 423.707C255.324 424.802 260.466 425.879 266.113 425.391C276.494 424.503 293.767 430.278 302.085 430.774C310.25 431.285 340.608 433.198 352.347 438.584L352.345 438.597Z" fill="#EA212D"/>
<path d="M359.983 423.396C359.983 423.396 358.546 428.126 353.849 435.797C353.346 436.64 352.836 437.564 352.342 438.597C340.604 433.211 310.252 431.299 302.081 430.787C293.763 430.291 276.49 424.516 266.108 425.404C260.461 425.892 255.319 424.815 251.79 423.72C251.784 423.638 251.811 423.579 251.821 423.517L247.628 409.282C247.628 409.282 253.314 404.496 278.896 410.79C304.487 417.061 302.517 412.778 327.37 418.522C352.219 424.285 359.97 423.401 359.97 423.401L359.983 423.396Z" fill="#FF884D"/>
<path d="M325.9 483.436C323.352 500.463 309.183 508.716 290.999 505.995C272.816 503.274 257.505 490.609 260.053 473.583C262.601 456.556 282.333 443.253 300.516 445.974C318.699 448.695 328.449 466.404 325.9 483.436Z" fill="#FFC6B2"/>
<path d="M293.968 473.334C298.97 474.083 303.633 470.634 304.381 465.632C305.13 460.629 301.681 455.967 296.679 455.219C291.676 454.47 287.014 457.919 286.266 462.921C285.517 467.923 288.966 472.586 293.968 473.334Z" fill="#EA212D"/>
<path d="M304.084 466.955C303.145 470.036 300.589 472.528 297.224 473.239C292.28 474.286 287.413 471.117 286.366 466.172C286.102 464.912 286.108 463.649 286.348 462.471C286.378 462.815 286.431 463.131 286.5 463.468C287.613 468.731 292.795 472.105 298.064 470.993C300.61 470.456 302.714 468.965 304.084 466.955Z" fill="#DB121E"/>
<path d="M298.542 457.318C298.593 457.055 298.183 456.754 297.627 456.645C297.07 456.537 296.577 456.663 296.526 456.926C296.475 457.189 296.885 457.49 297.441 457.598C297.998 457.706 298.491 457.581 298.542 457.318Z" fill="#FF424E"/>
<path d="M279.101 490.875C284.103 491.624 288.765 488.175 289.514 483.173C290.262 478.17 286.814 473.508 281.812 472.76C276.809 472.011 272.147 475.46 271.398 480.462C270.65 485.464 274.098 490.127 279.101 490.875Z" fill="#EA212D"/>
<path d="M288.939 485.258C287.731 488.242 284.964 490.502 281.55 490.909C276.533 491.517 271.968 487.928 271.36 482.911C271.206 481.629 271.324 480.376 271.673 479.221C271.673 479.56 271.699 479.891 271.737 480.224C272.378 485.567 277.249 489.385 282.586 488.737C285.174 488.426 287.401 487.129 288.941 485.246L288.939 485.258Z" fill="#DB121E"/>
<path d="M284.264 475.145C284.338 474.887 283.956 474.551 283.411 474.394C282.866 474.237 282.365 474.319 282.291 474.577C282.216 474.834 282.598 475.17 283.143 475.327C283.688 475.484 284.189 475.402 284.264 475.145Z" fill="#FF424E"/>
<path d="M305.577 494.729C310.58 495.477 315.242 492.029 315.99 487.026C316.739 482.024 313.291 477.362 308.288 476.613C303.286 475.865 298.624 479.313 297.875 484.316C297.126 489.318 300.575 493.98 305.577 494.729Z" fill="#EA212D"/>
<path d="M315.778 483.35C316.595 486.467 315.731 489.93 313.237 492.3C309.576 495.784 303.778 495.646 300.287 491.985C299.401 491.053 298.744 489.974 298.329 488.842C298.533 489.118 298.748 489.364 298.982 489.606C302.696 493.503 308.877 493.648 312.772 489.94C314.658 488.146 315.667 485.774 315.773 483.343L315.778 483.35Z" fill="#DB121E"/>
<path d="M305.21 478.85C305.74 478.65 306.093 478.284 305.998 478.033C305.904 477.783 305.397 477.742 304.867 477.942C304.336 478.142 303.983 478.508 304.078 478.759C304.172 479.009 304.679 479.05 305.21 478.85Z" fill="#FF424E"/>
<path d="M506.171 592.383L497.758 589.92L497.171 591.923L505.584 594.386L506.171 592.383Z" fill="#FFC501"/>
<path d="M489.522 587.508L481.109 585.045L480.523 587.048L488.936 589.511L489.522 587.508Z" fill="#FFC501"/>
<path d="M472.89 582.639L464.477 580.176L463.89 582.179L472.303 584.642L472.89 582.639Z" fill="#FFC501"/>
<path d="M456.253 577.764L447.84 575.301L447.253 577.304L455.666 579.767L456.253 577.764Z" fill="#FFC501"/>
<path d="M439.62 572.899L431.207 570.436L430.621 572.439L439.034 574.902L439.62 572.899Z" fill="#FFC501"/>
<path d="M422.987 568.028L414.574 565.564L413.988 567.568L422.401 570.031L422.987 568.028Z" fill="#FFC501"/>
<path d="M406.347 563.154L397.934 560.691L397.347 562.694L405.76 565.158L406.347 563.154Z" fill="#FFC501"/>
<path d="M389.718 558.283L381.305 555.82L380.718 557.823L389.131 560.286L389.718 558.283Z" fill="#FFC501"/>
<path d="M373.077 553.414L364.664 550.951L364.078 552.954L372.491 555.417L373.077 553.414Z" fill="#FFC501"/>
<path d="M356.444 548.547L348.031 546.084L347.445 548.087L355.858 550.55L356.444 548.547Z" fill="#FFC501"/>
<path d="M339.811 543.674L331.398 541.211L330.812 543.214L339.225 545.677L339.811 543.674Z" fill="#FFC501"/>
<path d="M323.175 538.803L314.762 536.34L314.175 538.343L322.588 540.806L323.175 538.803Z" fill="#FFC501"/>
<path d="M306.542 533.934L298.129 531.471L297.542 533.474L305.956 535.937L306.542 533.934Z" fill="#FFC501"/>
<path d="M289.901 529.067L281.488 526.604L280.902 528.607L289.315 531.07L289.901 529.067Z" fill="#FFC501"/>
<path d="M273.265 524.197L264.852 521.734L264.265 523.737L272.678 526.201L273.265 524.197Z" fill="#FFC501"/>
<path d="M522.925 535.09L514.512 532.627L513.925 534.63L522.338 537.093L522.925 535.09Z" fill="#FFC501"/>
<path d="M506.292 530.217L497.879 527.754L497.292 529.757L505.705 532.22L506.292 530.217Z" fill="#FFC501"/>
<path d="M489.651 525.346L481.238 522.883L480.652 524.886L489.065 527.349L489.651 525.346Z" fill="#FFC501"/>
<path d="M473.011 520.475L464.598 518.012L464.011 520.015L472.424 522.478L473.011 520.475Z" fill="#FFC501"/>
<path d="M456.374 515.606L447.961 513.143L447.374 515.146L455.788 517.609L456.374 515.606Z" fill="#FFC501"/>
<path d="M439.749 510.735L431.336 508.271L430.749 510.275L439.163 512.738L439.749 510.735Z" fill="#FFC501"/>
<path d="M423.116 505.862L414.703 503.398L414.117 505.402L422.53 507.865L423.116 505.862Z" fill="#FFC501"/>
<path d="M406.468 500.994L398.055 498.531L397.468 500.534L405.881 502.997L406.468 500.994Z" fill="#FFC501"/>
<path d="M389.839 496.125L381.426 493.662L380.839 495.665L389.252 498.128L389.839 496.125Z" fill="#FFC501"/>
<path d="M373.206 491.254L364.793 488.791L364.207 490.794L372.62 493.257L373.206 491.254Z" fill="#FFC501"/>
<path d="M356.573 486.385L348.16 483.922L347.574 485.925L355.987 488.388L356.573 486.385Z" fill="#FFC501"/>
<path d="M339.933 481.514L331.52 479.051L330.933 481.054L339.346 483.517L339.933 481.514Z" fill="#FFC501"/>
<path d="M323.296 476.645L314.883 474.182L314.296 476.185L322.709 478.648L323.296 476.645Z" fill="#FFC501"/>
<path d="M306.663 471.774L298.25 469.311L297.664 471.314L306.077 473.777L306.663 471.774Z" fill="#FFC501"/>
<path d="M290.022 466.904L281.609 464.441L281.023 466.444L289.436 468.908L290.022 466.904Z" fill="#FFC501"/>
<path d="M223.18 329.014L201.95 509.097C201.075 516.496 205.674 523.442 212.819 525.534L538.102 620.767C545.272 622.866 552.904 619.474 556.152 612.744L634.812 449.527L223.18 329.014ZM556.823 449.819L567.761 453.021L539.195 541.253L530.782 538.79L556.83 449.821L556.823 449.819ZM256.19 520.8L247.777 518.337L260.07 469.848L270.236 472.824L256.19 520.8ZM273.017 463.324L264.604 460.86L288.323 371.21L299.065 374.355L273.017 463.324ZM272.826 525.671L264.413 523.208L278.459 475.232L286.872 477.695L272.826 525.671ZM289.653 468.194L281.24 465.731L307.288 376.762L315.701 379.226L289.653 468.194ZM289.462 530.541L281.049 528.078L295.095 480.102L303.508 482.566L289.462 530.541ZM306.289 473.065L297.876 470.602L323.924 381.633L332.337 384.096L306.289 473.065ZM306.098 535.412L297.685 532.949L311.731 484.973L320.144 487.436L306.098 535.412ZM322.926 477.935L314.513 475.472L340.56 386.504L348.973 388.967L322.926 477.935ZM322.728 540.281L314.315 537.818L328.361 489.842L336.774 492.305L322.728 540.281ZM339.556 482.804L331.143 480.341L357.19 391.372L365.603 393.835L339.556 482.804ZM339.364 545.151L330.951 542.688L344.997 494.712L353.41 497.175L339.364 545.151ZM356.192 487.675L347.779 485.212L373.826 396.243L382.239 398.706L356.192 487.675ZM356 550.022L347.587 547.559L361.633 499.583L370.046 502.046L356 550.022ZM372.828 492.545L364.415 490.082L390.462 401.113L398.875 403.577L372.828 492.545ZM372.63 554.891L364.223 552.429L378.269 504.453L386.676 506.915L372.63 554.891ZM389.458 497.414L381.051 494.953L407.098 405.984L415.505 408.445L389.458 497.414ZM425.373 389.035L434.258 391.636L431.912 399.648L423.027 397.047L425.373 389.035ZM389.267 559.761L380.853 557.298L394.899 509.322L403.312 511.785L389.267 559.761ZM406.094 502.285L397.681 499.821L423.728 410.853L432.141 413.316L406.094 502.285ZM405.903 564.632L397.49 562.169L411.536 514.193L419.949 516.656L405.903 564.632ZM422.73 507.155L414.317 504.692L440.364 415.723L448.778 418.186L422.73 507.155ZM422.539 569.502L414.126 567.039L428.172 519.063L436.585 521.526L422.539 569.502ZM439.366 512.026L430.953 509.563L457.001 420.594L465.414 423.057L439.366 512.026ZM439.169 574.371L430.756 571.908L444.802 523.932L453.215 526.395L439.169 574.371ZM455.996 516.894L447.583 514.431L473.631 425.463L482.044 427.926L455.996 516.894ZM455.805 579.242L447.392 576.779L461.438 528.803L469.851 531.266L455.805 579.242ZM472.632 521.765L464.219 519.302L490.267 430.333L498.68 432.796L472.632 521.765ZM472.441 584.112L464.028 581.649L478.074 533.673L486.487 536.136L472.441 584.112ZM489.269 526.636L480.855 524.172L506.903 435.204L515.316 437.667L489.269 526.636ZM489.077 588.983L480.664 586.52L494.71 538.544L503.123 541.007L489.077 588.983ZM505.905 531.506L497.492 529.043L523.539 440.074L531.952 442.538L505.905 531.506ZM505.707 593.852L497.294 591.389L511.34 543.413L519.753 545.876L505.707 593.852ZM522.535 536.375L514.122 533.912L540.169 444.943L548.582 447.406L522.535 536.375ZM522.343 598.722L513.93 596.259L527.976 548.283L538.957 551.498L522.343 598.722Z" fill="#FFC501"/>
<path d="M220.413 300.804L220.235 301.412C219.087 300.682 220.413 300.804 220.413 300.804Z" fill="#FFC62C"/>
<path d="M434.731 368.223C253.185 315.072 223.921 303.778 220.231 301.407L211.373 331.661C209.796 337.046 212.888 342.686 218.268 344.261L628.92 464.488C634.306 466.065 639.946 462.981 641.522 457.597L650.556 426.742C650.479 427.005 645.873 430.033 434.732 368.217L434.731 368.223ZM431.917 399.649L423.032 397.047L425.378 389.035L434.263 391.636L431.917 399.649Z" fill="#ECB600"/>
<path d="M257.402 316.387L259.467 316.991L249.466 351.154C249.353 351.54 248.949 351.761 248.563 351.648L247.895 351.452C247.509 351.339 247.288 350.935 247.401 350.549L257.402 316.387Z" fill="#E5B100"/>
<path d="M440.115 371.656L431.23 369.055L428.885 377.067L437.77 379.668L440.115 371.656Z" fill="#FFCAB0"/>
<path d="M423.598 381.627L439.78 386.365L438.826 389.624C437.942 392.644 434.776 394.37 431.761 393.487L426.516 391.952C423.495 391.067 421.767 387.901 422.65 384.888L423.604 381.629L423.598 381.627Z" fill="black"/>
<path d="M433.029 373.632L436.142 374.544C437.931 375.068 438.958 376.945 438.434 378.733L436.365 385.802L426.763 382.991L428.833 375.922C429.356 374.133 431.233 373.107 433.023 373.631L433.029 373.632Z" fill="black"/>
<path d="M430.614 387.647C432.587 388.225 434.654 387.094 435.232 385.122C435.809 383.15 434.678 381.082 432.705 380.505C430.732 379.927 428.665 381.058 428.087 383.03C427.51 385.003 428.641 387.07 430.614 387.647Z" fill="#161616"/>
<path d="M431.139 385.871C432.13 386.161 433.17 385.593 433.46 384.602C433.75 383.611 433.181 382.572 432.19 382.281C431.198 381.991 430.159 382.559 429.869 383.551C429.579 384.542 430.147 385.581 431.139 385.871Z" fill="black"/>
<path d="M631.343 116.108C628.845 119.949 625.786 123.399 622.268 126.335L556.06 181.543C551.772 185.092 549.645 190.614 550.442 196.124L558.398 250.93L571.576 267.815L592.407 268.99C593.809 269.068 595.204 268.828 596.501 268.281L604.462 264.916L604.879 267.502C605.396 270.686 608.119 273.04 611.347 273.083L614.926 273.131C616.781 273.149 618.603 272.62 620.149 271.591L621.553 270.662C622.515 270.025 623.634 269.672 624.787 269.622L628.436 269.493C632.145 269.361 635.356 266.899 636.446 263.351L648.442 224.219L664.296 189.826C667.053 183.849 667.086 178.769 666.83 172.186C666.83 172.186 668.086 159.363 670.126 155.677C677.395 142.533 721.17 108.017 725.266 105.345L753.763 87.9805L742.707 -0.119141L646.437 95.122C644.02 97.1098 641.973 99.5118 640.38 102.21L631.343 116.108Z" fill="#873E27"/>
<path d="M612.825 224.791C613.694 225.763 615.506 231.572 616.217 235.19C616.748 238.178 617.207 241.466 616.111 244.441C612.899 251.718 609.133 258.691 604.828 265.374C606.035 261.942 607.413 258.598 608.848 255.283C610.528 251.348 612.364 247.504 614.079 243.608C615.015 241.034 614.684 238.187 614.471 235.446C614.114 232.105 614.118 225.772 611.037 223.826C610.759 223.654 612.864 224.979 612.83 224.786L612.825 224.791Z" fill="#772C1E"/>
<path d="M588.369 219.112C588.369 219.112 598.338 210.283 607.077 218.623C616.392 227.502 611.637 224.416 611.637 224.416C611.637 224.416 604.418 219.746 600.32 223.902C593.273 231.052 588.369 219.112 588.369 219.112Z" fill="#772C1E"/>
<path d="M592.716 220.838L588.369 219.106L557.41 244.199L558.372 250.166L592.716 220.838Z" fill="#772C1E"/>
<path opacity="0.7" d="M607.293 234.856C607.293 234.856 612.431 233.345 612.956 235.262C613.595 237.603 602.754 254.301 598.505 256.717C594.256 259.132 579.894 264.637 579.894 264.637L579.525 255.566L607.293 234.856Z" fill="#772C1E"/>
<path d="M442.915 372.038L429.804 366.709L589.561 220.882C591.998 218.651 593.906 217.24 596.293 217.839C597.521 218.148 598.527 219.026 599.173 220.121C600.077 221.651 601.778 224.331 603.908 226.659C606.853 229.877 610.67 232.205 610.67 232.205C613.446 235.283 608.924 239.087 607.204 240.671L456.519 375.802L442.915 372.038Z" fill="black"/>
<path d="M593.066 219.213L595.328 221.684L560.263 253.776C559.804 254.196 559.084 254.164 558.664 253.705L557.93 252.903C557.51 252.444 557.542 251.725 558.001 251.305L593.066 219.213Z" fill="#161616"/>
<path d="M606.418 233.666L608.68 236.137L573.537 268.3C573.078 268.72 572.358 268.688 571.938 268.229L571.205 267.427C570.785 266.968 570.816 266.248 571.275 265.829L606.418 233.666Z" fill="#161616"/>
<path d="M597.555 223.785L599.817 226.257L560.058 262.643C559.6 263.063 558.88 263.031 558.46 262.572L557.726 261.77C557.306 261.312 557.338 260.592 557.797 260.172L597.555 223.785Z" fill="#161616"/>
<path d="M602.102 229.029L604.363 231.501L564.605 267.887C564.147 268.307 563.427 268.275 563.007 267.816L562.273 267.015C561.853 266.556 561.885 265.836 562.343 265.416L602.102 229.029Z" fill="#161616"/>
<path d="M634.275 111.777C625.734 106.135 628.421 94.1697 640.419 95.3405C652.124 96.4828 682.297 128.875 683.866 147.327C685.122 162.089 674.645 157.063 670.971 154.54" stroke="#EA212D" stroke-width="3.70078"/>
<path d="M656.595 431.163C633.211 431.273 532.854 398.852 437.499 371.181C322.165 337.72 211.841 307.755 212.383 298.111C212.624 293.832 218.107 292.624 223.809 292.531C221.273 293.285 219.491 294.645 219.369 296.971C218.893 306.162 326.18 335.345 438.353 367.9C531.078 394.807 628.707 426.297 651.401 426.317C657.763 426.33 646.809 413.959 640.944 407.792L642.536 408.239C642.536 408.239 665.341 431.123 656.595 431.163Z" fill="#FFDE70"/>
<path d="M221.03 290.052L218.858 292.608L219.448 296.751L224.982 295.392L224.202 291.08L221.03 290.052Z" fill="#006E00"/>
<path d="M638.342 408.895L641.027 404.447L652.345 413.479L648.905 418.759L638.342 408.895Z" fill="#DC0000"/>
</g>
<path d="M183.505 207.5L126.406 174.531L4.74172 385.228L61.8408 418.196L183.505 207.5Z" fill="#ED5E3B"/>
<path d="M6.68659 382.553L63.1943 415.18C64.1996 415.76 64.5454 417.051 63.9651 418.055L61.9027 421.627L1.74842 386.894L3.81077 383.323C4.39107 382.318 5.68131 381.972 6.68659 382.553Z" fill="#992600"/>
<path d="M84.1835 307.302C84.1835 307.302 72.1875 300.18 71.5943 293.654C70.9011 286.001 75.8447 276.931 79.7646 279.936C83.687 282.937 81.676 298.987 92.9535 305.007C104.231 311.027 105.461 304.855 110.923 309.238C114.951 312.47 107.659 326.141 94.4732 319.406C86.4199 315.295 84.1835 307.302 84.1835 307.302Z" fill="#FFC301"/>
<path d="M84.189 307.297C84.189 307.297 72.3471 302.457 71.6074 293.659C70.9333 285.678 74.7602 279.16 78.3016 279.355C78.3168 279.363 78.3601 279.365 78.4033 279.368C78.6627 279.41 78.9296 279.475 79.1735 279.572C79.3793 279.67 79.5773 279.783 79.7753 279.921C79.8945 280.013 80.0061 280.12 80.1176 280.228C82.7262 283.431 81.5001 299.177 84.1865 307.289L84.189 307.297Z" fill="#F7B600"/>
<path d="M90.9423 335.407C88.5318 331.621 85.5896 328.472 81.1601 317.715C76.8441 307.225 73.0951 298.832 64.3395 301.338C55.5839 303.843 47.329 326.3 54.0502 336.016C63.8991 350.243 87.3572 328.708 97.442 333.909C103.888 337.228 97.2504 345.334 90.9372 335.404L90.9423 335.407Z" fill="#F7B600"/>
<path d="M90.9383 335.412C90.5386 334.79 90.144 334.196 89.7163 333.578C92.7088 332.916 95.3759 332.848 97.4558 333.918C103.886 337.241 97.2464 345.34 90.9383 335.412Z" fill="#FFC301"/>
<path d="M32.84 370.823C37.1403 369.54 41.4247 369.085 51.8169 363.856C61.9464 358.755 70.2773 354.869 75.2507 362.491C80.2266 370.121 71.7634 392.498 60.3164 395.436C43.5586 399.738 39.9323 368.101 28.9039 365.426C21.8568 363.715 21.567 374.186 32.8375 370.815L32.84 370.823Z" fill="#F7B600"/>
<path d="M32.8402 370.827C33.5509 370.619 34.2413 370.426 34.9672 370.238C33.1369 367.778 31.1641 365.979 28.8939 365.425C21.8594 363.727 21.5722 374.193 32.8402 370.827Z" fill="#FFC301"/>
<path d="M60.5296 357.85C60.5296 357.85 47.9509 359.305 43.2908 350.949C39.548 344.234 39.9233 334.024 44.7542 335.048C49.585 336.073 54.6788 351.423 67.4481 352.002C80.2175 352.581 78.671 346.478 85.4895 348.086C90.5132 349.272 89.7521 365.826 75.0218 364.346C68.1234 363.654 60.5245 357.848 60.5245 357.848L60.5296 357.85Z" fill="#FFC301"/>
<path d="M60.5337 357.845C60.5337 357.845 47.9524 359.305 43.3101 350.951C40.0171 345.063 39.9153 336.504 43.1954 335.159C43.2132 335.162 43.254 335.144 43.2922 335.132C43.5419 335.054 43.8093 335.004 44.079 334.987C44.3081 334.988 44.5294 335.004 44.771 335.043C44.921 335.075 45.0684 335.124 45.2158 335.173C48.9496 336.943 54.6208 351.68 60.5388 357.848L60.5337 357.845Z" fill="#F7B600"/>
<path d="M134.805 217.585C134.805 217.585 122.809 210.463 122.215 203.937C121.522 196.284 126.466 187.214 130.386 190.219C134.308 193.22 132.297 209.27 143.575 215.29C154.852 221.31 156.082 215.138 161.544 219.521C165.572 222.754 158.28 236.424 145.094 229.689C137.041 225.578 134.805 217.585 134.805 217.585Z" fill="#FFC301"/>
<path d="M134.806 217.58C134.806 217.58 122.964 212.741 122.225 203.942C121.551 195.961 125.377 189.443 128.919 189.638C128.934 189.646 128.977 189.649 129.02 189.651C129.28 189.693 129.547 189.758 129.791 189.856C129.996 189.953 130.195 190.066 130.392 190.204C130.512 190.296 130.623 190.403 130.735 190.511C133.343 193.714 132.117 209.46 134.804 217.572L134.806 217.58Z" fill="#F7B600"/>
<path d="M139.29 248.59C136.879 244.805 133.937 241.656 129.508 230.898C125.192 220.409 121.443 212.016 112.687 214.521C103.932 217.027 95.6767 239.484 102.398 249.2C112.247 263.426 135.705 241.892 145.79 247.093C152.235 250.411 145.598 258.518 139.285 248.588L139.29 248.59Z" fill="#F7B600"/>
<path d="M139.29 248.596C138.89 247.974 138.496 247.379 138.068 246.762C141.06 246.1 143.727 246.032 145.807 247.101C152.238 250.425 145.598 258.524 139.29 248.596Z" fill="#FFC301"/>
<path d="M102.053 279.737C102.053 279.737 89.4743 281.192 84.8142 272.835C81.0715 266.121 81.4467 255.91 86.2776 256.935C91.1085 257.96 96.2022 273.309 108.972 273.888C121.741 274.467 120.194 268.365 127.013 269.973C132.037 271.159 131.276 287.713 116.545 286.233C109.647 285.541 102.048 279.734 102.048 279.734L102.053 279.737Z" fill="#FFC301"/>
<path d="M102.053 279.738C102.053 279.738 89.4719 281.198 84.8296 272.844C81.5366 266.956 81.4348 258.397 84.7149 257.052C84.7327 257.054 84.7735 257.037 84.8117 257.024C85.0614 256.946 85.3288 256.896 85.5986 256.88C85.8276 256.881 86.0489 256.897 86.2905 256.936C86.4405 256.967 86.5879 257.016 86.7353 257.065C90.4691 258.836 96.1403 273.572 102.058 279.741L102.053 279.738Z" fill="#F7B600"/>
<path d="M186.285 204.688L127.461 170.723C126.846 170.368 126.06 170.579 125.705 171.193L124.416 173.425C124.061 174.04 124.272 174.826 124.887 175.181L183.711 209.146C184.326 209.501 185.112 209.291 185.467 208.676L186.756 206.444C187.111 205.829 186.9 205.043 186.285 204.688Z" fill="#992600"/>
<path d="M189.925 552.827C189.925 552.827 176.036 567.167 151.363 575.264C126.679 583.346 124.982 611.387 94.4614 618.176L94.5583 605.168C94.5583 605.168 106.256 602.91 120.737 589.008C135.216 575.114 141.966 567.905 157.498 562.587C168.965 558.662 175.39 551.271 177.955 547.671C177.976 547.733 178.012 547.784 178.028 547.849L189.921 552.821L189.925 552.827Z" fill="#6B5FC9"/>
<path d="M177.967 547.68C175.402 551.28 168.977 558.671 157.51 562.596C141.984 567.911 135.228 575.123 120.749 589.017C106.27 602.91 94.5705 605.177 94.5705 605.177C94.5705 605.177 91.2783 600.223 84.7675 589.29C83.5621 587.274 82.5056 585.435 81.5136 583.719C82.4153 582.443 83.645 581.063 85.2813 579.618C92.4061 573.361 107.551 572.515 124.124 556.552C140.16 541.069 147.385 526.507 154.251 522.135C164.268 532.806 175.302 541.063 177.972 547.677L177.967 547.68Z" fill="#8C77EC"/>
<path d="M154.246 522.136C147.385 526.504 140.155 541.07 124.119 556.553C107.546 572.516 92.4047 573.367 85.2763 579.618C83.64 581.064 82.4103 582.443 81.5087 583.72C76.2634 574.461 73.7633 569.067 66.7793 560.301C62.5787 555.027 59.0575 550.742 56.0953 547.2C68.9018 540.24 87.4199 529.774 97.4058 522.305C110.78 512.298 125.972 494.136 130.965 487.947C134.791 494.781 139.459 502.267 144.452 509.935C147.32 514.324 150.732 518.381 154.25 522.141L154.246 522.136Z" fill="#8C77EC"/>
<path d="M122.56 470.21C124.155 475.075 127.132 481.172 130.968 487.946C125.975 494.136 110.788 512.294 97.4085 522.304C87.4262 529.778 68.9045 540.239 56.098 547.2C46.4504 535.706 42.578 532.13 40.496 528.698C43.7734 527.06 48.1898 524.298 51.8786 520.053C58.6671 512.259 74.9987 504.541 81.2767 499.169C87.4556 493.914 110.439 474.385 122.553 470.2L122.56 470.21Z" fill="#8C77EC"/>
<path d="M117.452 453.937C117.452 453.937 119.712 458.353 121.689 467.144C121.916 468.102 122.194 469.122 122.559 470.211C110.445 474.397 87.4667 493.922 81.2827 499.181C75.0047 504.552 58.6732 512.27 51.8846 520.065C48.1959 524.309 43.7794 527.071 40.5021 528.71C40.44 528.655 40.4189 528.593 40.3827 528.542L27.5059 521.12C27.5059 521.12 28.238 513.736 50.857 500.671C73.4665 487.582 69.0866 485.836 90.8037 472.876C112.532 459.93 117.446 453.949 117.446 453.949L117.452 453.937Z" fill="#AAA0EF"/>
<path d="M134.834 520.906C144.841 534.993 140.466 550.733 125.606 561.29C110.746 571.846 91.0283 573.221 81.0209 559.134C71.0135 545.046 75.849 521.817 90.709 511.26C105.569 500.704 124.823 506.813 134.834 520.906Z" fill="#DCD6F9"/>
<path d="M105.046 535.582C109.134 532.677 110.065 526.968 107.125 522.829C104.184 518.69 98.4866 517.689 94.3984 520.593C90.3102 523.497 89.3796 529.207 92.3199 533.346C95.2601 537.485 100.958 538.486 105.046 535.582Z" fill="#8C77EC"/>
<path d="M107.831 523.995C109.3 526.873 109.208 530.439 107.301 533.272C104.502 537.437 98.829 538.494 94.6486 535.634C93.5848 534.904 92.7121 533.984 92.0643 532.966C92.325 533.194 92.5827 533.387 92.8663 533.583C97.3145 536.628 103.354 535.502 106.34 531.067C107.783 528.923 108.249 526.394 107.831 523.995Z" fill="#7569CC"/>
<path d="M97.1803 520.837C97.0341 520.612 96.5325 520.676 96.0601 520.981C95.5877 521.286 95.3233 521.717 95.4696 521.943C95.6158 522.169 96.1173 522.104 96.5897 521.799C97.0621 521.494 97.3265 521.063 97.1803 520.837Z" fill="#9D91F2"/>
<path d="M106.624 558.525C110.712 555.621 111.643 549.911 108.703 545.772C105.762 541.633 100.065 540.632 95.9765 543.536C91.8884 546.441 90.9578 552.15 93.898 556.289C96.8382 560.428 102.536 561.429 106.624 558.525Z" fill="#8C77EC"/>
<path d="M109.74 547.681C110.95 550.674 110.546 554.217 108.394 556.864C105.238 560.761 99.4884 561.306 95.5704 558.091C94.5704 557.269 93.7845 556.28 93.2309 555.203C93.4665 555.449 93.7149 555.671 93.9734 555.886C98.1413 559.314 104.267 558.723 107.624 554.577C109.254 552.568 109.942 550.096 109.732 547.671L109.74 547.681Z" fill="#7569CC"/>
<path d="M99.3834 543.58C99.2574 543.343 98.7517 543.362 98.2538 543.624C97.756 543.886 97.4545 544.291 97.5805 544.529C97.7065 544.766 98.2122 544.747 98.7101 544.485C99.2079 544.223 99.5094 543.818 99.3834 543.58Z" fill="#9D91F2"/>
<path d="M128.179 543.095C132.267 540.191 133.198 534.481 130.257 530.342C127.317 526.204 121.619 525.203 117.531 528.107C113.443 531.011 112.512 536.721 115.453 540.859C118.393 544.998 124.091 545.999 128.179 543.095Z" fill="#8C77EC"/>
<path d="M127.56 527.821C130.308 529.516 132.096 532.619 131.963 536.054C131.772 541.1 127.54 544.995 122.507 544.748C121.228 544.683 120.01 544.354 118.928 543.82C119.265 543.88 119.589 543.91 119.924 543.924C125.28 544.188 129.789 540.034 129.993 534.665C130.092 532.067 129.165 529.654 127.552 527.82L127.56 527.821Z" fill="#7569CC"/>
<path d="M116.883 531.846C117.122 531.336 117.12 530.827 116.879 530.711C116.637 530.594 116.247 530.914 116.008 531.425C115.768 531.936 115.77 532.444 116.012 532.56C116.254 532.677 116.644 532.357 116.883 531.846Z" fill="#9D91F2"/>
<defs>
<linearGradient id="paint0_linear_4980_7606" x1="220.068" y1="233.325" x2="245.541" y2="407.259" gradientUnits="userSpaceOnUse">
<stop offset="0.1" stop-color="white" stop-opacity="0.5"/>
<stop offset="0.36" stop-color="#F8F8F8" stop-opacity="0.29"/>
<stop offset="0.63" stop-color="#F1F2F2" stop-opacity="0.08"/>
<stop offset="0.77" stop-color="#EFF0F0" stop-opacity="0"/>
</linearGradient>
<linearGradient id="paint1_linear_4980_7606" x1="255.504" y1="227.261" x2="275.416" y2="363.204" gradientUnits="userSpaceOnUse">
<stop offset="0.1" stop-color="white" stop-opacity="0.5"/>
<stop offset="0.36" stop-color="#F8F8F8" stop-opacity="0.29"/>
<stop offset="0.63" stop-color="#F1F2F2" stop-opacity="0.08"/>
<stop offset="0.77" stop-color="#EFF0F0" stop-opacity="0"/>
</linearGradient>
<clipPath id="clip0_4980_7606">
<rect width="607" height="636" fill="white" transform="translate(125.996)"/>
</clipPath>
</defs>
</svg>
